<svg width="168" height="168" viewBox="0 0 168 168" fill="none" xmlns="http://www.w3.org/2000/svg">
<path d="M140 8.75H63C52.3685 8.75 43.75 17.3685 43.75 28V140C43.75 150.631 52.3685 159.25 63 159.25H140C150.631 159.25 159.25 150.631 159.25 140V28C159.25 17.3685 150.631 8.75 140 8.75Z" fill="#CEE5F9"/>
<path d="M133 47.25H77C75.6076 47.25 74.2723 46.6969 73.2877 45.7123C72.3031 44.7277 71.75 43.3924 71.75 42C71.75 40.6076 72.3031 39.2723 73.2877 38.2877C74.2723 37.3031 75.6076 36.75 77 36.75H133C134.392 36.75 135.728 37.3031 136.712 38.2877C137.697 39.2723 138.25 40.6076 138.25 42C138.25 43.3924 137.697 44.7277 136.712 45.7123C135.728 46.6969 134.392 47.25 133 47.25ZM133 75.25H84C82.6076 75.25 81.2723 74.6969 80.2877 73.7123C79.3031 72.7277 78.75 71.3924 78.75 70C78.75 68.6076 79.3031 67.2723 80.2877 66.2877C81.2723 65.3031 82.6076 64.75 84 64.75H133C134.392 64.75 135.728 65.3031 136.712 66.2877C137.697 67.2723 138.25 68.6076 138.25 70C138.25 71.3924 137.697 72.7277 136.712 73.7123C135.728 74.6969 134.392 75.25 133 75.25ZM133 103.25H91C89.6076 103.25 88.2723 102.697 87.2877 101.712C86.3031 100.728 85.75 99.3924 85.75 98C85.75 96.6076 86.3031 95.2723 87.2877 94.2877C88.2723 93.3031 89.6076 92.75 91 92.75H133C134.392 92.75 135.728 93.3031 136.712 94.2877C137.697 95.2723 138.25 96.6076 138.25 98C138.25 99.3924 137.697 100.728 136.712 101.712C135.728 102.697 134.392 103.25 133 103.25ZM133 131.25H84C82.6076 131.25 81.2723 130.697 80.2877 129.712C79.3031 128.728 78.75 127.392 78.75 126C78.75 124.608 79.3031 123.272 80.2877 122.288C81.2723 121.303 82.6076 120.75 84 120.75H133C134.392 120.75 135.728 121.303 136.712 122.288C137.697 123.272 138.25 124.608 138.25 126C138.25 127.392 137.697 128.728 136.712 129.712C135.728 130.697 134.392 131.25 133 131.25Z" fill="#8BC7FB"/>
<path d="M42 131.25C60.3635 131.25 75.25 116.363 75.25 98C75.25 79.6365 60.3635 64.75 42 64.75C23.6365 64.75 8.75 79.6365 8.75 98C8.75 116.363 23.6365 131.25 42 131.25Z" fill="#4BA4FC"/>
<path d="M39.3612 112.608C38.0755 112.611 36.8341 112.138 35.8749 111.282L27.952 104.241C27.4367 103.783 27.0167 103.229 26.7158 102.608C26.415 101.988 26.2392 101.315 26.1986 100.627C26.1165 99.237 26.5899 97.8717 27.5145 96.831C28.4392 95.7904 29.7394 95.1596 31.129 95.0776C32.5187 94.9956 33.8841 95.4689 34.9247 96.3936L39.0399 100.051L48.7401 89.7559C49.6956 88.7424 51.0145 88.15 52.4067 88.109C53.799 88.0679 55.1505 88.5817 56.1639 89.5371C57.1774 90.4925 57.7698 91.8115 57.8109 93.2037C57.8519 94.5959 57.3382 95.9474 56.3827 96.9609L43.1825 110.961C42.6918 111.482 42.0995 111.897 41.4424 112.18C40.7852 112.463 40.0769 112.609 39.3612 112.608Z" fill="#CEE5F9"/>
</svg>
