<svg width="210" height="210" viewBox="0 0 210 210" fill="none" xmlns="http://www.w3.org/2000/svg">
<path d="M16.7611 94.8649C13.5965 83.0542 12.0142 77.1488 13.104 72.022C14.0625 67.5121 16.4242 63.4218 19.8505 60.3365C23.7457 56.8295 29.651 55.247 41.4617 52.0822L105.316 34.9726C117.127 31.8079 123.032 30.2256 128.159 31.3154C132.669 32.274 136.76 34.6357 139.844 38.062C143.352 41.9572 144.934 47.8626 148.099 59.6729L165.209 123.528C168.373 135.338 169.956 141.244 168.866 146.371C167.907 150.88 165.546 154.971 162.119 158.056C158.224 161.563 152.319 163.146 140.508 166.31L76.6533 183.42C64.843 186.585 58.9376 188.167 53.8104 187.077C49.3009 186.119 45.2102 183.757 42.1253 180.331C38.6179 176.435 37.0356 170.53 33.8709 158.72L16.7611 94.8649Z" fill="url(#paint0_linear_366_7566)"/>
<path d="M41.5322 52.4524C41.5322 40.3948 51.3069 30.6201 63.3649 30.6201H155.671C167.728 30.6201 177.503 40.3948 177.503 52.4524V144.759C177.503 156.816 167.728 166.591 155.671 166.591H63.3649C51.3069 166.591 41.5322 156.816 41.5322 144.759V52.4524Z" fill="url(#paint1_linear_366_7566)"/>
<path fill-rule="evenodd" clip-rule="evenodd" d="M41.5313 65.5518C41.5313 53.3248 41.5312 47.211 43.9108 42.5407C46.0039 38.4328 49.3438 35.0928 53.4517 32.9997C58.1221 30.6201 64.2358 30.6201 76.4629 30.6201H142.57C154.797 30.6201 160.911 30.6201 165.581 32.9997C169.689 35.0928 173.029 38.4328 175.122 42.5407C177.502 47.211 177.502 53.3248 177.502 65.5518V131.659C177.502 140.95 177.502 146.711 176.458 150.991C176.128 152.344 175.694 153.549 175.122 154.67C173.029 158.778 169.689 162.118 165.581 164.211C160.911 166.591 154.797 166.591 142.57 166.591H76.4629C64.2358 166.591 58.1221 166.591 53.4517 164.211C49.3438 162.118 46.0039 158.778 43.9108 154.67C41.6798 150.292 41.5407 144.645 41.5317 133.881C41.5312 133.164 41.5313 132.424 41.5313 131.659V65.5518ZM76.4629 41.5361H142.57C148.864 41.5361 152.928 41.5447 156.021 41.7977C158.986 42.0396 160.086 42.451 160.625 42.7261C162.68 43.7728 164.349 45.4426 165.396 47.4967C165.671 48.0363 166.083 49.1358 166.324 52.1012C166.577 55.1943 166.586 59.258 166.586 65.5518V126.64H52.4476V65.5518C52.4476 59.258 52.4557 55.1943 52.7087 52.1012C52.9507 49.1358 53.3621 48.0363 53.6372 47.4967C54.6839 45.4426 56.3536 43.7728 58.4078 42.7261C58.9473 42.451 60.0469 42.0396 63.0122 41.7977C66.1053 41.5447 70.169 41.5361 76.4629 41.5361Z" fill="url(#paint2_linear_366_7566)"/>
<path d="M166.591 109.287V126.638H52.4521V94.2262L76.6758 72.3858C77.6579 71.5004 79.1553 71.5167 80.1181 72.4235L121.313 111.226L144.848 92.0284C145.831 91.226 147.256 91.2731 148.184 92.1385L166.591 109.287Z" fill="url(#paint3_linear_366_7566)"/>
<path d="M126.533 69.41C126.533 74.4553 122.443 78.5456 117.397 78.5456C112.352 78.5456 108.262 74.4553 108.262 69.41C108.262 64.3647 112.352 60.2744 117.397 60.2744C122.443 60.2744 126.533 64.3647 126.533 69.41Z" fill="url(#paint4_linear_366_7566)"/>
<defs>
<linearGradient id="paint0_linear_366_7566" x1="12.7609" y1="30.9721" x2="129.256" y2="204.615" gradientUnits="userSpaceOnUse">
<stop stop-color="#32ADE6" stop-opacity="0.41"/>
<stop offset="1" stop-color="#007AFF" stop-opacity="0"/>
</linearGradient>
<linearGradient id="paint1_linear_366_7566" x1="41.5322" y1="30.6202" x2="142.779" y2="181.535" gradientUnits="userSpaceOnUse">
<stop stop-color="#EDF9FF"/>
<stop offset="1" stop-color="#EAF4FF"/>
</linearGradient>
<linearGradient id="paint2_linear_366_7566" x1="109.516" y1="30.6202" x2="40.8153" y2="160.339" gradientUnits="userSpaceOnUse">
<stop stop-color="#32ADE6" stop-opacity="0.7"/>
<stop offset="1" stop-color="#007AFF" stop-opacity="0.71"/>
</linearGradient>
<linearGradient id="paint3_linear_366_7566" x1="52.4521" y1="60.2746" x2="88.6135" y2="152.979" gradientUnits="userSpaceOnUse">
<stop stop-color="#32ADE6" stop-opacity="0.75"/>
<stop offset="1" stop-color="#007AFF" stop-opacity="0.28"/>
</linearGradient>
<linearGradient id="paint4_linear_366_7566" x1="52.4529" y1="60.2744" x2="88.6142" y2="152.979" gradientUnits="userSpaceOnUse">
<stop stop-color="#32ADE6" stop-opacity="0.75"/>
<stop offset="1" stop-color="#007AFF" stop-opacity="0.28"/>
</linearGradient>
</defs>
</svg>
