<svg width="201" height="200" viewBox="0 0 201 200" fill="none" xmlns="http://www.w3.org/2000/svg">
<path d="M95.2113 13.7357C87.3633 18.9867 77.6843 21.9867 69.8113 16.7867C66.7723 14.7797 65.6203 11.8657 60.7113 12.6867C61.1433 12.0937 61.5793 11.4747 62.0113 10.8787C62.4743 10.2337 61.4173 9.63674 60.9583 10.2577C52.6292 21.3196 45.0615 32.9347 38.3073 45.0227C38.2701 45.0939 38.2615 45.1766 38.2832 45.2539C38.3049 45.3312 38.3554 45.3973 38.4242 45.4387C38.493 45.48 38.575 45.4936 38.6535 45.4765C38.732 45.4594 38.8009 45.413 38.8463 45.3467C41.6317 40.8134 44.4933 36.3324 47.4313 31.9037C48.1803 32.2787 54.7493 31.0357 57.7703 35.4127C57.8443 35.5207 62.7423 52.2427 76.8013 46.6967C82.9243 44.2807 85.2663 37.8637 88.0313 32.3897C88.0813 32.2897 95.7113 17.1097 95.9673 16.4897C96.1939 16.1143 96.3247 15.689 96.3483 15.2511C96.3718 14.8132 96.2874 14.3763 96.1023 13.9787C96.061 13.9031 96.0048 13.8365 95.9371 13.7831C95.8695 13.7297 95.7917 13.6904 95.7085 13.6677C95.6253 13.6451 95.5384 13.6394 95.453 13.6511C95.3676 13.6627 95.2854 13.6915 95.2113 13.7357ZM90.7843 20.6467C87.1073 23.7707 81.9283 25.5387 77.2063 23.8587C77.1256 23.8322 77.0569 23.7778 77.0125 23.7054C76.968 23.6329 76.9507 23.547 76.9637 23.463C76.9767 23.379 77.019 23.3023 77.0832 23.2466C77.1474 23.1908 77.2293 23.1597 77.3143 23.1587C81.9813 23.3857 86.3943 22.7687 90.2983 20.0007C90.6773 19.7297 91.1353 20.3487 90.7843 20.6467ZM59.7403 16.1117C63.0693 14.0457 66.7953 16.9117 67.6233 20.2687C67.7363 20.7267 67.0593 21.0777 66.8943 20.7007C65.7543 18.1007 63.6563 14.9007 60.0643 16.6247C59.6843 16.8077 59.3903 16.3287 59.7403 16.1117Z" fill="#FF4D4D"/>
<path d="M24.5662 68.1581C25.8027 66.4268 27.2039 64.8193 28.7502 63.3581C29.2932 62.8481 28.4222 62.0041 27.9412 62.5481C26.4835 64.1935 25.1735 65.964 24.0262 67.8391C23.8372 68.1851 24.3532 68.4561 24.5662 68.1581Z" fill="#0078DB"/>
<path d="M57.8004 132.189C60.1434 135.108 58.1774 138.937 56.1264 141.367C53.9394 143.958 50.1044 144.422 47.0264 143.122C45.7071 142.519 44.6313 141.486 43.9744 140.193C43.3175 138.899 43.1183 137.422 43.4094 136C43.7843 134.56 44.5624 133.256 45.6525 132.242C46.7426 131.228 48.0994 130.547 49.5634 130.277C49.9684 130.193 49.7794 129.602 49.4014 129.683C47.6492 129.883 46.0093 130.646 44.7287 131.859C43.4481 133.071 42.5962 134.667 42.3014 136.405C42.0854 138.042 42.4188 139.704 43.2494 141.131C44.0799 142.557 45.3605 143.668 46.8904 144.288C50.8314 145.747 54.8814 144.855 57.4454 141.561C59.7134 138.646 61.1634 134.706 58.3634 131.6C58.0054 131.2 57.4724 131.785 57.8004 132.189Z" fill="#0078DB"/>
<path d="M47.5386 135.4C48.5065 136.644 49.601 137.783 50.8046 138.8C50.8728 138.868 50.9575 138.916 51.0502 138.941C51.1428 138.966 51.2404 138.966 51.3331 138.941C51.4258 138.917 51.5105 138.868 51.5789 138.801C51.6472 138.734 51.6967 138.65 51.7226 138.557C53.5086 133.186 55.8576 127.848 57.2566 122.387C57.3666 121.956 56.7116 121.655 56.5006 122.063C54.0346 126.836 52.5326 132.294 50.9126 137.423C49.9946 136.586 49.1126 135.711 48.1596 134.912C47.8646 134.669 47.2646 135.026 47.5386 135.4Z" fill="#0078DB"/>
<path d="M44.4883 171.439C46.3153 174.522 44.3533 177.756 42.1403 179.969C40.8054 181.255 39.0633 182.034 37.2151 182.172C35.3669 182.31 33.5284 181.798 32.0173 180.725C30.9618 179.931 30.1757 178.832 29.7652 177.577C29.3547 176.322 29.3398 174.971 29.7223 173.707C30.237 172.282 31.1584 171.039 32.3725 170.133C33.5865 169.226 35.0398 168.696 36.5523 168.607C36.9573 168.577 36.9573 167.966 36.5523 167.986C33.2073 168.151 29.9913 169.902 28.8043 173.196C28.2668 174.745 28.2502 176.427 28.7571 177.987C29.264 179.546 30.2666 180.897 31.6123 181.834C33.2884 182.975 35.2999 183.518 37.3226 183.376C39.3453 183.234 41.2612 182.415 42.7613 181.051C45.4703 178.443 47.7853 174.523 45.2173 171.036C44.9003 170.6 44.2173 170.981 44.4883 171.439Z" fill="#0078DB"/>
<path d="M33.987 173.491C34.8241 174.828 35.7724 176.093 36.822 177.27C36.8825 177.327 36.9549 177.37 37.034 177.396C37.1131 177.422 37.1968 177.43 37.2794 177.42C37.3619 177.409 37.4411 177.381 37.5114 177.336C37.5817 177.292 37.6413 177.233 37.686 177.162C40.08 171.99 43.065 166.95 45.217 161.662C45.404 161.202 44.701 160.985 44.461 161.338C41.453 165.766 39.305 170.975 37.061 175.861C36.224 174.916 35.461 173.898 34.604 173C34.5336 172.937 34.4432 172.902 34.3489 172.899C34.2545 172.896 34.1623 172.927 34.0884 172.986C34.0146 173.044 33.9639 173.127 33.9453 173.22C33.9268 173.313 33.9415 173.409 33.987 173.491Z" fill="#0078DB"/>
<path d="M19.3005 108.7C16.2185 102.115 14.6305 93.8791 16.4125 86.7261C18.1675 79.6801 24.1395 73.3791 29.8825 69.2601C30.1505 69.0681 29.8825 68.6451 29.6395 68.8281C24.4105 72.7031 19.0065 77.8191 16.4665 83.9181C13.9585 89.9391 14.6055 97.0641 16.2775 103.193C18.0075 109.536 21.6775 114.693 24.8885 120.307C29.8565 129.007 29.5445 133.182 27.0485 139.285C26.8605 139.744 27.5835 140.01 27.8315 139.608C34.4775 128.84 23.5885 117.858 19.3005 108.7Z" fill="#0078DB"/>
<path d="M38.9542 102.927C33.1542 102.17 28.0252 99.7127 25.9162 93.8267C24.5422 89.9927 25.2872 86.3466 26.6162 82.6516C27.9582 78.9236 29.5102 75.3167 32.2852 72.4517C32.3282 72.4087 32.3523 72.3504 32.3523 72.2896C32.3523 72.2289 32.3282 72.1706 32.2852 72.1276C32.2422 72.0847 32.184 72.0605 32.1232 72.0605C32.0624 72.0605 32.0042 72.0847 31.9612 72.1276C28.2612 75.7716 25.6232 81.6277 24.6722 86.7047C24.2263 89.0585 24.3755 91.4865 25.1062 93.7681C25.8368 96.0497 27.1259 98.1127 28.8562 99.7696C38.3222 108.64 54.8452 98.9857 64.7562 113.133C65.0232 113.513 65.6392 113.165 65.3772 112.755C59.3542 103.292 48.6732 104.194 38.9542 102.927Z" fill="#0078DB"/>
<path d="M137.431 92.7496C137.786 93.1046 140.503 92.9657 141.102 92.9657C142.189 91.8787 145.24 88.5816 144.396 87.2966C143.508 85.9446 140.157 83.1396 138.996 83.1396C137.835 83.1396 135.027 87.4586 134.704 87.9716L134.65 88.0527C134.865 88.3737 137.116 92.4336 137.431 92.7496Z" fill="#FF4D4D"/>
<path d="M81.2276 145.335C84.5546 163.564 83.5936 172.649 80.3366 188.203C80.318 188.281 80.3304 188.363 80.3711 188.432C80.4119 188.501 80.4779 188.551 80.5551 188.572C80.6323 188.593 80.7146 188.583 80.7847 188.545C80.8548 188.506 80.9071 188.442 80.9306 188.365C84.4726 178.145 85.6476 160.465 81.6866 145.2C81.6326 144.876 81.1686 145.012 81.2276 145.335Z" fill="#0078DB"/>
<path d="M138.187 43.5924C138.512 43.4924 138.593 42.9084 138.187 42.8374C137.138 42.6514 136 42.7044 134.92 42.5944C134.407 42.5414 134.328 43.3184 134.812 43.4574C135.904 43.8114 137.071 43.8581 138.187 43.5924Z" fill="#202020"/>
<path d="M125.283 41.6996C124.797 41.5376 124.257 41.1576 123.745 41.2136C123.691 41.2148 123.639 41.2295 123.593 41.2565C123.547 41.2835 123.509 41.3218 123.482 41.3678C123.455 41.4138 123.44 41.4659 123.439 41.5193C123.437 41.5726 123.45 41.6254 123.475 41.6726C123.729 42.2076 124.5 42.4576 125.04 42.6176C125.663 42.8404 126.336 42.8872 126.984 42.7526C127.284 42.6746 127.227 42.2936 126.984 42.1856C126.417 41.9726 125.85 41.8916 125.283 41.6996Z" fill="#202020"/>
<path d="M131.357 50.0174C131.463 50.0152 131.564 49.975 131.642 49.9043C131.721 49.8335 131.771 49.7369 131.784 49.6321C131.798 49.5272 131.772 49.4212 131.714 49.3333C131.655 49.2454 131.567 49.1815 131.465 49.1534C130.933 49.0325 130.39 48.9602 129.845 48.9374C128.345 48.8294 129.284 47.7374 129.684 43.0254C129.709 42.7254 129.252 42.7024 129.198 42.9724C128.874 44.0784 128.617 45.2424 128.388 46.3724C128.114 47.1907 127.968 48.0465 127.956 48.9094C128.159 50.2354 130.438 50.0834 131.357 50.0174Z" fill="#202020"/>
<path d="M134.327 40.0288C136.143 39.0038 137.081 39.6798 137.917 39.7288C138.268 39.7508 138.379 39.3218 138.187 39.0808C137.205 37.8528 134.852 38.5248 133.976 39.5128C133.709 39.8158 134 40.2128 134.327 40.0288Z" fill="#202020"/>
<path d="M127.848 38.5438C127.194 38.0103 126.391 37.6927 125.549 37.6347C124.707 37.5766 123.868 37.7811 123.148 38.2198C123.076 38.2668 123.023 38.337 122.997 38.4186C122.972 38.5002 122.975 38.5881 123.007 38.6675C123.039 38.7469 123.097 38.8129 123.172 38.8543C123.247 38.8957 123.333 38.91 123.418 38.8948C124.092 38.7552 124.78 38.6918 125.469 38.7058C126.151 38.8114 126.827 38.9557 127.494 39.1378C127.848 39.1648 128.113 38.7928 127.848 38.5438Z" fill="#202020"/>
<path d="M191.231 97.1001C190.531 93.2131 188.373 89.1611 186.21 85.9001C183.68 82.1308 180.521 78.8252 176.87 76.1281C167.933 69.4411 160.442 69.3421 149.39 68.5961C149.568 68.1501 147.571 65.4871 147.473 65.3571C147.423 65.2762 147.354 65.2094 147.271 65.163C147.188 65.1166 147.095 65.0923 147 65.0923C146.905 65.0923 146.812 65.1166 146.729 65.163C146.647 65.2094 146.577 65.2762 146.528 65.3571C145.964 66.2881 145.367 67.1931 144.747 68.0841C144.986 64.4251 143.935 56.1281 144.288 50.8341C144.679 51.0598 145.143 51.1274 145.583 51.0231C150.463 49.9691 151.225 35.3391 150.793 33.2601C150.361 31.1811 147.527 28.3741 142.776 27.0251C142.776 27.0251 133.895 9.82506 119.345 18.2781C119.345 18.2781 109.269 24.8161 115.945 33.5571C117.217 35.2342 119.011 36.4405 121.045 36.9861C120.084 40.8114 119.55 44.7312 119.453 48.6741C119.453 56.0591 121.453 61.5401 128.766 61.8481C127.983 64.3311 128.239 67.3011 128.253 69.8381C128.253 70.3241 129.067 70.4871 129.144 69.9461C129.572 67.2687 129.735 64.5555 129.63 61.8461C132.705 61.844 135.677 60.7318 137.998 58.7141C138.269 58.4451 137.859 58.0351 137.566 58.2831C133.658 61.5741 124.782 62.0831 122.125 57.0411C119.034 51.1761 120.397 43.5161 121.585 37.1191C128.793 38.6841 137.863 33.4191 137.863 33.4191C138.876 34.5878 140.223 35.4172 141.723 35.7951C141.516 39.2821 141.65 42.781 142.123 46.2421C142.016 46.3747 141.925 46.5198 141.853 46.6741C141.713 46.9681 142.097 47.3491 142.339 47.0521C143.151 46.0521 145.204 44.8101 146.064 47.1061C146.58 48.4821 145.095 49.7851 143.77 49.6431C143.47 49.6121 143.257 49.9131 143.23 50.1831C142.958 53.3425 142.913 56.5172 143.095 59.6831C143.14 60.7661 143.255 69.2921 143.581 69.6171C143.068 70.2921 142.518 70.9581 141.961 71.5881C140.972 72.7061 138.533 76.0081 136.994 75.8801C135.529 75.7581 133.702 72.6371 125.305 68.6451C125.181 68.5807 125.038 68.5645 124.904 68.5994C124.769 68.6343 124.652 68.7179 124.576 68.8341C123.794 69.8951 122.93 70.9401 122.255 72.0741C115.695 72.1551 108.835 73.7111 102.468 75.1741C102.091 75.2611 102.252 75.8481 102.63 75.7681C111.183 73.9541 122.23 72.8851 122.687 72.5831C123.443 71.8831 124.361 69.9691 125.413 69.8561C125.899 69.8041 126.869 70.5901 127.357 70.8561C129.666 72.1493 131.876 73.6109 133.971 75.2291C134.671 75.7701 135.941 77.4901 136.94 77.5291C137.615 77.5511 138.131 76.9651 138.614 76.5571C141.889 73.7052 144.703 70.3633 146.955 66.6501C148.106 68.5201 148.361 69.0981 148.872 69.2141C158.728 71.4551 165.872 69.0861 176.082 77.0971C186.058 84.9231 187.425 91.1821 190.066 97.0971C188.066 97.8041 189.446 97.7371 182.534 100.097C178.381 101.513 174.274 103.013 170.034 104.038C169.934 104.038 169.999 104.038 169.656 104.146C169.495 104.193 169.358 104.301 169.277 104.448C169.196 104.595 169.177 104.768 169.224 104.929C169.27 105.09 169.379 105.226 169.526 105.307C169.673 105.388 169.846 105.408 170.007 105.361C174.649 104.28 179.107 102.606 183.607 101.069C186.176 100.354 188.61 99.2237 190.814 97.7221C190.95 97.6915 191.069 97.61 191.146 97.4942C191.224 97.3785 191.254 97.2374 191.231 97.1001ZM127.416 32.9001C126.155 33.7341 124.642 34.1016 123.139 33.9389C121.635 33.7762 120.236 33.0936 119.183 32.0091C117.759 30.5981 115.952 26.6711 117.783 24.9901C118.05 24.7441 118.513 25.0721 118.296 25.3951C116.982 27.3451 119.484 30.4421 121.076 31.4151C122.918 32.3844 125.057 32.6253 127.069 32.0901C127.171 32.0655 127.279 32.0779 127.373 32.1253C127.468 32.1726 127.542 32.2518 127.584 32.3487C127.625 32.4457 127.631 32.5542 127.6 32.6551C127.57 32.756 127.504 32.8428 127.416 32.9001Z" fill="#202020"/>
<path d="M40.9 50.1516C40.978 50.1036 41.0382 50.0315 41.0717 49.9463C41.1052 49.8611 41.1101 49.7674 41.0858 49.6791C41.0614 49.5908 41.0091 49.5129 40.9367 49.4569C40.8642 49.4009 40.7756 49.3699 40.684 49.3686C38.418 49.4986 36.451 49.0156 35.366 46.7776C34.045 44.0526 35.248 41.5666 38.498 41.8646C38.848 41.8966 38.929 41.2986 38.578 41.2436C35.391 40.7436 33.143 42.7306 33.908 46.0216C34.573 48.8846 37.888 51.6906 40.9 50.1516Z" fill="#202020"/>
<path d="M38.8726 55.308C38.9614 55.2817 39.0377 55.2243 39.0876 55.1463C39.1376 55.0684 39.1579 54.9751 39.1448 54.8835C39.1317 54.7918 39.0861 54.7079 39.0163 54.6471C38.9465 54.5862 38.8572 54.5525 38.7646 54.552C37.7992 54.6779 36.8181 54.5962 35.8868 54.3123C34.9556 54.0285 34.0957 53.549 33.3646 52.906C32.6235 52.1583 32.0744 51.2424 31.7641 50.2364C31.4538 49.2304 31.3915 48.1643 31.5826 47.1291C31.5931 47.0767 31.5832 47.0223 31.555 46.977C31.5268 46.9317 31.4824 46.8988 31.4308 46.885C31.3792 46.8713 31.3243 46.8777 31.2773 46.9029C31.2303 46.9282 31.1946 46.9704 31.1776 47.021C30.7957 48.1189 30.72 49.3 30.9585 50.4376C31.1971 51.5752 31.741 52.6263 32.5318 53.4782C33.3226 54.3301 34.3305 54.9505 35.4473 55.2729C36.564 55.5953 37.7475 55.6074 38.8706 55.308H38.8726Z" fill="#202020"/>
<path d="M35.6613 58.0623C32.2043 58.0083 28.7413 56.7903 28.9663 52.7443C28.9873 52.3653 28.4873 52.3683 28.3733 52.6633C28.1121 53.5548 28.1326 54.5052 28.4321 55.3846C28.7316 56.264 29.2953 57.0295 30.0463 57.5763C30.8576 58.1787 31.7855 58.6053 32.7709 58.8292C33.7562 59.053 34.7774 59.069 35.7693 58.8763C36.2293 58.8003 36.0933 58.0683 35.6613 58.0623Z" fill="#202020"/>
<path d="M34.3377 61.5442C32.4487 61.6792 28.5197 62.1082 28.7227 59.1682C28.7224 59.0985 28.6993 59.0308 28.6569 58.9755C28.6144 58.9201 28.5551 58.8802 28.4878 58.8619C28.4205 58.8435 28.3491 58.8477 28.2844 58.8737C28.2198 58.8998 28.1654 58.9463 28.1297 59.0062C27.3827 60.2922 28.3997 61.6512 29.6137 62.1922C30.3885 62.5406 31.2261 62.7275 32.0754 62.7414C32.9247 62.7553 33.768 62.596 34.5537 62.2732C34.9057 62.1132 34.7157 61.5172 34.3377 61.5442Z" fill="#202020"/>
<path d="M97.911 100.929C82.455 102.611 80.611 98.4084 74.56 93.8834C55.835 79.9004 50.349 73.4444 42.761 63.7574C42.547 63.4854 42.114 63.7304 42.302 64.0274C50.227 76.5694 63.163 86.6864 75.181 95.8814C77.261 97.4724 79.201 99.5584 81.66 100.632C86.8499 102.826 92.6168 103.253 98.073 101.847C98.533 101.717 98.45 100.87 97.911 100.929Z" fill="#202020"/>
<path d="M109.006 138.8C108.952 143.065 108.443 147.623 109.006 151.865C109.063 152.297 109.821 152.298 109.896 151.865C110.596 147.798 110.126 143.365 110.166 139.232C110.319 123.48 110.146 111.453 112.353 100.413C112.429 100.034 111.846 99.8468 111.759 100.251C111.277 102.499 110.868 104.732 110.517 107C110.138 107 106.806 108.748 103.391 108.458C102.901 108.457 102.416 108.365 101.96 108.188C101.96 108.161 101.88 108.025 101.825 107.81C100.815 103.835 98.4931 88.3438 99.4491 76.1178C99.4484 76.0522 99.4244 75.9889 99.3814 75.9394C99.3383 75.8899 99.279 75.8573 99.2141 75.8476C99.1492 75.8378 99.0829 75.8515 99.0272 75.8862C98.9715 75.9209 98.93 75.9743 98.9101 76.0368C98.6626 77.0131 98.4822 78.005 98.3701 79.0058C95.5351 78.8168 92.7011 78.5178 89.8931 78.2238C88.615 78.231 87.3512 77.9543 86.1931 77.4138C83.3321 75.7138 80.6841 73.5838 77.9871 71.6908C69.4221 65.6808 60.8991 59.6508 52.3421 53.6308C54.1231 50.8238 56.0601 47.6118 55.6891 44.1558C55.6246 42.8862 55.2163 41.658 54.5079 40.6024C53.7995 39.5468 52.8176 38.7036 51.6671 38.1628C51.1541 37.9478 50.6921 38.7088 51.2081 38.9458C57.5201 41.8508 53.6901 49.5528 51.0461 53.4958C50.9734 53.6289 50.9553 53.7849 50.9956 53.931C51.0359 54.0772 51.1315 54.2019 51.2621 54.2788C61.5391 61.3548 84.8371 78.1558 86.2001 78.7388C87.6524 79.1773 89.1642 79.3868 90.6811 79.3598C93.2181 79.5518 95.7561 79.6028 98.2941 79.6838C97.4861 87.8318 100.229 108.046 100.994 108.92C101.561 109.567 103.019 109.62 103.802 109.648C106.062 109.665 108.299 109.196 110.361 108.272C109.044 117.584 109.158 126.594 109.006 138.8Z" fill="#202020"/>
<path d="M174.738 150.626C174.817 150.573 174.883 150.502 174.929 150.419C174.975 150.335 175.001 150.242 175.004 150.147C175.006 150.051 174.986 149.957 174.944 149.871C174.903 149.785 174.841 149.71 174.765 149.654C174.819 145.605 173.765 141.314 173.226 137.345C169.539 110.058 169.541 106.854 167.8 98.3105C167.773 98.2257 167.717 98.1531 167.642 98.1059C167.566 98.0586 167.477 98.0398 167.389 98.0529C167.301 98.0659 167.221 98.1099 167.162 98.1769C167.104 98.244 167.071 98.3297 167.071 98.4185C167.584 107.167 168.428 110.364 171.984 138.182C172.471 141.988 172.551 146.172 173.604 149.897C153.746 157.195 132.339 159.231 111.462 155.809C111.002 155.734 110.788 156.453 111.273 156.538C132.308 160.155 153.923 158.22 173.982 150.923C174.047 150.972 174.123 151.003 174.204 151.015C174.285 151.026 174.367 151.016 174.443 150.986C174.519 150.956 174.586 150.907 174.637 150.844C174.689 150.781 174.723 150.706 174.738 150.626Z" fill="#202020"/>
<path d="M31.0721 139.531C31.0649 139.386 31.0069 139.247 30.9082 139.14C30.8094 139.033 30.6762 138.963 30.5317 138.944C30.3872 138.925 30.2406 138.957 30.1173 139.035C29.9941 139.113 29.902 139.231 29.8571 139.37C27.9091 144.578 19.1411 148.843 14.1461 145.389C12.3111 144.12 11.5811 141.689 9.47612 140.773C9.07488 140.58 8.63909 140.468 8.19421 140.445C7.74934 140.422 7.3043 140.487 6.88512 140.638C6.85812 140.017 6.83312 139.396 6.77712 138.776C6.72512 138.209 5.76912 137.937 5.67012 138.614C4.92612 143.688 7.47012 172.93 8.63912 180.239C8.13968 180.232 7.64126 180.286 7.15512 180.401C6.91012 180.476 6.77912 180.908 7.07412 181.022C8.31228 181.396 9.63835 181.358 10.8531 180.914C10.9243 180.867 10.9808 180.801 11.0161 180.723C11.0515 180.646 11.0642 180.56 11.0529 180.475C11.0417 180.391 11.0068 180.311 10.9524 180.245C10.8979 180.18 10.8261 180.131 10.7451 180.104C10.2404 180.038 9.72792 180.066 9.23312 180.185C8.55812 174.247 8.10012 168.227 7.72212 162.261C11.7221 160.074 15.3631 165.847 18.8701 167.039C20.64 167.593 22.5152 167.722 24.3444 167.417C26.1736 167.112 27.9054 166.382 29.4001 165.284C32.4551 162.941 31.7001 158.536 31.7001 155.134C31.6931 149.924 31.4601 144.714 31.0721 139.531ZM30.3161 160.047C30.1801 162.99 28.7241 164.556 25.9971 165.527C24.0349 166.247 21.905 166.379 19.8691 165.905C17.6811 165.373 16.1381 163.805 14.3891 162.477C12.4121 160.977 9.98912 159.885 7.64112 160.83C6.73412 146.322 6.96512 145.58 6.91212 141.556C9.36812 140.071 11.8231 145.23 13.4981 146.415C15.4819 147.637 17.8584 148.053 20.1391 147.576C23.9971 146.991 27.8601 145.119 29.9921 141.826C30.2921 147.033 30.5221 155.6 30.3161 160.047Z" fill="#202020"/>
<path d="M94.671 115.506C94.65 115.02 93.946 114.779 93.727 115.236C93.0367 116.828 91.9399 118.209 90.5467 119.242C89.1535 120.275 87.513 120.923 85.79 121.121C78.09 121.828 75.621 113.178 69.89 113.914C68.87 114.028 67.9327 114.529 67.272 115.314C67.299 114.558 67.337 113.802 67.38 113.047C67.419 112.347 66.321 112.347 66.273 113.047C65.4395 125.46 65.6291 137.919 66.84 150.3C66.2443 150.323 65.6775 150.563 65.247 150.975C65.2041 151.024 65.1758 151.083 65.1655 151.147C65.1552 151.211 65.1632 151.277 65.1887 151.336C65.2142 151.395 65.256 151.446 65.3094 151.483C65.3627 151.52 65.4253 151.54 65.49 151.542C68.095 151.494 68.809 151.62 69.647 151.029C69.947 150.818 69.863 150.239 69.431 150.273C68.864 150.318 68.163 150.246 67.515 150.273C67.272 146.683 67.11 143.12 67.002 139.529C67.0801 139.494 67.1495 139.442 67.2055 139.377C67.2614 139.312 67.3025 139.235 67.326 139.152C68.09 136.652 71.777 136.811 73.778 137.452C76.339 138.272 78.419 140.152 80.769 141.42C84.087 143.206 88.058 144.174 91.54 142.311C95.374 140.26 95.302 136.345 95.184 132.511C95.01 126.844 94.923 121.173 94.671 115.506ZM92.782 139.882C91.8549 140.845 90.6906 141.547 89.4063 141.916C88.122 142.286 86.763 142.311 85.466 141.988C80.741 141.048 77.503 136.751 72.779 135.995C70.754 135.671 68.271 135.941 66.894 137.453C66.732 130.677 66.804 123.911 67.11 117.153C67.893 114.804 70.643 114.514 72.644 115.506C75.954 117.147 77.735 121.415 83.064 122.201C85.0954 122.489 87.1668 122.193 89.0359 121.346C90.905 120.5 92.4946 119.14 93.619 117.423C93.727 122.174 93.766 126.923 93.943 131.703C94.04 134.323 94.622 137.727 92.782 139.882Z" fill="#202020"/>
<path d="M128.28 91.1573C131.358 87.7183 135.445 84.2573 136.324 81.7363C136.437 81.4133 135.948 81.1163 135.73 81.3853C133.317 84.3683 130.574 87.0273 127.983 89.8343C125.526 85.2183 125.64 79.8643 124.258 74.9063C124.152 74.5283 123.632 74.6913 123.691 75.0683C124.537 80.4793 124.501 86.2173 127.416 91.0493C127.461 91.1192 127.521 91.1783 127.591 91.2226C127.661 91.2669 127.74 91.2951 127.823 91.3054C127.905 91.3157 127.989 91.3078 128.068 91.2822C128.147 91.2566 128.219 91.2139 128.28 91.1573Z" fill="#202020"/>
<path d="M148.958 88.5927C149.014 88.6494 149.082 88.6924 149.157 88.7183C149.232 88.7442 149.312 88.7522 149.391 88.7417C149.469 88.7312 149.544 88.7025 149.61 88.6579C149.676 88.6133 149.73 88.554 149.768 88.4847C152.629 83.8947 153.806 77.8467 154.843 72.6117C154.862 72.5302 154.849 72.4445 154.806 72.3728C154.762 72.3012 154.693 72.2493 154.612 72.2282C154.531 72.207 154.445 72.2184 154.372 72.2598C154.299 72.3011 154.246 72.3693 154.222 72.4497C152.549 77.3717 151.9 82.8697 149.228 87.4047C146.582 84.6237 143.683 81.4047 140.157 79.8457C140.086 79.8077 140.003 79.7985 139.925 79.8202C139.847 79.8418 139.781 79.8926 139.739 79.962C139.698 80.0314 139.684 80.1141 139.702 80.1929C139.72 80.2718 139.767 80.3408 139.834 80.3857C143.074 82.8926 146.124 85.6357 148.958 88.5927Z" fill="#202020"/>
<path d="M111.408 160.047C108.218 169.549 106.187 179.402 105.361 189.391C105.303 190.227 106.571 190.2 106.661 189.391C107.72 179.549 109.571 169.808 112.195 160.263C112.224 160.159 112.21 160.047 112.156 159.953C112.103 159.859 112.014 159.79 111.91 159.762C111.805 159.733 111.694 159.747 111.6 159.801C111.506 159.854 111.437 159.943 111.408 160.047Z" fill="#202020"/>
<path d="M171.093 154.3C171.036 153.787 170.224 153.76 170.257 154.3C170.722 159.366 171.598 164.385 172.875 169.309C174.027 174.439 175.129 179.597 176.357 184.723C176.571 185.614 177.925 185.235 177.734 184.345C173.906 166.486 171.852 161.059 171.093 154.3Z" fill="#202020"/>
<path d="M152.629 173.248C149.59 173.907 139.247 176.565 139.129 176.595C139.028 176.629 138.943 176.7 138.893 176.794C138.842 176.888 138.829 176.998 138.857 177.101C138.884 177.204 138.95 177.293 139.041 177.35C139.132 177.406 139.24 177.426 139.345 177.405C139.831 177.305 140.289 177.216 140.775 177.105C140.532 180.479 140.397 183.854 140.397 187.228C140.397 187.4 140.465 187.565 140.587 187.687C140.709 187.809 140.875 187.878 141.047 187.878C141.219 187.878 141.385 187.809 141.507 187.687C141.629 187.565 141.697 187.4 141.697 187.228C141.82 183.799 141.724 180.371 141.589 176.943C143.889 176.457 146.178 175.917 148.473 175.404C148.608 178.804 148.657 182.786 149.849 186.013C149.89 186.141 149.975 186.25 150.089 186.321C150.203 186.392 150.338 186.421 150.471 186.401C150.604 186.382 150.726 186.316 150.815 186.215C150.903 186.114 150.953 185.985 150.956 185.851C150.929 182.342 149.656 178.725 149.337 175.188C150.524 174.919 151.737 174.627 152.954 174.352C153.655 174.2 153.359 173.09 152.629 173.248Z" fill="#202020"/>
<path d="M194.012 142.447C192.917 130.921 190.718 111.401 185.912 100.821C185.728 100.414 185.122 100.715 185.212 101.121C188.36 115.49 189.818 115.551 192.554 142.855C193.928 156.568 195.586 170.31 191.231 183.671C191.073 184.158 191.802 184.32 191.987 183.887C197.49 171.024 195.3 155.97 194.012 142.447Z" fill="#202020"/>
<path d="M180.946 159.049C178.246 162.199 177.092 168.196 180.595 171.304C180.68 171.384 180.791 171.431 180.907 171.437C181.023 171.442 181.138 171.405 181.229 171.333C181.321 171.261 181.384 171.159 181.406 171.045C181.429 170.93 181.409 170.812 181.351 170.71C180.551 168.818 179.703 167.255 179.732 165.095C179.762 163.098 180.402 161.158 181.567 159.535C181.864 159.184 181.246 158.7 180.946 159.049Z" fill="#202020"/>
<path d="M186.507 164.205C187.029 173.641 185.441 176.519 184.78 181.238C184.723 181.643 185.299 181.997 185.508 181.562C187.955 176.494 187.992 169.577 187.182 164.124C187.159 164.046 187.109 163.979 187.041 163.934C186.973 163.89 186.891 163.871 186.811 163.88C186.73 163.89 186.655 163.928 186.6 163.987C186.544 164.047 186.512 164.124 186.507 164.205Z" fill="#202020"/>
<path d="M191.825 165.284C191.82 165.191 191.779 165.103 191.712 165.039C191.644 164.974 191.554 164.938 191.46 164.938C191.367 164.938 191.277 164.974 191.209 165.039C191.141 165.103 191.101 165.191 191.096 165.284C191.092 168.725 190.776 172.159 190.152 175.542C189.585 178.755 188.303 181.842 187.752 185.017C187.731 185.109 187.744 185.206 187.788 185.289C187.831 185.373 187.903 185.438 187.99 185.474C188.077 185.51 188.174 185.514 188.264 185.485C188.354 185.457 188.431 185.397 188.481 185.317C190.263 182.645 190.704 178.593 191.207 175.491C191.798 172.123 192.005 168.699 191.825 165.284Z" fill="#202020"/>
<path d="M179.543 143.392C178.584 138.719 177.875 133.704 176.087 129.246C175.957 128.921 175.363 128.922 175.412 129.327C175.974 133.911 177.3 138.452 178.22 142.96C179.19 147.711 179.831 152.545 180.946 157.267C181.08 157.834 182.073 157.727 181.999 157.132C181.429 152.523 180.473 147.924 179.543 143.392Z" fill="#202020"/>
<path d="M134.408 55.2809C134.838 54.2474 135.04 53.1335 135.001 52.0149C134.642 51.1759 133.891 52.6209 132.707 53.2559C131.874 53.7439 130.917 53.9785 129.953 53.9309C129.897 53.9237 129.84 53.9331 129.789 53.9581C129.738 53.9831 129.695 54.0225 129.667 54.0714C129.638 54.1204 129.624 54.1767 129.627 54.2333C129.63 54.2899 129.65 54.3444 129.684 54.3899C129.573 57.9199 133.192 57.9709 134.408 55.2809ZM132.815 54.3089C133.385 54.0613 133.906 53.7138 134.354 53.2829C134.307 53.8697 134.133 54.4393 133.844 54.9521C133.555 55.4649 133.158 55.9088 132.68 56.2529C130.825 57.2529 130.517 55.0449 130.28 54.5249C131.127 54.7124 132.012 54.637 132.815 54.3089Z" fill="#202020"/>
<path d="M137.026 93.425C136.919 93.4276 136.816 93.4679 136.735 93.5389C136.654 93.6099 136.601 93.7071 136.585 93.8134C136.569 93.9196 136.591 94.0282 136.647 94.1199C136.703 94.2117 136.789 94.2807 136.891 94.315C138.681 94.9382 140.634 94.8999 142.398 94.207C142.964 93.962 142.641 93.078 142.098 93.101C141.262 93.135 140.425 93.357 139.561 93.401C138.727 93.437 137.863 93.342 137.026 93.425Z" fill="#202020"/>
<path d="M148.526 142.663C148.472 142.258 143.046 102.522 141.048 94.6119C139.765 94.8629 138.44 94.7981 137.188 94.4229C137.025 94.9129 130.988 129.892 131.195 143.851C131.195 143.975 130.526 143.446 139.861 150.221C149.151 142.179 148.485 142.784 148.526 142.663Z" fill="#FF4D4D"/>
<path d="M21.4082 83.3001C22.1502 81.6321 22.7162 79.9321 23.6212 78.3331C23.6354 78.3083 23.6446 78.281 23.6482 78.2527C23.6518 78.2244 23.6499 78.1957 23.6424 78.1681C23.6349 78.1406 23.6221 78.1148 23.6046 78.0922C23.5872 78.0697 23.5655 78.0507 23.5407 78.0366C23.516 78.0224 23.4887 78.0132 23.4604 78.0096C23.4321 78.0059 23.4033 78.0079 23.3758 78.0154C23.3483 78.0229 23.3225 78.0357 23.2999 78.0531C23.2773 78.0706 23.2584 78.0923 23.2442 78.1171C22.1712 79.6256 21.3841 81.3183 20.9222 83.1111C20.8662 83.3821 21.2752 83.6001 21.4082 83.3001Z" fill="#202020"/>
<path d="M21.4083 95.9889C21.5973 96.1509 21.9522 95.9319 21.7862 95.6889C20.4672 93.7779 19.7112 91.9439 20.2202 89.5609C20.2252 89.5114 20.2124 89.4617 20.1841 89.4208C20.1559 89.3799 20.114 89.3503 20.066 89.3373C20.018 89.3244 19.967 89.3289 19.9219 89.35C19.8769 89.3712 19.8409 89.4076 19.8202 89.4529C19.451 90.5822 19.404 91.7922 19.6845 92.9468C19.965 94.1013 20.562 95.1548 21.4083 95.9889Z" fill="#202020"/>
<path d="M30.0732 107.84C30.123 107.865 30.1806 107.87 30.234 107.854C30.2874 107.838 30.3326 107.802 30.3602 107.753C30.3879 107.705 30.396 107.648 30.3827 107.594C30.3695 107.539 30.336 107.492 30.2892 107.462C28.17 106.13 26.2596 104.492 24.6202 102.6C24.4352 102.38 24.1342 102.681 24.3202 102.9C25.8221 104.977 27.7932 106.67 30.0732 107.84Z" fill="#202020"/>
<path d="M37.3617 111.808C37.3118 111.783 37.2543 111.778 37.2009 111.794C37.1475 111.811 37.1023 111.847 37.0746 111.895C37.0469 111.943 37.0389 112.001 37.0521 112.055C37.0653 112.109 37.0988 112.156 37.1457 112.186C41.0047 114.678 41.2537 115.311 43.5167 118.503C43.5326 118.532 43.554 118.556 43.5796 118.577C43.6051 118.597 43.6344 118.611 43.6657 118.62C43.697 118.629 43.7297 118.631 43.7619 118.627C43.7942 118.623 43.8254 118.613 43.8537 118.597C43.882 118.581 43.9068 118.56 43.9269 118.534C43.9469 118.509 43.9617 118.48 43.9705 118.448C43.9792 118.417 43.9817 118.384 43.9778 118.352C43.9738 118.32 43.9636 118.289 43.9477 118.26C42.5374 115.432 40.218 113.16 37.3617 111.808Z" fill="#202020"/>
</svg>
