<svg width="201" height="200" viewBox="0 0 201 200" fill="none" xmlns="http://www.w3.org/2000/svg">
<path d="M181.589 30.1629C181.614 31.2466 174.08 32.1962 172.871 32.4027C172.564 32.4562 172.334 32.824 171.948 32.584C169.453 31.0276 181.555 28.7511 181.589 30.1629Z" fill="#0078DB"/>
<path d="M169.472 25.878C169.053 25.9031 168.586 25.4074 169.028 24.8477C173.62 19.0421 175.486 18.7246 174.812 20.367C174.459 21.2296 170.557 25.7186 169.469 25.878H169.472Z" fill="#0078DB"/>
<path d="M162.679 45.823C162.402 49.744 162.541 51.4305 161.744 51.4556C161.385 51.4661 161.127 51.1747 161.105 50.8215C161.024 49.4548 160.815 48.0912 161.005 46.7139C161.216 45.1868 160.79 43.8222 161.818 43.7897C162.847 43.7583 162.679 44.8902 162.679 45.823Z" fill="#0078DB"/>
<path d="M168.173 43.4202C168.047 42.935 168.095 42.1698 168.593 42.1363C171.304 41.9571 171.957 57.9482 168.173 43.4202Z" fill="#0078DB"/>
<path d="M153.885 42.0817C154.181 41.8071 154.535 41.5283 154.965 41.9926C155.394 42.4569 155.097 42.8248 154.849 43.1644C150.315 49.3378 146.765 48.7216 153.885 42.0817Z" fill="#0078DB"/>
<path d="M172.189 39.4794C171.427 39.166 171.326 37.989 172.451 38.1629C175.283 38.6021 178.58 40.6952 178.212 41.4897C177.79 42.4015 172.726 39.7005 172.189 39.4815V39.4794Z" fill="#0078DB"/>
<path d="M161.364 20.8435C161.364 20.4924 161.1 16.3073 162.188 16.4121C163.244 16.5148 162.759 22.4901 162.629 23.5425C162.582 23.9156 162.421 24.3023 161.929 24.2709C161.22 24.2237 161.367 23.5236 161.363 20.8446H161.365L161.364 20.8435Z" fill="#0078DB"/>
<path fill-rule="evenodd" clip-rule="evenodd" d="M152.98 23.2885C153.215 22.798 153.436 22.2992 153.637 21.7871C154.243 22.4857 154.914 23.4175 155.6 24.6285C155.68 24.771 155.732 24.8968 155.734 25.0519V25.054C155.676 26.2946 154.29 24.981 152.98 23.2885Z" fill="#0078DB"/>
<path fill-rule="evenodd" clip-rule="evenodd" d="M149.575 29.5557C149.805 29.0986 150.043 28.6529 150.283 28.2148C151.477 28.8009 152.392 29.4855 152.162 30.0036C151.925 30.538 151.254 30.3143 149.575 29.5557Z" fill="#0078DB"/>
<path fill-rule="evenodd" clip-rule="evenodd" d="M147.055 38.9287C147.075 38.4511 147.109 37.9883 147.155 37.5391C147.552 37.4345 147.97 37.3144 148.386 37.1945C150.266 36.6526 152.126 36.1167 152.131 37.0474V37.1024C152.133 37.3726 152.134 37.6183 151.78 37.7224C151.78 37.7224 151.769 37.7259 151.75 37.7321C151.445 37.8351 148.809 38.725 147.055 38.9287Z" fill="#0078DB"/>
<path d="M138.878 22.8065C138.305 22.796 138.301 21.6609 138.874 21.6839C139.328 21.7028 139.392 22.8149 138.878 22.8065Z" fill="#202020"/>
<path d="M140.548 22.131C140.552 21.3962 141.262 21.4151 141.255 22.0838C141.253 22.3521 141.228 22.6057 140.89 22.612C140.572 22.6183 140.547 22.3773 140.549 22.1309L140.548 22.131Z" fill="#202020"/>
<path d="M153.997 13.7183C154.597 14.2015 156.022 11.4209 155.485 11.3506C155.257 11.5194 153.656 13.4437 153.997 13.7183Z" fill="#202020"/>
<path d="M154.335 10.4842C154.197 10.4569 154.195 10.5869 154.162 10.6676C153.826 11.4956 152.916 12.8162 153.262 13.0374C153.943 13.4692 154.729 10.5607 154.335 10.4842Z" fill="#202020"/>
<path d="M152.527 12.5753C152.791 12.6182 152.917 12.4306 152.944 12.2095C153.559 6.91124 151.875 12.4694 152.527 12.5753Z" fill="#202020"/>
<path fill-rule="evenodd" clip-rule="evenodd" d="M122.406 20.3091C122.769 21.1259 123.183 22.0181 123.625 22.9721C125.968 28.0222 129.114 34.8058 129.737 41.3108C130.155 45.6863 130.1 46.3852 130.325 46.4905C130.369 46.5112 130.423 46.509 130.495 46.5074C130.824 46.4998 130.821 46.4081 130.752 44.6553C130.744 44.4341 130.735 44.1864 130.724 43.9091C130.387 34.5963 126.372 26.3145 123.84 21.0926C123.516 20.4225 123.215 19.8029 122.95 19.2378C122.775 19.5981 122.594 19.9547 122.406 20.3091ZM124.479 15.1864C126.048 16.925 127.225 19.1748 128.382 21.3832C130.303 25.0552 132.165 28.6134 135.667 29.5195C136.836 30.816 138.439 30.9438 139.015 29.3507C143.243 27.7578 144.811 25.4641 147.099 22.1171C148.127 20.6124 149.301 18.895 150.928 16.9325C151.295 16.489 151.467 16.2681 151.673 16.2297C151.871 16.1929 152.1 16.3254 152.568 16.5919C152.915 16.79 153.005 17.0793 152.915 17.42C151.692 22.1271 150.247 24.5445 148.948 26.7182C146.708 30.4667 144.9 33.4907 145.408 46.2841C145.409 46.3051 145.408 46.3274 145.407 46.3501C145.403 46.4586 145.399 46.5746 145.561 46.5912L145.578 46.5929C145.982 46.6354 146.024 46.6399 145.968 40.2364C145.91 33.6618 148.346 29.4108 150.379 25.8636C150.956 24.8574 151.5 23.9079 151.945 22.9781C153.288 20.1779 153.464 18.699 153.579 17.732C153.668 16.9812 153.721 16.5392 154.254 16.0269C156.103 14.2525 156.469 12.7559 156.207 12.6406L156.205 12.6384V12.6406C155.921 12.5154 155.851 12.6056 155.308 13.3003C155.001 13.6939 154.542 14.2815 153.807 15.1341C153.14 15.9093 152.988 15.815 152.635 15.5954C152.488 15.5045 152.308 15.3921 152.042 15.3111C151.914 15.2723 151.873 15.2022 151.889 15.0575C151.948 14.4404 151.873 13.8298 151.799 13.2189C151.722 12.5961 151.646 11.9731 151.712 11.3429C151.807 10.4289 150.591 11.9927 151.272 14.4453C151.509 15.2933 143.005 26.0794 141.533 27.1779C141.406 27.2724 140.472 27.7497 139.772 28.1065C139.558 28.2166 139.365 28.3151 139.224 28.3874C139.271 27.9765 139.278 27.5804 139.282 27.2795C139.285 27.0425 139.475 27.0029 139.759 26.944C140.283 26.835 141.127 26.6596 141.705 25.0502C142.498 22.8502 142.014 19.7374 141.988 19.6513C141.184 17.1064 139.66 16.9388 138.611 16.8235C138.132 16.7708 137.752 16.729 137.584 16.4767C136.583 14.9643 134.707 15.0051 133.623 16.5573C132.846 17.6694 133.159 18.0725 133.494 18.5063C133.809 18.914 134.145 19.349 133.619 20.425C133.303 21.0706 132.971 23.4937 135.01 24.3438C135.398 24.5053 135.392 27.2665 135.389 28.5229V28.7669C133.338 27.8645 131.185 24.6719 127.051 17.3036C126.123 15.6468 125.359 14.9037 124.868 14.4265C124.805 14.3656 124.747 14.309 124.693 14.2554C124.63 14.5711 124.558 14.8813 124.479 15.1864ZM136.202 28.4524C136.202 28.4314 136.176 28.6421 136.323 28.8591L136.324 28.8581H136.326C137.482 30.556 138.447 30.055 138.762 28.0258C138.922 26.9947 138.39 26.7946 137.811 26.5768C137.458 26.4438 137.087 26.3041 136.845 25.9643C136.477 25.4453 136.732 25.5538 137.275 25.7849C138.289 26.2167 140.307 27.0759 141.142 25.0701C141.767 23.5735 141.654 20.8222 141.516 20.2299C141.175 18.7815 139.569 18.3256 139.39 18.922C139.023 20.1315 138.272 21.1115 137.473 22.0568C137.066 22.5411 136.921 22.5064 136.557 21.9698C136.111 21.3158 135.075 21.514 135.358 22.4655C135.537 23.0672 135.819 23.291 135.997 23.433C136.178 23.5768 136.253 23.6365 136.008 23.9203C135.788 24.1752 135.843 24.4665 135.951 25.0393C136.075 25.6914 136.268 26.7085 136.202 28.4524Z" fill="#202020"/>
<path d="M73.6144 22.0188C73.2654 22.0439 73.2392 22.3468 73.2035 22.611C73.127 23.1822 73.9131 23.2367 73.9037 22.4684C73.9016 22.2557 73.9288 21.9978 73.6123 22.0188H73.6144Z" fill="#202020"/>
<path d="M70.5308 22.113C70.4941 22.6643 71.1545 22.5773 71.2247 22.0742C71.2781 21.2756 70.5769 21.4118 70.5308 22.113Z" fill="#202020"/>
<path d="M89.8735 16.045C90.4741 16.5073 91.8985 13.8513 91.3619 13.7832C91.1344 13.9446 89.5329 15.783 89.8735 16.045Z" fill="#202020"/>
<path d="M57.8663 13.7802C58.8243 13.493 56.9565 10.4493 57.0079 11.881C57.0823 12.2363 57.5173 13.885 57.8663 13.7802Z" fill="#202020"/>
<path d="M56.8008 14.2079C57.7588 13.9207 55.8911 10.877 55.9424 12.3087C56.0168 12.664 56.4518 14.3127 56.8008 14.2079Z" fill="#202020"/>
<path d="M58.6177 13.607C59.6166 13.5861 58.6282 10.1545 58.2959 11.5475C58.2729 11.9112 58.253 13.6154 58.6177 13.607Z" fill="#202020"/>
<path d="M90.21 12.9555C90.0716 12.9303 90.0695 13.053 90.037 13.1305C89.7006 13.9208 88.7908 15.1838 89.1367 15.3945C89.818 15.8074 90.6041 13.0279 90.21 12.9555Z" fill="#202020"/>
<path d="M88.4019 14.9529C88.666 14.9938 88.7918 14.8166 88.819 14.6018C89.4322 9.54347 87.7499 14.8512 88.4019 14.9529Z" fill="#202020"/>
<path fill-rule="evenodd" clip-rule="evenodd" d="M86.11 18.587C84.3488 21.0835 80.7803 25.4117 78.731 27.6144C78.1882 21.0657 77.6914 19.0387 75.4453 17.7222C73.4245 16.5378 68.1042 16.4718 69.4636 26.7947C69.5297 27.3011 69.4845 27.9671 69.4394 28.6323C69.4194 28.9266 69.3995 29.2208 69.3892 29.501C68.2168 28.6852 67.2301 26.9568 65.2569 23.5002C64.6035 22.3556 63.842 21.0215 62.9297 19.4684C62.0011 17.8873 61.2373 17.1774 60.7467 16.7215C60.2222 16.234 60.0099 16.0366 60.2423 15.3755C60.7894 13.819 60.0149 10.7176 59.7015 11.7532C59.532 12.3121 59.5946 12.7894 59.6477 13.1951C59.6735 13.3918 59.6971 13.5719 59.691 13.7362C59.6786 14.0462 59.6186 14.3515 59.5584 14.6568C59.4644 15.134 59.3705 15.6112 59.4594 16.106C59.4824 16.2339 59.3975 16.2831 59.3126 16.2915C58.9731 16.3291 58.6691 16.4829 58.4117 16.6132C58.088 16.777 57.8379 16.9035 57.6839 16.715C57.6408 16.6625 57.5978 16.61 57.5547 16.5575C56.8088 15.6488 56.0647 14.7424 55.6159 13.6356C55.3434 12.9585 54.7743 13.9972 55.3203 14.9279C56.0882 16.2397 56.6635 16.779 56.9615 17.0583C57.1975 17.2796 57.2595 17.3378 57.1053 17.4874C56.2958 18.2736 57.647 21.0556 59.5031 24.8773C61.8457 29.7006 64.9927 36.18 65.6148 42.3928C66.0308 46.5533 65.9789 47.2326 66.1996 47.3374C66.2441 47.3586 66.2998 47.3563 66.3727 47.3546C66.7022 47.3472 66.6986 47.2587 66.6305 45.5855C66.622 45.3744 66.6123 45.1381 66.6023 44.8737C66.2653 35.9677 62.2509 28.0732 59.7179 23.0919C58.137 19.9831 57.1333 18.009 57.9605 17.6321C58.3327 17.4623 58.624 17.3253 58.8542 17.217C59.6842 16.8266 59.7199 16.8098 59.8964 16.978C61.6328 18.6255 62.9183 21.1308 64.1599 23.5507C65.7121 26.5761 67.1959 29.468 69.407 30.3835C69.4689 30.9715 69.6649 31.3614 70.1606 31.3205C70.3957 31.3014 70.4325 30.9802 70.4669 30.6798C70.4988 30.4005 70.5286 30.1394 70.7141 30.156C70.9399 30.177 70.9051 30.4746 70.8709 30.7676C70.8385 31.0442 70.8066 31.3167 70.995 31.3488C72.0301 31.525 72.0772 30.2055 72.1211 28.9757C72.1552 28.019 72.1874 27.1166 72.6814 27.0148C72.9287 26.9635 73.5564 26.3912 73.2715 26.0055C73.1727 25.8725 72.9228 26.0159 72.6254 26.1863C72.4237 26.3019 72.2002 26.4301 71.9875 26.4929C70.06 27.0609 69.4343 24.1294 69.8661 22.5572C70.0128 22.0254 70.102 21.579 70.1775 21.2023C70.392 20.1304 70.4936 19.623 71.4802 19.3206C72.8072 18.9139 73.0157 18.9454 73.1771 19.525C73.5461 20.8519 74.6277 23.2898 75.6392 22.4849C76.0165 22.1851 76.6255 22.6421 76.201 23.1494C75.9844 23.4075 75.7773 23.6289 75.5832 23.8362C74.4713 25.0244 73.7889 25.7535 74.2441 30.3279C74.329 31.1863 74.6958 31.4819 75.5133 31.4117C75.8976 31.3791 75.8981 31.3685 75.9496 30.1318C75.9629 29.8135 75.9795 29.414 76.0071 28.9119C76.3398 29.3241 76.389 29.9623 76.427 30.4553C76.4531 30.7943 76.474 31.0646 76.5783 31.1455C76.7538 31.2818 76.9031 31.2132 77.1026 31.1213C77.2495 31.0537 77.4237 30.9736 77.6558 30.9536C78.9923 30.836 78.9113 29.8308 78.8429 28.9828C78.8404 28.9537 78.8381 28.9248 78.8359 28.8962C80.5652 27.3807 82.2917 25.0405 83.9316 22.8177C84.8232 21.6091 85.6893 20.4352 86.5163 19.4474C86.3785 19.1562 86.2429 18.8694 86.11 18.587ZM87.9034 22.3915C86.9019 25.1357 85.8207 26.8635 84.8251 28.4546C82.5845 32.0351 80.7771 34.9235 81.2854 47.1429C81.286 47.1632 81.2853 47.1847 81.2844 47.2065C81.2804 47.3106 81.2762 47.4208 81.4383 47.4364C81.4442 47.4369 81.4498 47.4374 81.4555 47.438C81.8588 47.4785 81.9019 47.4828 81.8451 41.3667C81.7871 35.0889 84.2222 31.0302 86.2549 27.6425C86.8319 26.6807 87.3765 25.773 87.8225 24.884C88.0643 24.4022 88.2684 23.9614 88.441 23.557C88.2612 23.1634 88.0818 22.7749 87.9034 22.3915Z" fill="#202020"/>
<path d="M123.05 12.4019C123.159 11.9952 123.05 11.6504 122.629 11.4135C121.473 10.7679 121.512 10.7836 120.637 11.8181C117.205 15.8795 113.182 22.9858 109.246 25.3157C107.564 26.3125 106.77 25.5924 106.239 26.2213C104.761 27.9696 103.323 26.5787 102.77 26.6448C96.2768 27.413 93.4207 14.4677 87.9758 9.1611C87.7011 8.8949 87.7074 9.0039 85.6269 9.9765C85.2433 10.1558 85.2014 10.3979 85.3376 10.8266C88.7 21.3528 95.5432 28.37 96.1175 43.9377C96.2265 46.8829 96.2884 47.0212 95.8387 47.0296C95.3105 47.0401 95.5274 47.0768 94.9185 40.8436C93.5643 26.9634 82.3641 12.013 84.5882 9.7963C85.0138 9.3728 84.0925 9.5363 82.4228 6.6037C81.7625 5.4434 82.4501 4.148 82.7823 4.9917C83.3577 6.4528 84.3346 7.6298 85.2905 8.8309C85.6269 9.2523 86.3365 8.4075 87.2693 8.3027C87.3741 8.2901 87.4758 8.2304 87.4486 8.0711C87.2735 7.0596 87.6917 6.1058 87.7295 5.1175C87.7546 4.4896 87.4381 3.6805 87.7441 2.645C88.1256 1.3547 89.0648 5.2191 88.4002 7.1623C87.8552 8.7597 89.331 8.1864 91.663 12.2646C97.7767 22.9554 98.7074 25.5233 102.255 25.7172C102.351 25.7214 102.443 25.7025 102.46 25.5683C102.575 24.6565 102.887 22.947 101.925 22.6913C99.2818 21.9911 99.3101 18.5942 99.6937 16.5074C100.028 14.6847 100.866 13.6575 100.146 12.9427C99.2912 12.0927 99.1718 10.9796 99.0617 9.8183C98.851 7.5952 101.588 5.827 103.557 6.0702C107.565 6.566 107.078 9.8654 108.54 10.248C109.068 10.3864 109.33 10.8999 109.677 11.2762C110.672 12.3537 110.732 13.6502 110.433 15.0054C109.945 17.218 109.607 18.3982 107.632 19.8739C106.25 20.9063 106.744 21.6693 106.619 24.4909C106.569 25.6176 108.346 24.6785 109.24 24.0245C111.025 22.7185 121.347 9.8728 121.062 8.8655C120.234 5.9455 121.712 4.083 121.594 5.1709C121.437 6.6571 121.954 8.1098 121.809 9.594C121.792 9.7669 121.84 9.8497 121.997 9.8969C123.099 10.227 122.993 10.9932 124.141 9.6862C126.607 6.8773 126.511 6.4832 127.053 6.7158C127.368 6.8521 126.927 8.6349 124.683 10.7469C123.201 12.1419 124.774 13.0999 121.88 19.0228C119.431 24.0339 114.533 29.5218 114.625 39.5712C114.695 47.3 114.642 47.1868 114.132 47.1376C113.895 47.1145 113.952 46.9164 113.946 46.7718C112.97 22.707 119.015 27.674 123.058 12.404H123.052L123.05 12.4019ZM103.292 24.2551C103.209 25.4006 103.047 25.8314 103.649 26.0526C104.985 26.542 105.811 25.6249 105.762 25.2183C105.66 24.3882 105.739 23.5549 105.701 22.7227C105.628 21.1558 106.08 19.8268 107.255 18.7682C108.169 17.9443 109.152 16.6709 107.951 16.6363C107.378 16.6195 107.121 17.152 107.092 16.4728C107.016 14.626 105.606 13.7215 104.294 13.9175C101.778 14.2927 101.334 13.3578 101.167 14.0045C100.303 17.3815 99.5344 21.9261 102.924 21.6368C103.762 21.5645 104.179 20.8256 104.619 21.0195C105.13 21.2428 104.276 22.1955 104.099 22.2437C103.001 22.555 103.288 23.2677 103.288 24.2561H103.29L103.292 24.2551ZM102.728 7.3017C102.164 7.3636 101.644 7.4673 101.646 8.1025C101.651 8.9882 102.881 8.1109 104.705 9.5332C105.727 10.3298 105.097 7.3762 102.728 7.3038V7.3017Z" fill="#202020"/>
<path d="M83.4267 2.56504C83.7296 3.80494 84.9601 5.42114 84.4591 5.75334C84.1887 5.93264 84.0975 5.69574 83.9392 5.51654C83.2747 4.76294 83.2003 3.79344 82.9813 2.87844C82.7601 1.95184 83.3775 2.36064 83.4288 2.56504H83.4267Z" fill="#202020"/>
<path d="M126.173 5.17578C126.825 5.26068 125.095 8.57268 124.367 7.99518C123.954 7.66918 125.898 5.37598 126.173 5.17578Z" fill="#202020"/>
<path d="M84.4709 2.81008C84.4112 1.02518 86.6751 4.81828 85.5128 5.17778C85.0893 5.30778 84.559 3.25448 84.4709 2.81008Z" fill="#202020"/>
<path d="M123.472 7.18442C123.053 6.92242 124.158 5.34922 124.564 4.36302C124.605 4.26762 124.607 4.11352 124.773 4.14602C125.25 4.23512 124.296 7.70012 123.47 7.18442H123.472Z" fill="#202020"/>
<path d="M123.334 4.17043C123.345 4.86003 123.165 5.52243 123.085 6.19963C123.053 6.46583 122.901 6.68693 122.58 6.63663C121.89 6.52553 123.299 1.67063 123.334 4.17043Z" fill="#202020"/>
<path d="M86.3994 4.15299C86.3721 3.47179 86.1992 3.21389 86.129 2.62169C86.0755 2.18049 86.216 1.60609 86.6226 2.38279C87.7787 4.58699 86.4633 5.69059 86.3994 4.15299Z" fill="#202020"/>
<path d="M102.134 15.9835C102.074 16.7036 101.258 16.9163 101.288 16.1051C101.3 15.7686 101.369 15.4553 101.779 15.4427C102.101 15.4322 102.132 15.6817 102.134 15.9835Z" fill="#202020"/>
<path d="M104.589 16.7413C104.672 16.4436 104.674 16.0621 105.089 16.0684C105.941 16.081 104.782 18.1531 104.589 16.7413Z" fill="#202020"/>
<path d="M104.818 65.1918C113.763 65.305 121.323 72.7456 121.022 82.2049C120.739 91.0919 113.379 98.4434 104.139 98.2621C95.2865 98.0891 87.7222 90.5311 88.0566 81.1295C88.3658 72.4616 95.558 65.0766 104.818 65.1918ZM106.16 74.8492C106.33 74.9488 106.257 74.8492 106.201 76.4696C105.907 84.7172 105.645 87.0535 105.707 91.3979C105.724 92.6012 107.14 92.772 107.334 91.4807C107.561 89.9662 107.938 80.0856 107.975 79.1737C108.229 72.8358 108.972 69.5331 105.201 73.3472C101.614 76.9737 95.8535 82.3579 96.9247 83.2048C97.8638 83.9458 103.529 77.6718 106.161 74.8523V74.8481L106.16 74.8492Z" fill="#FF4D4D"/>
<path d="M169.74 61.727C167.662 61.4335 161.16 61.727 158.523 61.8202C146.402 62.2416 147.401 62.4596 147.49 61.4178C148.107 54.2581 147.106 53.7602 147.99 53.8325C148.78 53.8986 149.564 53.756 150.357 53.7875C151.469 53.8325 151.769 53.4467 151.866 52.3137C151.923 51.6178 151.972 48.2723 151.558 47.1455C150.766 44.9948 60.7694 46.894 58.2843 46.9862C57.3022 47.0229 56.9721 48.5175 57.0046 49.0091C57.124 50.881 56.4994 53.9625 58.1648 53.8095C59.1291 53.7225 60.0902 53.8692 61.0524 53.8304C61.8804 53.799 60.7945 54.6144 61.4255 61.4859C61.5167 62.4804 61.8835 62.1934 51.5481 61.8454C40.6403 61.4796 38.281 61.1913 38.7872 62.885C36.7979 80.9441 62.3363 110.682 81.2664 112.473C85.2272 112.848 87.2721 111.981 88.6179 112.089C88.8307 112.161 90.6219 113.286 90.6471 113.437C91.256 116.921 90.8389 117.117 92.323 120.524C93.8396 124.006 97.0144 126.411 99.5802 127.122C101.039 127.527 101.013 127.06 100.89 129.112C100.773 131.071 100.094 132.604 99.4125 134.773C98.5142 137.627 96.156 139.278 93.4371 140.586C91.0653 141.728 90.733 143.308 90.7728 145.651C90.8116 147.853 92.6856 147.069 92.7213 148.119C92.7422 148.751 93.107 150.718 92.1553 152.639C91.4929 153.976 87.3151 156.628 84.3395 156.335C83.9119 156.292 82.6164 156.29 82.6038 156.904C82.5011 161.178 82.6311 161.131 81.9665 161.108C77.6944 160.952 77.4282 160.833 77.3108 161.819C76.966 164.717 76.8695 184.559 77.0917 191.942C77.1326 193.277 76.8067 192.279 73.2305 192.864C72.0765 193.054 72.9873 194.949 72.7913 196.596C72.7022 197.349 72.8039 197.855 73.4873 197.991C73.6235 198.018 130.49 197.976 134.381 197.948C136.146 197.935 136.157 197.777 136.104 196.231C135.978 192.522 137.586 192.747 132.201 192.673C131.495 192.662 132.3 192.668 131.871 168.674C131.736 161.25 131.728 160.907 130.506 161.023C129.33 161.134 128.153 161.046 126.977 161.105C126.604 161.124 126.483 161.021 126.477 160.633C126.442 157.934 126.267 156.545 125.949 156.468C124.694 156.154 123.025 156.531 121.672 156.009C120.56 155.582 119.581 154.904 118.523 154.374C116.052 153.14 115.92 150.577 116.3 147.794C116.395 147.089 118.704 147.822 118.099 144.187C117.21 138.841 111.794 141.863 109.025 133.432C108.627 132.22 107.388 127.558 108.322 127.356C114.517 126.021 117.902 120.228 118.041 113.891C118.057 113.071 118.424 113.288 119.908 112.232C121.539 111.069 131.183 117.613 150.873 99.9906C170.005 82.8685 171.428 61.9691 169.741 61.7301L169.737 61.728L169.74 61.727ZM59.3115 52.3337C58.692 52.34 58.5191 52.1996 58.5086 51.5759C58.451 47.483 58.1805 47.9107 62.8677 47.9191C78.5738 47.9463 149.019 47.9274 149.095 47.9316C150.618 48.0291 150.493 48.4211 150.458 51.7311C150.454 52.1566 150.217 52.3631 149.791 52.34C149.77 52.34 59.3303 52.3316 59.3094 52.3316L59.3115 52.3337ZM77.7751 102.501C69.2141 99.9391 68.2047 97.8881 67.4637 97.909C58.0705 91.4201 48.9068 79.9244 46.0937 69.8981C45.7782 68.7735 46.3578 69.7827 61.9716 69.2062C62.417 69.1895 62.5973 69.6747 62.7682 70.2135C67.1482 93.1285 79.6219 102.714 77.7772 102.499L77.7751 102.501ZM57.493 97.341C41.157 81.224 39.0608 62.9501 40.5198 63.0308C58.5621 64.0685 61.3983 63.3306 61.7452 64.102C62.1791 67.4287 62.2692 67.4392 62.2095 67.6478C62.1372 67.8134 49.9811 67.9182 49.9602 67.9182C44.8233 67.9119 44.01 67.8815 44.4659 69.635C45.8756 75.0611 48.2528 80.5175 53.5384 87.2873C67.383 105.016 79.6753 104.191 80.3839 104.963C82.565 107.34 84.3489 108.717 86.5835 110.573C77.0917 110.598 69.1124 108.803 57.493 97.3389V97.341ZM134.542 193.895C135.417 193.874 134.638 195.024 135.042 196.789C69.6553 196.484 73.918 197.158 73.982 196.431C74.178 194.196 73.7074 193.884 74.3509 193.895C76.0227 193.924 133.882 193.912 134.544 193.895H134.542ZM130.179 163.107C129.591 172.531 130.475 192.648 129.892 192.64C76.422 192.085 78.7478 193.086 78.7624 192.3C79.3735 162.722 78.4029 162.715 79.1419 162.717C133.566 162.945 130.225 162.368 130.18 163.105V163.107H130.179ZM124.363 157.405C125.189 157.392 124.786 157.511 125.125 160.782C125.174 161.25 128.206 161.285 84.1445 161.122C83.5523 161.12 84.0083 160.866 84.0376 157.859C84.0481 156.801 84.0418 158.043 124.36 157.404H124.362L124.363 157.405ZM118.809 156.199C88.271 156.199 89.5098 156.35 90.711 155.888C94.6278 154.382 94.2421 150.745 94.2421 147.812C108.477 151.865 114.986 146.477 114.79 148.411C114.132 154.891 117.689 155.471 118.809 156.198V156.199ZM115.185 142.257C116.943 143.079 117.284 145.609 115.928 146.04C107.126 148.83 101.012 148.461 93.4455 146.151C92.3618 145.821 92.0872 145.307 92.2852 144.198C92.5106 142.944 93.4099 142.38 94.4548 141.932C94.8123 141.779 98.6547 143.289 106.527 142.718C115.173 142.091 112.876 141.181 115.184 142.26V142.258L115.185 142.257ZM112.041 140.69C106.924 141.506 101.889 141.466 96.6716 140.803C101.412 137.645 102.743 130.988 101.992 127.689C103.672 127.871 105.301 127.89 106.811 127.7C106.706 132.783 107.678 137.353 112.043 140.69H112.041ZM100.081 125.331C96.7481 124.483 94.9045 122.188 93.5115 119.325C92.9047 118.075 91.9991 114.636 92.1867 114.048C100.379 118.297 108.578 118.301 116.852 114.011C116.015 122.766 110.031 127.858 100.081 125.33L100.081 125.331ZM89.8075 110.795C89.8243 110.774 88.4617 109.864 88.5508 109.922C71.195 98.5221 62.3122 74.1523 62.983 54.1239C62.9977 53.6764 62.9851 53.9363 89.2195 54.2455C125.429 54.6731 145.963 53.5024 145.991 54.0987C147.528 88.5126 117.938 128.769 89.8096 110.793L89.8075 110.795ZM146.959 69.2031C162.754 69.7722 163.221 68.788 162.91 69.899C158.619 85.188 140.819 101.77 130.825 102.542C146.545 82.8172 145.113 69.137 146.958 69.2052V69.2031H146.959ZM151.508 97.342C136.748 111.905 126.836 110.576 122.354 110.576C128.715 105.56 128.236 104.783 129.237 104.669C146.406 102.703 162.405 81.375 164.579 69.3174C164.839 67.8826 163.751 67.9161 159.04 67.9203C156.784 67.9224 150.962 67.7547 147.291 67.7819C146.447 67.7882 146.76 67.7944 147.199 64.3189C147.35 63.1303 148.758 64.189 168.472 63.0308C169.892 62.948 167.958 81.1108 151.507 97.341V97.3431L151.508 97.342Z" fill="#202020"/>
<path d="M55.5167 30.3748C55.5418 31.4586 48.008 32.4082 46.7984 32.6146C46.4913 32.6681 46.2618 33.036 45.8761 32.796C43.3805 31.2395 55.4832 28.963 55.5167 30.3748Z" fill="#FF4D4D"/>
<path d="M43.3996 26.0899C42.9803 26.115 42.5139 25.6193 42.9562 25.0596C47.548 19.2541 49.4137 18.9365 48.7397 20.5789C48.3865 21.4415 44.4844 25.9306 43.3964 26.0899H43.3996Z" fill="#FF4D4D"/>
<path d="M36.6058 46.0352C36.3291 49.9562 36.4674 51.6426 35.6709 51.6678C35.3114 51.6782 35.0535 51.3868 35.0315 51.0335C34.9508 49.6668 34.7422 48.3032 34.9319 46.926C35.1426 45.3989 34.7171 44.0342 35.7453 44.0017C36.7735 43.9692 36.6058 45.1023 36.6058 46.0352Z" fill="#FF4D4D"/>
<path d="M42.1 43.6341C41.9743 43.1488 42.0214 42.3837 42.5193 42.3501C45.2308 42.1709 45.8837 58.162 42.1 43.6341Z" fill="#FF4D4D"/>
<path d="M27.8127 42.2946C28.1083 42.02 28.4626 41.7412 28.8923 42.2056C29.322 42.6699 29.0243 43.0378 28.777 43.3774C24.2428 49.5508 20.6929 48.9355 27.8127 42.2957V42.2946Z" fill="#FF4D4D"/>
<path d="M46.1159 39.6924C45.3539 39.379 45.2533 38.2018 46.3779 38.3758C49.2099 38.815 52.5073 40.9081 52.1384 41.7026C51.7171 42.6144 46.6525 39.9134 46.1159 39.6944V39.6924Z" fill="#FF4D4D"/>
<path d="M35.2929 21.0555C35.2929 20.7044 35.0288 16.5192 36.1167 16.624C37.1732 16.7268 36.6879 22.7021 36.558 23.7544C36.5108 24.1275 36.3494 24.5143 35.8578 24.4828C35.1483 24.4357 35.296 23.7355 35.2919 21.0565H35.294L35.2929 21.0555Z" fill="#FF4D4D"/>
<path d="M19.4113 38.6522C19.448 38.3263 19.6429 38.058 19.9773 38.0003C22.2004 37.6188 26.0511 35.9198 26.0574 37.2593C26.0574 37.5507 26.0847 37.8232 25.7063 37.9343C25.6812 37.9406 19.2447 40.1699 19.4134 38.6543L19.4113 38.6522Z" fill="#FF4D4D"/>
<path d="M20.5936 28.4521C20.4804 28.4028 19.644 27.8808 19.8526 27.3421C20.1377 26.6032 26.6632 28.9268 26.0899 30.2171C25.7472 30.9906 24.4947 30.1762 20.5936 28.45V28.4521Z" fill="#FF4D4D"/>
<path d="M29.6609 25.2658C29.5697 27.2142 26.2021 22.8614 25.0009 20.6362C24.4727 19.6541 26.8875 20.1782 29.5267 24.8402C29.6074 24.9828 29.6588 25.1086 29.6609 25.2637V25.2658Z" fill="#FF4D4D"/>
<path d="M62.6027 154.253C62.784 153.668 69.2362 157.36 72.2621 149.919C72.6069 149.074 72.9119 148.157 72.696 147.166C72.6426 146.919 72.7851 146.578 72.7851 146.278C72.7851 145.316 72.2852 147.135 68.9815 146.065C67.0372 145.438 66.1002 143.314 67.5078 142.345C69.2089 141.173 72.0221 141.48 73.2232 143.569C73.4088 143.891 73.5492 143.957 73.7945 143.598C74.4548 142.632 74.4862 141.635 74.1519 140.536C73.7724 139.292 73.7368 137.908 72.8763 138.096C68.1975 139.115 65.7334 136.032 67.9889 134.767C70.3745 133.427 73.066 135.681 73.4192 136.177C73.849 136.777 76.3969 133.821 73.2683 130.286C73.0849 130.08 72.2464 130.018 72.412 129.583C72.8826 128.356 76.3372 131.063 76.094 134.029C75.8173 137.393 74.1005 136.629 74.6717 138C75.7261 140.526 76.1475 143.069 74.2378 145.028C73.4842 145.801 74.7 147.49 73.3647 150.79C70.2833 158.4 62.197 155.571 62.6058 154.247L62.6016 154.251L62.6027 154.253ZM72.542 136.98C72.5671 137.038 72.5545 137.023 72.5954 137.025C72.4571 136.941 72.5786 136.821 72.4864 136.718C71.5578 135.686 69.9311 134.803 68.5444 135.532C67.0027 136.341 70.2497 137.761 72.542 136.983V136.98ZM71.019 145.286C71.3555 145.409 71.6835 144.972 72.1332 144.958C73.1509 144.926 70.8251 141.533 68.164 143.335C67.5403 143.757 68.4616 145.256 71.0201 145.286H71.019Z" fill="#FF4D4D"/>
<path d="M154.773 128.863C153.435 125.565 154.653 123.875 153.9 123.1C151.989 121.141 152.411 118.599 153.466 116.073C154.037 114.704 152.32 115.466 152.043 112.101C151.8 109.133 155.255 106.426 155.726 107.655C155.891 108.089 155.05 108.151 154.869 108.359C151.741 111.894 154.287 114.85 154.718 114.249C155.071 113.753 157.764 111.5 160.149 112.839C162.404 114.104 159.94 117.188 155.261 116.168C154.401 115.981 154.365 117.365 153.986 118.608C153.651 119.707 153.683 120.703 154.343 121.671C154.588 122.028 154.729 121.962 154.914 121.641C156.115 119.553 158.929 119.245 160.63 120.417C162.037 121.386 161.1 123.507 159.156 124.138C155.853 125.207 155.35 123.389 155.352 124.351C155.352 124.651 155.495 124.992 155.441 125.239C155.227 126.229 155.531 127.144 155.875 127.992C158.901 135.43 165.355 131.74 165.535 132.326C165.941 133.651 157.857 136.479 154.776 128.869L154.772 128.865L154.773 128.863ZM159.592 113.598C158.205 112.87 156.579 113.751 155.65 114.785C155.559 114.887 155.679 115.008 155.541 115.092C155.582 115.092 155.568 115.106 155.594 115.047C157.886 115.826 161.134 114.405 159.592 113.596V113.598ZM159.971 121.403C157.309 119.602 154.983 122.995 156.002 123.026C156.452 123.041 156.782 123.478 157.116 123.354C159.672 123.325 160.596 121.827 159.972 121.403H159.971Z" fill="#0078DB"/>
<path d="M143.978 121.768C143.961 122.607 142.965 124.684 142.42 128.233C142.217 129.552 141.755 129.899 140.45 129.635C132.632 128.046 135.806 127.288 138.789 120.857C138.94 120.533 139.125 120.19 139.6 120.293C141.961 120.802 144.159 120.491 143.98 121.769L143.978 121.768Z" fill="#FF4D4D"/>
<path d="M33.2388 58.7316C33.2221 59.5711 32.2253 61.6473 31.6803 65.1973C31.478 66.5158 31.0158 66.8629 29.7109 66.5987C21.893 65.0098 25.0667 64.252 28.0496 57.8207C28.2005 57.4969 28.3861 57.1541 28.8608 57.2569C31.2223 57.7662 33.4202 57.4549 33.2409 58.7326L33.2388 58.7316Z" fill="#FF4D4D"/>
<path d="M131.328 58.9978C131.997 59.5051 133.089 61.5342 135.64 64.0623C136.587 65.0014 136.596 65.5789 135.613 66.4793C129.731 71.8676 130.983 68.8564 127.537 62.6589C127.362 62.3455 127.194 61.9944 127.558 61.6705C129.36 60.0606 130.4 58.0995 131.327 58.9957V58.9978H131.328Z" fill="#0078DB"/>
<path d="M64.4461 104.66C64.4692 105.601 57.9163 106.427 56.8651 106.608C56.5988 106.653 56.3986 106.977 56.0622 106.765C53.8926 105.411 64.4146 103.432 64.444 104.66H64.4461Z" fill="#0078DB"/>
<path d="M53.9109 100.935C53.5451 100.956 53.1426 100.526 53.5272 100.039C57.5185 94.9921 59.141 94.7164 58.5572 96.1419C58.2501 96.8913 54.8563 100.795 53.913 100.936H53.9109V100.935Z" fill="#0078DB"/>
<path d="M48.0042 118.275C47.7631 121.683 47.8847 123.152 47.1929 123.173C46.8795 123.184 46.6542 122.928 46.6374 122.622C46.5672 121.433 46.3859 120.25 46.5504 119.051C46.7339 117.722 46.3628 116.536 47.2579 116.508C48.153 116.481 48.0042 117.466 48.0042 118.275Z" fill="#0078DB"/>
<path d="M52.7806 116.19C52.6695 115.768 52.7125 115.102 53.1443 115.074C55.5016 114.918 56.0707 128.823 52.7806 116.19Z" fill="#0078DB"/>
<path d="M40.3603 115.025C40.6182 114.784 40.9242 114.544 41.2995 114.949C41.6748 115.353 41.4147 115.673 41.1999 115.967C37.2579 121.333 34.1702 120.8 40.3603 115.027V115.025Z" fill="#0078DB"/>
<path d="M56.2744 112.763C55.6099 112.49 55.525 111.468 56.5018 111.617C58.9638 111.999 61.8304 113.819 61.5108 114.509C61.145 115.301 56.7429 112.955 56.2744 112.763Z" fill="#0078DB"/>
<path d="M46.8614 96.5587C46.8614 96.2537 46.6319 92.6147 47.5794 92.7058C48.4975 92.7949 48.0751 97.9915 47.963 98.9055C47.9221 99.2293 47.7817 99.5658 47.354 99.5375C46.7388 99.4966 46.8667 98.8877 46.8625 96.5577L46.8614 96.5587Z" fill="#0078DB"/>
<path d="M33.0537 111.857C33.0852 111.574 33.2539 111.339 33.5453 111.291C35.4791 110.958 38.8247 109.483 38.8309 110.645C38.8309 110.899 38.8561 111.135 38.5238 111.231C38.5029 111.237 32.9059 113.175 33.0506 111.857L33.0537 111.857Z" fill="#0078DB"/>
<path d="M34.0823 102.988C33.9849 102.945 33.2585 102.492 33.4388 102.023C33.6882 101.38 39.3617 103.399 38.8628 104.523C38.5651 105.194 37.474 104.488 34.0844 102.988H34.0823Z" fill="#0078DB"/>
<path d="M41.9664 100.216C41.8878 101.909 38.9593 98.1274 37.9154 96.1916C37.4553 95.3395 39.5557 95.7933 41.849 99.8485C41.9192 99.9742 41.9643 100.083 41.9664 100.217V100.216Z" fill="#0078DB"/>
</svg>
