<svg width="201" height="200" viewBox="0 0 201 200" fill="none" xmlns="http://www.w3.org/2000/svg">
<path d="M173.658 127.407C173.967 113.74 173.525 112.876 173.368 105.937C171.785 35.7952 172.101 36.8572 171.921 36.4622C171.659 35.8852 170.867 36.1182 170.371 36.1522C165.849 36.4522 159.699 36.1472 155.744 36.5962C155.694 36.6008 155.647 36.6196 155.608 36.6502C155.569 36.6808 155.54 36.722 155.523 36.7689C155.507 36.8158 155.504 36.8664 155.516 36.9147C155.528 36.963 155.553 37.0069 155.589 37.0412C154.705 69.3412 155.657 103.577 156.219 127.82C156.248 129.073 156.413 128.941 159.775 128.978C163.635 129.021 166.705 128.801 170.732 128.813C171.55 128.891 172.373 128.897 173.193 128.833C173.8 128.648 173.647 127.882 173.658 127.407Z" fill="#0078DB"/>
<path d="M86.3004 99.5694C91.2214 97.0574 96.7824 94.2874 102.736 91.4754C102.654 89.7184 102.236 74.3884 102.236 73.7994C102.236 73.4274 102.336 72.9224 101.998 72.6524C101.739 72.4464 101.378 72.5374 101.078 72.5524C95.8684 72.7464 90.3544 72.5424 86.7104 72.8114C86.6626 72.8166 86.6172 72.8352 86.5794 72.8649C86.5416 72.8947 86.513 72.9346 86.4969 72.9799C86.4807 73.0252 86.4776 73.0741 86.4879 73.1211C86.4983 73.168 86.5217 73.2111 86.5554 73.2454C86.2004 82.0074 86.1654 90.7934 86.3004 99.5694Z" fill="#0078DB"/>
<path d="M66.3392 108.945C71.2592 106.433 76.8203 103.663 82.7753 100.851C82.6923 99.0938 82.2753 83.7638 82.2753 83.1748C82.2753 82.8028 82.3753 82.2968 82.0383 82.0268C81.7783 81.8268 81.4172 81.9128 81.1182 81.9268C75.9072 82.1208 70.3943 81.9168 66.7493 82.1848C66.7012 82.1898 66.6556 82.2084 66.6177 82.2382C66.5797 82.268 66.551 82.308 66.5348 82.3535C66.5185 82.399 66.5155 82.4481 66.5261 82.4953C66.5366 82.5424 66.5602 82.5856 66.5943 82.6198C66.2353 91.3818 66.2002 100.179 66.3392 108.945Z" fill="#0078DB"/>
<path d="M127.007 103.735C121.735 106.175 115.491 109.079 108.876 112.191C108.947 128.983 108.752 127.436 108.845 128.203C108.929 128.903 109.745 128.773 110.302 128.792C115.813 129.141 121.339 129.161 126.852 128.854C126.852 128.955 127.25 114.941 127.007 103.735Z" fill="#0078DB"/>
<path d="M108.142 89.3251C113.951 86.7511 120.042 84.1781 126.19 81.7691C125.932 75.1221 125.156 54.6751 125.043 51.0991C125.024 50.4991 124.908 50.1721 124.205 50.1891C121.276 50.2621 109.591 51.0261 108.731 51.1821C108.286 51.2621 108.182 51.5431 108.173 51.9051C108.148 52.8871 107.82 80.9211 107.945 84.6941C108 86.2451 108.069 87.7851 108.142 89.3251Z" fill="#0078DB"/>
<path d="M150.007 111.757C149.762 95.197 148.707 71.517 148.694 64.217C148.688 61.211 149.275 61.902 144.383 61.984C140.783 62.044 136.456 61.934 133.168 62.211C133.121 62.2162 133.075 62.2347 133.037 62.2645C133 62.2943 132.971 62.3341 132.955 62.3794C132.939 62.4247 132.936 62.4736 132.946 62.5206C132.956 62.5676 132.98 62.6107 133.013 62.645C132.813 68.083 132.723 73.53 132.692 78.978C134.325 78.492 137.909 78.267 141.613 83.599C141.942 84.0716 142.19 84.5953 142.347 85.149C143.257 88.2578 143.42 91.5374 142.822 94.721C142.704 95.2417 142.467 95.7281 142.13 96.1423C141.793 96.5565 141.365 96.8873 140.879 97.109C139.305 97.828 136.517 99.115 132.847 100.809C132.93 105.491 133.567 126.527 133.612 127.975C133.624 128.357 133.536 128.875 133.912 129.122C134.534 129.522 143.537 129.122 149.159 129.205C149.403 129.239 149.651 129.236 149.893 129.194C150.307 129.061 150.329 128.688 150.337 128.316C150.583 116.892 150.083 116.954 150.007 111.757Z" fill="#0078DB"/>
<path d="M177.948 5.37778C178.103 5.68362 178.188 6.0199 178.198 6.36255C178.208 6.70519 178.142 7.04574 178.004 7.35982C177.867 7.6739 177.662 7.95375 177.404 8.17934C177.146 8.40494 176.841 8.5707 176.511 8.66478C176.244 8.69281 175.992 8.80125 175.787 8.97578C175.743 9.02327 175.718 9.08605 175.718 9.15128C175.718 9.21651 175.743 9.27929 175.787 9.32678C176.571 9.94978 177.853 8.97478 178.34 8.32678C178.683 7.87411 178.883 7.32929 178.915 6.76218C178.946 6.19507 178.807 5.63151 178.516 5.14378C178.335 4.84778 177.827 5.04578 177.948 5.37778Z" fill="#FF4D4D"/>
<path d="M179.384 5.81219C179.21 6.17739 179.156 6.58844 179.231 6.98613C179.305 7.38383 179.504 7.74764 179.798 8.02519C180.292 8.48119 181.562 8.91819 182.02 8.22519C182.04 8.18997 182.052 8.1507 182.055 8.11027C182.058 8.06983 182.052 8.02926 182.037 7.99155C182.022 7.95384 181.999 7.91995 181.969 7.89237C181.94 7.86479 181.904 7.84422 181.865 7.83219C181.632 7.80833 181.396 7.81877 181.165 7.86319C180.946 7.86064 180.73 7.8059 180.536 7.70348C180.341 7.60107 180.174 7.45392 180.048 7.27418C179.922 7.09444 179.84 6.88727 179.81 6.66975C179.779 6.45224 179.801 6.23062 179.873 6.02319C179.948 5.72819 179.52 5.52319 179.384 5.81219Z" fill="#FF4D4D"/>
<path d="M177.028 10.4738C177.263 10.39 177.515 10.3661 177.762 10.4043C178.008 10.4425 178.241 10.5415 178.44 10.6924C178.638 10.8433 178.796 11.0413 178.899 11.2686C179.002 11.4958 179.046 11.745 179.028 11.9938C178.968 12.2378 178.986 12.4945 179.079 12.7278C179.1 12.762 179.132 12.7886 179.169 12.8035C179.206 12.8185 179.247 12.821 179.286 12.8108C180.194 12.5568 179.697 11.0458 179.296 10.5668C179.008 10.2175 178.607 9.97917 178.162 9.89254C177.717 9.80591 177.256 9.87634 176.857 10.0918C176.646 10.2078 176.79 10.5258 177.028 10.4738Z" fill="#FF4D4D"/>
<path d="M181.659 9.52256C180.081 9.35756 179.373 11.5376 180.408 12.0966C180.436 12.1115 180.469 12.118 180.501 12.1153C180.533 12.1127 180.564 12.1009 180.59 12.0815C180.616 12.0621 180.636 12.0357 180.648 12.0055C180.659 11.9752 180.662 11.9423 180.656 11.9106C180.543 11.1766 180.717 10.0636 181.669 9.98856C181.73 9.98723 181.789 9.96141 181.832 9.91678C181.875 9.87215 181.898 9.81236 181.897 9.75056C181.895 9.68877 181.87 9.63003 181.825 9.58727C181.78 9.54451 181.72 9.52123 181.659 9.52256Z" fill="#FF4D4D"/>
<path d="M145.944 12.6757C145.91 13.0173 145.802 13.3473 145.626 13.6422C145.451 13.9372 145.212 14.1899 144.928 14.3823C144.644 14.5748 144.321 14.7023 143.982 14.7557C143.643 14.8092 143.296 14.7873 142.967 14.6917C142.724 14.5683 142.449 14.5249 142.181 14.5677C142.119 14.5827 142.064 14.6212 142.03 14.675C141.995 14.7288 141.983 14.7939 141.995 14.8567C142.324 15.8017 143.929 15.6637 144.683 15.3737C145.21 15.1656 145.666 14.8085 145.995 14.346C146.323 13.8835 146.51 13.3355 146.533 12.7687C146.536 12.695 146.512 12.6226 146.465 12.5654C146.419 12.5082 146.353 12.4703 146.28 12.4588C146.207 12.4472 146.132 12.463 146.07 12.503C146.008 12.5431 145.963 12.6045 145.944 12.6757Z" fill="#FF4D4D"/>
<path d="M146.936 13.8127C146.594 14.0299 146.329 14.3504 146.181 14.7279C146.032 15.1054 146.007 15.5203 146.11 15.9127C146.284 16.5637 147.126 17.6127 147.888 17.2667C147.924 17.2474 147.954 17.2203 147.978 17.1875C148.002 17.1547 148.017 17.1169 148.024 17.0771C148.031 17.0373 148.029 16.9964 148.018 16.9575C148.007 16.9187 147.987 16.8828 147.96 16.8527C147.773 16.7096 147.568 16.5916 147.35 16.5017C147.166 16.3825 147.012 16.2209 146.903 16.0302C146.793 15.8396 146.731 15.6256 146.721 15.406C146.711 15.1864 146.754 14.9677 146.846 14.7681C146.938 14.5685 147.077 14.3938 147.25 14.2587C147.459 14.0457 147.206 13.6387 146.936 13.8127Z" fill="#FF4D4D"/>
<path d="M142.45 16.5002C142.694 16.5546 142.921 16.669 143.109 16.8332C143.298 16.9973 143.442 17.206 143.529 17.4401C143.617 17.6743 143.644 17.9266 143.609 18.1741C143.574 18.4215 143.478 18.6564 143.329 18.8572C143.15 19.0332 143.031 19.2609 142.988 19.5082C142.985 19.55 142.997 19.5916 143.021 19.6256C143.046 19.6597 143.082 19.6839 143.122 19.6942C144.022 19.9422 144.406 18.4222 144.332 17.8022C144.278 17.3512 144.067 16.9335 143.737 16.6219C143.406 16.3103 142.977 16.1246 142.523 16.0972C142.473 16.0936 142.422 16.1089 142.382 16.14C142.342 16.1712 142.315 16.216 142.306 16.266C142.297 16.3159 142.307 16.3674 142.333 16.4107C142.36 16.4539 142.402 16.4858 142.45 16.5002Z" fill="#FF4D4D"/>
<path d="M146.874 18.1547C145.656 17.1857 143.874 18.5936 144.435 19.6636C144.45 19.6933 144.474 19.7176 144.504 19.7335C144.533 19.7493 144.567 19.756 144.6 19.7527C144.633 19.7494 144.665 19.7362 144.691 19.7148C144.716 19.6934 144.735 19.6648 144.745 19.6326C145.045 18.9606 145.779 18.1136 146.616 18.5476C146.668 18.5819 146.731 18.594 146.792 18.5813C146.853 18.5687 146.907 18.5323 146.941 18.4801C146.975 18.428 146.987 18.3645 146.975 18.3034C146.962 18.2424 146.926 18.1889 146.874 18.1547Z" fill="#FF4D4D"/>
<path d="M176.635 25.4114C176.602 25.753 176.493 26.0831 176.318 26.3782C176.143 26.6732 175.904 26.926 175.62 27.1185C175.336 27.3109 175.013 27.4384 174.674 27.4918C174.334 27.5452 173.988 27.5232 173.658 27.4274C173.416 27.304 173.141 27.2606 172.872 27.3034C172.81 27.3186 172.756 27.3572 172.721 27.4112C172.687 27.4652 172.674 27.5304 172.686 27.5934C173.015 28.5384 174.619 28.3994 175.374 28.1094C175.901 27.9016 176.356 27.5453 176.685 27.0838C177.013 26.6222 177.201 26.0753 177.224 25.5094C177.229 25.4351 177.206 25.3616 177.16 25.3032C177.114 25.2448 177.047 25.2057 176.974 25.1935C176.901 25.1813 176.825 25.1968 176.763 25.2371C176.7 25.2774 176.655 25.3395 176.635 25.4114Z" fill="#FF4D4D"/>
<path d="M177.627 26.5494C177.284 26.7664 177.019 27.0869 176.87 27.4644C176.722 27.8419 176.697 28.2569 176.8 28.6494C176.975 29.3014 177.816 30.3494 178.578 30.0034C178.613 29.9843 178.644 29.9574 178.668 29.9247C178.691 29.892 178.707 29.8544 178.714 29.8146C178.721 29.7749 178.719 29.7341 178.708 29.6952C178.697 29.6564 178.678 29.6206 178.651 29.5904C178.464 29.4466 178.259 29.3283 178.041 29.2384C177.856 29.1194 177.702 28.9578 177.593 28.7672C177.483 28.5765 177.421 28.3624 177.411 28.1428C177.401 27.9231 177.444 27.7043 177.536 27.5047C177.628 27.3051 177.767 27.1304 177.941 26.9954C178.149 26.7814 177.9 26.3744 177.627 26.5494Z" fill="#FF4D4D"/>
<path d="M173.141 29.2257C173.384 29.2801 173.611 29.3945 173.799 29.5587C173.988 29.7229 174.132 29.9315 174.22 30.1657C174.307 30.3999 174.334 30.6521 174.299 30.8996C174.265 31.1471 174.168 31.3819 174.02 31.5827C173.84 31.7586 173.721 31.9863 173.678 32.2337C173.675 32.2756 173.687 32.317 173.712 32.3509C173.736 32.3848 173.772 32.4091 173.813 32.4197C174.718 32.6677 175.097 31.1477 175.022 30.5277C174.967 30.0775 174.755 29.6607 174.425 29.3501C174.094 29.0394 173.665 28.8546 173.213 28.8277C172.965 28.7917 172.925 29.1507 173.141 29.2257Z" fill="#FF4D4D"/>
<path d="M177.575 30.89C176.38 29.919 174.575 31.32 175.136 32.399C175.151 32.4287 175.175 32.453 175.205 32.4689C175.234 32.4847 175.268 32.4914 175.301 32.4881C175.334 32.4848 175.366 32.4715 175.392 32.4502C175.417 32.4288 175.436 32.4002 175.446 32.368C175.746 31.696 176.484 30.84 177.327 31.283C177.379 31.3106 177.439 31.3176 177.496 31.3025C177.553 31.2874 177.602 31.2513 177.633 31.2016C177.664 31.1519 177.676 31.0921 177.665 31.0344C177.654 30.9766 177.622 30.925 177.575 30.89Z" fill="#FF4D4D"/>
<path d="M104.772 116.863C105.494 125.887 106.806 134.871 107.925 143.853C109.038 152.795 112.556 183.372 113.031 185.884C113.131 186.431 114.077 186.431 114.054 185.832C113.962 183.405 107.774 130.443 105.361 116.732C105.3 116.357 104.741 116.481 104.772 116.863Z" fill="#202020"/>
<path d="M54.6272 133.454C54.6391 133.119 54.5705 132.786 54.4272 132.482C54.3993 132.436 54.3612 132.397 54.3159 132.367C54.2706 132.337 54.2192 132.318 54.1656 132.312C54.1119 132.305 54.0574 132.31 54.006 132.327C53.9547 132.344 53.9079 132.373 53.8692 132.41C53.3922 132.987 53.6262 134.176 53.8492 134.839C53.8861 134.968 53.9722 135.077 54.0888 135.143C54.2055 135.208 54.3433 135.225 54.4724 135.19C54.6016 135.155 54.7116 135.07 54.7787 134.954C54.8459 134.839 54.8647 134.701 54.8312 134.571C54.7572 134.189 54.6712 133.826 54.6272 133.454Z" fill="#202020"/>
<path d="M93.9278 138.612C88.8338 138.362 88.1198 137.547 87.7978 138.24C84.8091 144.328 81.3928 150.196 77.5748 155.8C75.3108 150.528 72.9098 145.156 68.6018 141.225C66.3759 139.128 63.6669 137.611 60.7148 136.811C55.7268 135.504 47.5408 134.698 42.6258 135.88C42.1498 135.995 42.3568 136.7 42.8258 136.614C45.5568 136.114 53.0468 136.16 59.1888 137.555C62.1879 138.107 64.9774 139.473 67.2518 141.504C68.9528 142.961 70.4422 144.649 71.6768 146.517C74.4543 150.919 76.6239 155.676 78.1268 160.658C79.0648 164.084 78.8838 165.234 79.3158 165.785C79.4698 165.985 79.8238 166.065 79.9568 165.785C80.1632 164.93 80.1198 164.033 79.8318 163.201C79.443 161.095 78.8298 159.037 78.0028 157.061C81.911 151.334 85.4515 145.364 88.6028 139.188C90.1626 139.486 91.741 139.676 93.3268 139.757C93.2276 145.122 92.6496 150.468 91.5998 155.73C90.6578 160.785 89.2998 165.768 86.2248 169.985C79.3488 179.427 70.2908 178.385 62.8738 169.53C59.0388 164.955 57.0188 159.65 55.1418 155.968C55.0837 155.874 54.9941 155.804 54.8889 155.77C54.7837 155.736 54.6699 155.741 54.5679 155.783C54.4658 155.826 54.3822 155.903 54.332 156.001C54.2817 156.1 54.2682 156.213 54.2938 156.32C55.1167 158.628 56.1119 160.87 57.2708 163.028C60.6228 169.457 65.7428 175.985 72.8078 177.5C77.8768 178.587 82.0778 176.452 85.5078 172.652C89.1588 168.612 91.0888 163.607 92.2168 158.346C93.6414 152.066 94.3966 145.652 94.4698 139.212C94.4769 139.137 94.4681 139.06 94.4442 138.988C94.4202 138.916 94.3815 138.85 94.3306 138.793C94.2796 138.737 94.2175 138.692 94.1482 138.661C94.0788 138.629 94.0038 138.613 93.9278 138.612Z" fill="#0078DB"/>
<path d="M69.3675 177.066C66.2675 189.712 62.9675 192.385 62.4625 194.556C62.4438 194.633 62.4506 194.714 62.4818 194.787C62.513 194.86 62.567 194.921 62.6357 194.96C62.7044 195 62.7841 195.016 62.8628 195.007C62.9415 194.998 63.0151 194.963 63.0725 194.908C64.5785 193.742 69.2915 184.788 70.1015 177.159C70.1455 176.746 69.4645 176.674 69.3675 177.066Z" fill="#0078DB"/>
<path d="M32.4753 156.878C32.2993 156.495 31.7943 156.733 31.7613 157.078C31.5543 159.237 33.5663 166.535 31.7203 179.293C31.1863 182.979 30.6973 184.163 30.6973 185.381C30.6989 185.452 30.7234 185.52 30.7672 185.576C30.811 185.632 30.8716 185.672 30.9401 185.691C31.0086 185.709 31.0813 185.705 31.1473 185.679C31.2133 185.653 31.269 185.606 31.3063 185.546C31.6783 184.708 31.9424 183.826 32.0923 182.921C34.6653 172 33.5843 159.3 32.4753 156.878Z" fill="#0078DB"/>
<path d="M29.6727 181.583C27.2847 181.659 24.9067 182.227 22.5407 181.542C21.487 181.204 20.5352 180.607 19.7728 179.805C19.0104 179.003 18.4619 178.022 18.1777 176.952C16.8707 172.709 18.8777 165.821 20.6277 161.752C22.6847 156.952 23.9667 156.152 24.6177 154.216C24.7177 153.916 24.3177 153.577 24.0597 153.782C23.088 154.678 22.2924 155.747 21.7137 156.935C18.6907 162.119 15.4137 171.355 16.9137 176.947C18.4907 182.804 23.9767 184.196 29.7317 182.198C30.0657 182.079 30.0347 181.572 29.6727 181.583Z" fill="#0078DB"/>
<path d="M72.1 121.784C71.7425 120.505 71.1151 119.317 70.26 118.3C69.984 117.957 69.694 117.509 69.268 117.37C69.1975 117.345 69.1212 117.34 69.0479 117.355C68.9745 117.371 68.9071 117.407 68.8532 117.459C68.7992 117.511 68.7611 117.577 68.743 117.65C68.7249 117.723 68.7277 117.799 68.751 117.87C68.884 118.331 69.139 118.321 70.012 119.576C70.457 120.214 71.47 121.863 71.098 122.553C70.883 122.953 70.498 123.029 69.351 123.71C69.602 122.078 67.967 119.174 66.251 118.428C66.24 118.428 66.23 118.418 66.22 118.418C66.406 118.325 66.592 118.232 66.767 118.159C67.295 117.942 68.117 117.852 68.359 117.291C68.3946 117.204 68.3951 117.105 68.3606 117.017C68.326 116.929 68.2588 116.857 68.173 116.816C67.625 116.506 66.718 117.068 66.209 117.322C65.6665 117.542 65.1717 117.865 64.752 118.273C64.4979 118.366 64.2852 118.545 64.152 118.78C63.973 119.046 64.142 119.555 64.535 119.462C65.0611 119.367 65.6039 119.445 66.0825 119.683C66.5611 119.922 66.9499 120.308 67.191 120.785C67.691 121.497 68.546 122.925 68.122 123.834C67.9981 124.036 67.8052 124.187 67.5789 124.257C67.3527 124.328 67.1086 124.313 66.892 124.217C65.739 123.84 64.879 121.751 64.492 120.578C64.351 120.282 64.2805 119.956 64.286 119.627C64.35 119.318 63.874 119.08 63.696 119.369C63.513 119.747 63.424 120.163 63.4367 120.582C63.4495 121.002 63.5634 121.412 63.769 121.777C64.0614 122.679 64.5091 123.522 65.092 124.269C65.96 125.302 67.666 125.943 68.741 124.94C69.5937 124.632 70.4113 124.234 71.18 123.752C71.5194 123.561 71.7905 123.269 71.9555 122.916C72.1204 122.563 72.1709 122.167 72.1 121.784Z" fill="#202020"/>
<path d="M187.923 14.1646C182.994 14.9906 178.123 16.3316 173.255 17.4726C168.387 18.6136 156.363 21.4086 155.255 21.6996C152.799 22.3476 152.392 23.7136 151.213 25.9176C146.104 35.5015 141.716 45.4527 138.085 55.6886C126.474 48.1316 114.895 39.6386 106.34 32.7506C106.223 32.656 106.073 32.6115 105.924 32.6269C105.774 32.6422 105.636 32.7162 105.54 32.8326C99.3965 42.4106 93.2414 51.9689 87.0754 61.5076C76.8094 53.8996 76.6005 52.2996 75.9115 52.9386C65.5925 62.5996 62.1604 64.7206 57.0564 69.3126C56.9932 69.3639 56.952 69.4374 56.9413 69.5181C56.9305 69.5988 56.951 69.6805 56.9985 69.7466C57.0461 69.8127 57.1171 69.8581 57.197 69.8735C57.2769 69.8889 57.3597 69.8732 57.4285 69.8296C62.7385 66.2946 71.6074 58.3896 76.2284 54.1066C79.6394 57.1456 83.2104 59.9956 86.8654 62.7276C86.9216 62.7734 86.9863 62.8077 87.0558 62.8283C87.1253 62.849 87.1982 62.8556 87.2703 62.8479C87.3424 62.8402 87.4122 62.8183 87.4757 62.7834C87.5393 62.7485 87.5953 62.7013 87.6404 62.6446C93.6914 53.0446 99.9524 43.5626 106.102 34.0326C117.066 42.7776 127.946 50.5566 138.002 57.0426C138.073 57.098 138.155 57.1369 138.242 57.1566C138.329 57.1763 138.42 57.1762 138.507 57.1564C138.594 57.1365 138.676 57.0974 138.746 57.0419C138.816 56.9864 138.873 56.9159 138.912 56.8356C142.719 46.1041 147.329 35.6746 152.702 25.6356C153.069 24.6423 153.742 23.7914 154.624 23.2066C155.692 22.7946 156.801 22.4998 157.932 22.3276C158.038 22.3036 185.475 15.9486 188.147 15.1276C188.259 15.0834 188.35 15.0007 188.406 14.8947C188.461 14.7887 188.477 14.6663 188.449 14.5498C188.422 14.4333 188.354 14.3304 188.258 14.2597C188.161 14.189 188.043 14.1553 187.923 14.1646Z" fill="#202020"/>
<path d="M74.6389 51.9468C74.3477 52.3219 74.1719 52.7736 74.1329 53.2468C73.9845 53.6453 73.9598 54.0793 74.0618 54.4921C74.1638 54.9048 74.3879 55.2773 74.7047 55.5608C75.0216 55.8443 75.4166 56.0258 75.8382 56.0814C76.2597 56.1371 76.6883 56.0644 77.0679 55.8728C77.3426 55.7199 77.5839 55.5137 77.7779 55.2662C77.9718 55.0188 78.1143 54.7351 78.1971 54.4318C78.2799 54.1285 78.3013 53.8117 78.2601 53.5001C78.2188 53.1884 78.1157 52.8881 77.9569 52.6168C77.3119 51.5088 75.5999 50.8078 74.6389 51.9468Z" fill="#FF4D4D"/>
<path d="M104.565 31.19C104.274 31.5652 104.098 32.0168 104.058 32.49C103.91 32.8886 103.886 33.3225 103.988 33.7351C104.09 34.1478 104.314 34.5201 104.631 34.8036C104.948 35.087 105.343 35.2684 105.764 35.3241C106.186 35.3798 106.614 35.3073 106.994 35.116C107.269 34.9631 107.51 34.7568 107.704 34.5094C107.898 34.2619 108.041 33.9782 108.123 33.6749C108.206 33.3717 108.228 33.0549 108.186 32.7432C108.145 32.4316 108.042 32.1313 107.883 31.86C107.238 30.752 105.524 30.051 104.565 31.19Z" fill="#FF4D4D"/>
<path d="M156.136 21.721C155.494 20.616 153.778 19.921 152.829 21.049C152.538 21.424 152.362 21.8757 152.322 22.349C152.174 22.7476 152.149 23.1816 152.251 23.5943C152.354 24.0071 152.578 24.3795 152.895 24.6629C153.212 24.9463 153.607 25.1276 154.028 25.1831C154.45 25.2386 154.879 25.1657 155.258 24.974C155.531 24.8202 155.771 24.6134 155.964 24.3657C156.157 24.1181 156.298 23.8346 156.38 23.5317C156.461 23.2289 156.482 22.9128 156.44 22.6019C156.398 22.291 156.295 21.9915 156.136 21.721Z" fill="#FF4D4D"/>
<path d="M136.91 54.665C136.619 55.0404 136.443 55.4918 136.403 55.965C136.255 56.3636 136.23 56.7976 136.332 57.2103C136.435 57.6231 136.659 57.9955 136.976 58.2789C137.293 58.5623 137.688 58.7436 138.109 58.7991C138.531 58.8546 138.96 58.7817 139.339 58.59C139.614 58.4371 139.855 58.2309 140.049 57.9834C140.243 57.736 140.386 57.4523 140.468 57.149C140.551 56.8457 140.573 56.5289 140.531 56.2173C140.49 55.9056 140.387 55.6053 140.228 55.334C139.583 54.228 137.861 53.529 136.91 54.665Z" fill="#FF4D4D"/>
<path d="M85.5857 60.2473C85.2941 60.6222 85.1183 61.0739 85.0797 61.5473C84.9316 61.9457 84.9071 62.3795 85.0092 62.7921C85.1114 63.2047 85.3355 63.577 85.6523 63.8603C85.9691 64.1437 86.364 64.325 86.7854 64.3806C87.2068 64.4363 87.6352 64.3637 88.0147 64.1723C88.2893 64.0193 88.5306 63.813 88.7244 63.5655C88.9182 63.318 89.0607 63.0344 89.1435 62.7311C89.2263 62.4279 89.2478 62.1111 89.2066 61.7995C89.1654 61.4879 89.0624 61.1876 88.9037 60.9163C88.2657 59.8123 86.5427 59.1163 85.5857 60.2473Z" fill="#FF4D4D"/>
<path d="M91.4779 113.576C94.0519 118.45 95.6949 122.634 95.5099 128.244C95.4099 131.369 94.8199 132.218 95.0099 133.299C95.0819 133.699 95.5989 133.661 95.7949 133.399C96.2203 132.608 96.4475 131.725 96.4569 130.826C97.2569 124.866 95.8089 117.665 91.9809 113.201C91.7369 112.914 91.3209 113.278 91.4779 113.576Z" fill="#202020"/>
<path d="M87.8909 113.69C89.9179 116.657 91.2909 118.903 91.9849 122.569C92.3419 124.444 92.1769 124.985 92.5739 125.722C92.6039 125.773 92.6469 125.816 92.6986 125.845C92.7502 125.875 92.8088 125.891 92.8684 125.891C92.9279 125.891 92.9865 125.875 93.0382 125.845C93.0898 125.816 93.1328 125.773 93.1629 125.722C93.4523 124.649 93.4273 123.515 93.0909 122.456C92.4694 119.007 90.8567 115.813 88.4499 113.266C88.1639 112.983 87.6519 113.339 87.8909 113.69Z" fill="#202020"/>
<path d="M85.8338 116.718C87.2865 118.675 88.3051 120.92 88.8218 123.303C88.8965 124.121 89.117 124.919 89.4728 125.66C89.512 125.723 89.5688 125.774 89.6362 125.806C89.7037 125.838 89.7789 125.85 89.8529 125.84C89.9269 125.83 89.9964 125.799 90.0532 125.75C90.1099 125.702 90.1515 125.638 90.1728 125.567C90.2718 124.701 90.1582 123.825 89.8418 123.014C89.3185 120.497 88.1069 118.174 86.3418 116.305C86.0818 116.088 85.5998 116.407 85.8338 116.718Z" fill="#202020"/>
<path d="M83.5194 120.068C85.4194 123.377 87.8804 126.279 88.6564 130.281C88.8352 131.6 88.9387 132.928 88.9664 134.26C89.0404 134.705 89.6894 134.632 89.8044 134.26C90.0877 132.906 90.0535 131.505 89.7044 130.167C88.9484 126.226 86.4204 122.867 83.9884 119.706C83.7724 119.431 83.3534 119.779 83.5194 120.068Z" fill="#202020"/>
<path d="M102.88 117.349C101.322 122.91 90.0093 182.585 89.5663 185.594C89.4663 186.287 90.5153 186.617 90.6663 185.894C91.5663 181.457 92.2783 176.973 93.0953 172.518C93.9123 168.063 103.395 120.138 103.783 117.607C103.869 117.018 103.045 116.76 102.88 117.349Z" fill="#202020"/>
<path d="M87.1678 129.288C86.8778 128.327 86.504 127.393 86.0508 126.497C86.0508 126.621 86.0598 126.745 86.0618 126.869C86.0928 128.637 85.8998 129.288 87.1678 129.288Z" fill="#0078DB"/>
<path d="M96.3574 118.238C97.6298 121.751 98.1854 125.484 97.9914 129.216C98.1774 129.216 98.3634 129.216 98.5394 129.206C100.033 123.014 101.024 119.337 102.146 115.468C100.223 116.377 98.2904 117.308 96.3574 118.238Z" fill="#0078DB"/>
<path d="M139.153 95.2168C138.166 95.5386 137.197 95.9114 136.248 96.3338C135.278 96.7928 101.66 112.553 95.1582 115.757C95.2302 115.895 95.6062 116.631 95.6862 116.843C97.4322 115.985 135.38 98.1007 136.465 97.5847C137.53 97.0777 138.502 96.4897 139.515 95.8787C139.908 95.6417 139.535 95.0828 139.153 95.2168Z" fill="#202020"/>
<path d="M141.778 87.8375C141.261 85.5447 139.959 83.5045 138.098 82.0695C137.171 81.3082 136.108 80.7293 134.966 80.3635C133.488 79.9805 132.072 80.8815 130.766 81.4495C111.666 89.7695 98.9276 95.1265 87.1126 101.149C83.9906 102.741 71.6796 109.378 70.9456 109.801C70.1186 110.277 69.3656 110.828 68.5676 111.331C68.5295 111.355 68.4987 111.389 68.4787 111.429C68.4587 111.469 68.4504 111.514 68.4546 111.558C66.7546 111.693 65.5716 113.739 65.8596 115.393C65.9016 115.631 66.2596 115.724 66.3596 115.466C66.6926 114.536 66.7226 113.534 67.5696 112.871C68.4796 112.159 69.4126 112.671 70.2056 113.285C71.7256 114.553 72.941 116.146 73.7616 117.947C74.8238 119.779 75.4135 121.847 75.4776 123.963C75.4466 124.841 75.3426 126.21 74.1776 126.163C73.688 126.12 73.2232 125.929 72.8446 125.615C72.4826 125.335 72.2446 124.943 71.9036 124.653C71.8366 124.604 71.7567 124.574 71.6734 124.569C71.5901 124.563 71.507 124.582 71.4339 124.622C71.3608 124.662 71.301 124.723 71.2614 124.796C71.2218 124.87 71.2042 124.953 71.2106 125.036C71.5906 126.922 75.1286 128.281 76.1726 125.894C78.7085 125.248 81.1498 124.275 83.4356 123C83.2154 122.675 83.0151 122.337 82.8356 121.987C80.7506 123.081 78.6115 124.068 76.4266 124.944C77.1726 119.964 72.4146 112.521 69.3146 111.63H69.3036C69.8316 111.413 70.3686 111.216 70.8756 110.958C91.5826 100.424 85.7116 102.116 132.856 81.8585C133.177 81.6738 133.534 81.5591 133.902 81.5217C134.271 81.4843 134.644 81.5251 134.996 81.6415C136.784 82.3578 138.311 83.6037 139.372 85.2123C140.432 86.8209 140.976 88.7153 140.93 90.6415C140.87 91.9746 140.626 93.293 140.206 94.5595C139.989 95.3035 141.106 95.8005 141.322 95.0595C142.085 92.4415 142.49 90.6865 141.778 87.8375Z" fill="#202020"/>
<path d="M59.0816 124.833C59.0816 124.875 59.0899 124.917 59.1061 124.956C59.1222 124.995 59.1459 125.03 59.1757 125.06C59.2055 125.09 59.2409 125.113 59.2799 125.129C59.3188 125.145 59.3605 125.153 59.4026 125.153C60.4256 125.148 60.4026 123.623 60.1356 122.953C59.6846 121.835 58.5546 121.278 57.9236 120.306C57.8236 120.206 57.7326 119.451 56.8286 117.371C57.9866 114.822 56.7426 111.649 53.2416 110.827C51.4004 110.129 49.4131 109.905 47.4626 110.176C40.2626 111.098 36.6376 116.805 37.8186 121.743C36.8385 122.689 36.1486 123.894 35.8297 125.218C35.5109 126.542 35.5764 127.929 36.0186 129.217C35.2801 129.419 34.5905 129.77 33.9921 130.247C33.3936 130.725 32.8988 131.32 32.5379 131.995C32.177 132.67 31.9576 133.412 31.8931 134.175C31.8285 134.938 31.9203 135.706 32.1626 136.432C30.582 136.959 29.1899 137.936 28.1577 139.244C27.1256 140.551 26.4984 142.133 26.3536 143.792C25.1764 143.948 24.055 144.39 23.0871 145.078C22.1192 145.766 21.3339 146.68 20.7996 147.74C20.6056 148.134 20.5126 148.568 20.3246 148.96C19.9416 149.754 19.2406 149.112 14.2146 150.541C13.7386 150.618 13.2862 150.802 12.8916 151.079C12.0966 151.824 12.8396 152.879 13.2636 153.591C13.8426 154.563 14.4696 155.496 15.1346 156.402C15.2175 156.533 15.3465 156.628 15.4959 156.668C15.6453 156.708 15.8044 156.691 15.9416 156.619C17.3846 155.991 18.6541 155.023 19.6416 153.797C20.1076 153.219 20.4996 152.504 21.2856 152.371C22.0196 152.246 22.7636 152.391 23.5076 152.271C24.7308 152.038 25.8553 151.442 26.7348 150.56C27.6143 149.679 28.208 148.553 28.4386 147.329C29.3594 147.336 30.2716 147.152 31.1177 146.789C31.9639 146.426 32.7258 145.892 33.3552 145.22C33.9847 144.548 34.4681 143.753 34.775 142.885C35.082 142.017 35.2058 141.095 35.1386 140.176C35.9177 140.131 36.6794 139.928 37.3778 139.58C38.0762 139.231 38.6966 138.745 39.2016 138.15C40.2793 136.821 41.0363 135.261 41.4136 133.591C43.3634 134.025 45.3995 133.848 47.2452 133.084C49.0908 132.321 50.6566 131.007 51.7296 129.322C52.2303 128.658 52.5123 127.854 52.5366 127.022C52.8807 127.13 53.2429 127.167 53.6017 127.131C53.9604 127.095 54.3083 126.988 54.6246 126.815C56.1506 126.009 55.7556 124.909 55.1726 125.058C54.7376 125.169 54.5416 125.636 54.1596 125.864C53.7883 126.067 53.3608 126.142 52.9425 126.079C52.5242 126.016 52.1382 125.817 51.8436 125.513C51.5358 125.122 51.3602 124.642 51.3422 124.145C51.3242 123.647 51.4648 123.156 51.7436 122.743C51.959 122.488 52.2632 122.323 52.5949 122.283C52.9267 122.243 53.2613 122.33 53.5316 122.526C54.1096 123.054 54.9646 122.209 54.3896 121.668C54.1554 121.446 53.8991 121.248 53.6246 121.078C54.661 120.294 55.5715 119.357 56.3246 118.298C57.4174 121.75 58.0873 125.321 58.3196 128.934C58.3446 130.669 57.8196 131.369 55.7256 131.312C54.9032 131.209 54.0882 131.054 53.2856 130.847C53.1769 130.821 53.0625 130.835 52.9628 130.885C52.863 130.936 52.7844 131.02 52.741 131.123C52.6975 131.226 52.6921 131.341 52.7255 131.447C52.7589 131.554 52.8291 131.645 52.9236 131.705C53.7015 132.142 54.5687 132.394 55.4592 132.444C56.3496 132.495 57.2397 132.341 58.0616 131.994C59.5796 131.144 59.4866 129.294 59.3536 127.794C59.1854 125.796 58.851 123.814 58.3536 121.871C58.5536 122.109 58.7476 122.335 58.9426 122.595C59.8996 123.874 59.1606 124.215 59.0816 124.833ZM37.8076 128.441C37.2436 129.005 36.1936 127.111 36.8566 125.784C36.9806 125.536 37.3026 125.684 37.3226 125.908C37.3277 126.301 37.3692 126.692 37.4466 127.076C37.5736 127.541 38.0996 128.21 37.8076 128.441ZM41.4466 114.455C41.2346 115.142 40.2976 115.93 40.1026 117.804C40.1262 118.194 40.0577 118.583 39.9026 118.941C39.8771 118.983 39.8414 119.017 39.7989 119.041C39.7563 119.065 39.7084 119.077 39.6596 119.077C39.6109 119.077 39.5629 119.065 39.5204 119.041C39.4778 119.017 39.4421 118.983 39.4166 118.941C38.9466 118.304 39.3986 116.999 39.6546 116.336C39.9366 115.603 40.3916 114.542 41.1636 114.227C41.2996 114.173 41.4996 114.28 41.4466 114.455Z" fill="#202020"/>
</svg>
