<svg width="64" height="65" viewBox="0 0 64 65" fill="none" xmlns="http://www.w3.org/2000/svg">
<g clip-path="url(#clip0_1855_425)">
<path fill-rule="evenodd" clip-rule="evenodd" d="M31.52 51.8067C26.4633 55.5714 21.1128 58.9243 15.52 61.8334C13.4805 62.9909 11.3034 63.8868 9.03995 64.5001C8.26058 64.6972 7.43869 64.6412 6.69329 64.3401C6.41867 64.17 6.2042 63.9182 6.07995 63.6201C5.69743 62.6351 5.44638 61.604 5.33329 60.5534C4.71995 55.4334 4.39995 44.3401 4.45329 33.2467C4.35481 24.092 4.78218 14.9391 5.73329 5.83341C5.84756 4.57606 6.22944 3.3577 6.85329 2.26007C7.82885 1.53815 9.0004 1.12903 10.2133 1.08674C17.7956 0.45178 25.4083 0.255898 33.0133 0.500072C40.6043 0.560527 48.1873 1.00554 55.7333 1.83341C56.6541 1.9337 57.5538 2.17661 58.4 2.55341C58.6035 2.6487 58.7847 2.78582 58.9317 2.95582C59.0788 3.12583 59.1883 3.3249 59.2533 3.54007C59.8666 5.32674 59.2533 19.5401 58.32 33.5934C57.5466 44.2601 56.56 55.1134 55.8133 60.2601C55.7078 61.4646 55.3824 62.6395 54.8533 63.7267C54.6464 63.9246 54.3974 64.0731 54.1248 64.1608C53.8523 64.2486 53.5634 64.2734 53.28 64.2334C50.8455 63.7347 48.5112 62.8335 46.3733 61.5667C41.1327 58.8138 36.1524 55.5918 31.4933 51.9401L31.52 51.8067ZM56.5866 4.98007C56.1333 4.98007 55.4666 4.98007 54.8266 4.79341C49.6266 4.10007 38.1866 3.64674 27.9466 3.56674C22.0025 3.41266 16.0544 3.60855 10.1333 4.15341L9.03995 4.36674C8.72671 5.59085 8.52148 6.84008 8.42662 8.10007C7.99995 12.5534 7.46662 19.6201 7.22662 27.1667C6.82662 39.5401 6.82662 53.3267 7.38662 59.6467C7.38662 60.8734 8.10662 62.0201 7.94662 62.3134C8.31692 62.2925 8.68368 62.2299 9.03995 62.1267C11.8234 61.2734 14.5059 60.12 17.04 58.6867C21.9504 56.1649 26.6266 53.211 31.0133 49.8601C32.2666 48.8734 31.44 50.3401 42.8266 56.9534C45.734 58.7178 48.7848 60.2343 51.9466 61.4867C52.3202 61.6156 52.7037 61.7137 53.0933 61.7801C53.0933 61.3267 53.5466 60.5534 53.6533 59.7001C54.3466 54.7401 55.1733 44.0201 55.7866 33.3001C56.5324 23.8173 56.7994 14.303 56.5866 4.79341V4.98007Z" fill="#FF4D4D"/>
<path fill-rule="evenodd" clip-rule="evenodd" d="M17.8933 32.3404C19.8194 34.3816 21.8582 36.3136 24 38.1271C25.1088 39.084 26.4884 39.6713 27.9467 39.8071C29.526 39.4968 30.949 38.6486 31.9733 37.4071C34.0366 35.2715 35.9104 32.9606 37.5733 30.5004C41.1855 25.343 44.2087 19.7974 46.5867 13.9671C46.6592 13.7402 46.6447 13.4945 46.5462 13.2776C46.4476 13.0608 46.2719 12.8883 46.0533 12.7938C45.9413 12.7511 45.822 12.7311 45.7022 12.7348C45.5824 12.7386 45.4645 12.766 45.3554 12.8156C45.2463 12.8652 45.1481 12.936 45.0665 13.0238C44.9849 13.1116 44.9215 13.2147 44.88 13.3271C42.5866 17.8582 39.9102 22.1851 36.88 26.2604C34.8923 29.1839 32.7469 31.9969 30.4533 34.6871C29.8292 35.4464 29.1326 36.143 28.3733 36.7671C28.16 36.9538 28.0533 37.1404 27.8933 37.1404C26.5878 37.003 25.3576 36.4624 24.3733 35.5938C22.5867 34.3404 20.6933 32.6338 18.8533 31.1404C18.7038 30.9939 18.5027 30.9117 18.2933 30.9117C18.0839 30.9117 17.8829 30.9939 17.7333 31.1404C17.585 31.2945 17.5022 31.5 17.5022 31.7138C17.5022 31.9276 17.585 32.1331 17.7333 32.2871L17.8933 32.3404Z" fill="#0078DB"/>
</g>
<defs>
<clipPath id="clip0_1855_425">
<rect width="64" height="64" fill="white" transform="translate(0 0.5)"/>
</clipPath>
</defs>
</svg>
