<svg width="38" height="40" viewBox="0 0 38 40" fill="none" xmlns="http://www.w3.org/2000/svg">
<path d="M29.2696 19.4823C29.1048 17.2908 28.3696 15.1808 27.1371 13.3613C24.5248 9.49275 19.7458 7.70792 15.2371 8.91709C10.7496 9.93892 7.34197 13.5984 6.6418 18.1473C6.51947 19.0058 6.51947 19.8773 6.6418 20.7356C6.7673 21.6284 7.0958 22.4806 7.6023 23.2264C8.49763 24.4961 9.8813 24.8543 10.5813 25.8473C10.8526 26.2303 10.9741 26.6993 10.9233 27.1659C10.9046 27.4088 11.0871 27.6206 11.3301 27.6379H11.786C12.9515 27.9599 14.1371 28.2046 15.3348 28.3704C15.8478 28.4354 16.3643 28.4681 16.8813 28.4681H18.4278C19.6161 28.4681 20.7883 28.2403 21.993 28.0774C22.2716 28.0686 22.4905 27.8353 22.4813 27.5566C22.4726 27.2711 22.2291 27.0496 21.9441 27.0681L18.4278 26.8728H16.9301H15.4325H11.9163H11.8186C11.8191 26.3318 11.6545 25.8036 11.3465 25.3589C10.679 24.3984 9.3278 23.9589 8.4813 22.6891C8.1088 22.0638 7.8808 21.3629 7.81397 20.6379C7.71313 19.8754 7.72413 19.1021 7.84647 18.3426C8.59047 14.3841 11.6626 11.2733 15.6116 10.4799C19.4598 9.48492 23.5173 11.0244 25.7371 14.3218C26.8001 15.8844 27.4396 17.6961 27.593 19.5799C27.7961 21.4074 27.203 23.2341 25.965 24.5938C25.7168 24.8404 25.456 25.0741 25.1836 25.2938C24.4511 25.8636 23.7185 26.3194 23.0023 26.9218C22.7373 27.1846 22.5416 27.5089 22.4325 27.8659C22.28 28.4006 22.1603 28.9443 22.0743 29.4938C22.0583 29.8684 21.934 30.2303 21.7161 30.5356C20.705 31.4031 19.4006 31.8514 18.0696 31.7891C16.0325 31.7263 14.0241 31.2904 12.1441 30.5031C12.2906 30.2426 12.1441 29.4449 12.1441 28.9566C12.1266 28.6753 11.8886 28.4589 11.607 28.4683C11.328 28.4856 11.1163 28.7264 11.1348 29.0054C11.1348 29.6566 11.021 30.4868 11.1348 30.8449C11.1798 31.0696 11.3318 31.2581 11.5418 31.3496C13.6306 32.3138 15.8856 32.8666 18.1836 32.9774C19.8396 33.0868 21.4733 32.5499 22.7418 31.4798C23.0026 31.2266 23.1981 30.9138 23.3116 30.5683C23.4823 30.0361 23.6128 29.4919 23.7023 28.9403C23.6945 28.6533 23.756 28.3684 23.8813 28.1101C24.5976 27.4914 25.3138 27.0844 26.0301 26.4821C26.368 26.2329 26.684 25.9551 26.9743 25.6519C28.5993 24.0264 29.4371 21.7746 29.2696 19.4823Z" fill="#FF4D4D"/>
<path d="M15.2371 23.2269C15.3348 22.2826 15.3999 21.3222 15.4813 20.3781C15.7356 20.6406 16.0261 20.8652 16.3441 21.0454C16.8641 21.3742 17.4711 21.5389 18.0859 21.5176C18.6578 21.5016 19.2168 21.3451 19.7138 21.0617V22.4129C19.7071 23.4712 19.7943 24.5281 19.9743 25.5709C19.9743 25.9129 20.7883 26.1244 20.9511 25.5709C20.8521 24.5206 20.8521 23.4632 20.9511 22.4129C21.1778 20.9824 21.4986 19.5686 21.9114 18.1804C22.0181 17.8566 21.8819 17.5026 21.5859 17.3339C21.2804 17.1011 20.8471 17.1437 20.5929 17.4316C20.5278 17.5111 20.4731 17.5986 20.4301 17.6919L20.2511 18.0501L19.8603 18.6849C19.6406 18.9914 19.3574 19.2467 19.0301 19.4337C18.7383 19.6207 18.3999 19.7222 18.0534 19.7269C17.6786 19.7237 17.3164 19.5916 17.0278 19.3524C16.6746 19.0959 16.3849 18.7617 16.1813 18.3757L15.8883 17.6431C15.8883 17.4966 15.7743 17.1384 15.7418 17.0407C15.5881 16.8359 15.3468 16.7152 15.0906 16.7152C14.8261 16.6469 14.5453 16.7279 14.3581 16.9269C13.8371 17.4804 14.2441 20.6059 14.0161 24.2361C14.0561 24.5877 14.0561 24.9427 14.0161 25.2942C14.0161 25.9779 14.7813 26.1734 14.9604 25.4571C15.1336 24.7259 15.2264 23.9781 15.2371 23.2269Z" fill="#0078DB"/>
<path d="M4.4605 10.4968C4.25884 10.2543 4.03534 10.031 3.793 9.82934L3.04417 9.27584C2.44184 8.88517 1.807 8.57584 1.17217 8.21767C0.941837 8.056 0.62467 8.10634 0.455837 8.33167C0.295837 8.55684 0.34667 8.86884 0.569837 9.03167C1.05817 9.53634 1.53034 10.041 2.035 10.5293C2.2465 10.741 2.45817 10.9525 2.66984 11.1317C2.8815 11.3108 3.10934 11.506 3.33717 11.6852C3.90117 12.0688 4.4445 12.4818 4.96517 12.9223C5.1365 13.092 5.4125 13.092 5.58367 12.9223C5.78867 12.7737 5.826 12.483 5.66517 12.2875C5.33367 11.6463 4.92934 11.0455 4.4605 10.4968Z" fill="#0078DB"/>
<path d="M10.9395 3.23607C11.0207 3.53641 11.1242 3.83024 11.2489 4.11507C11.3629 4.39191 11.4767 4.66857 11.6232 4.94541C11.9652 5.58024 12.372 6.15007 12.7302 6.80124C12.8989 7.10891 13.3374 7.11857 13.5195 6.81857C13.579 6.72074 13.5994 6.60407 13.5767 6.49191C13.4712 5.76241 13.3244 5.03957 13.1372 4.32674C13.0559 4.03374 12.9419 3.74074 12.8279 3.44774C12.7332 3.16341 12.619 2.88607 12.486 2.61741C12.0629 1.96624 11.672 1.38024 11.2977 0.745407C11.206 0.469074 10.9004 0.327407 10.6302 0.436074C10.3759 0.541241 10.2527 0.831074 10.3535 1.08724C10.5489 1.85241 10.7117 2.55241 10.9395 3.23607Z" fill="#0078DB"/>
<path d="M23.1 7.51788C23.3432 7.54638 23.5629 7.37071 23.5884 7.12721C23.8185 6.53504 24.0195 5.93204 24.1907 5.32021C24.272 4.96204 24.3045 4.58771 24.3534 4.22954C24.3684 3.68288 24.4282 3.13838 24.5325 2.60171C24.7392 2.24454 24.4819 1.79738 24.0692 1.79688C23.8777 1.79671 23.7005 1.89871 23.6045 2.06438C23.2587 2.56888 22.9797 3.11621 22.7744 3.69238C22.694 3.93771 22.6289 4.18788 22.579 4.44121C22.5629 4.69604 22.5629 4.95154 22.579 5.20638C22.579 5.82488 22.7092 6.37838 22.758 6.93188C22.686 7.18871 22.8409 7.45421 23.1 7.51788Z" fill="#0078DB"/>
<path d="M37.1 12.6451C36.3348 12.6451 35.6186 12.5312 34.8698 12.5312H33.9093C33.6 12.5312 33.2745 12.6451 32.9651 12.7266C32.2381 12.9709 31.5353 13.2814 30.8651 13.6544C30.518 13.7056 30.3565 14.1134 30.5745 14.3884C30.7145 14.5651 30.9625 14.6129 31.1581 14.5009C31.8906 14.3871 32.5745 14.3871 33.2745 14.3382L34.1535 14.2406L35.0488 14.0777C35.7488 13.9312 36.4326 13.7521 37.1651 13.6056C37.4425 13.5719 37.6476 13.3314 37.6371 13.0521C37.5883 12.7992 37.3566 12.6237 37.1 12.6451Z" fill="#0078DB"/>
<path d="M20.4953 34.7029C19.9531 34.7368 19.4095 34.7368 18.8673 34.7029C18.3465 34.7029 17.8255 34.6214 17.2395 34.5889L15.6116 34.5076C14.5371 34.5076 13.479 34.5076 12.3558 34.3936C12.1136 34.3428 11.8751 34.4946 11.8186 34.7354C11.7678 34.9776 11.9196 35.2161 12.1605 35.2726C13.073 35.6356 14.0153 35.9189 14.9766 36.1191C15.396 36.1948 15.8205 36.2383 16.2465 36.2494C16.6691 36.2819 17.0936 36.2819 17.5163 36.2494C18.5666 36.1636 19.6073 35.9838 20.6255 35.7121C20.9013 35.6624 21.0883 35.4034 21.0488 35.1261C21.007 34.8599 20.7631 34.6736 20.4953 34.7029Z" fill="#FF4D4D"/>
<path d="M18.7373 37.9919C18.1921 37.9759 17.6486 37.9271 17.1094 37.8454C16.7516 37.8211 16.3926 37.8211 16.0349 37.8454C15.3838 37.8454 14.7814 38.0081 14.1466 38.0732C13.9034 38.0447 13.6838 38.2204 13.6583 38.4639C13.6466 38.7109 13.8213 38.9277 14.0651 38.9686C14.6138 39.1786 15.1734 39.3579 15.7419 39.5057C15.9841 39.5491 16.2288 39.5762 16.4744 39.5872C16.7238 39.6039 16.9739 39.6039 17.2233 39.5872C17.8394 39.4682 18.4364 39.2656 18.9978 38.9849C19.3799 38.9034 19.5306 38.4387 19.2689 38.1486C19.1476 38.0137 18.9634 37.9541 18.7861 37.9919H18.7373Z" fill="#FF4D4D"/>
</svg>
