<svg width="64" height="65" viewBox="0 0 64 65" fill="none" xmlns="http://www.w3.org/2000/svg">
<g clip-path="url(#clip0_1855_2053)">
<path d="M63.6533 27.1668C63.355 24.4374 62.7375 21.7523 61.8133 19.1668C60.029 14.3813 56.8988 10.2139 52.8 7.16684C48.7697 4.14665 44.0143 2.24264 39.0133 1.64684C38.7708 1.62331 38.5284 1.69288 38.3353 1.84143C38.1422 1.98999 38.0128 2.20641 37.9733 2.44684C37.9504 2.68628 38.0208 2.92534 38.1698 3.11414C38.3189 3.30294 38.5351 3.4269 38.7733 3.46017C43.4421 4.11172 47.852 5.99904 51.5466 8.92684C55.2267 11.7986 58.0037 15.6679 59.5466 20.0735C60.4185 22.4789 61.0178 24.9745 61.3333 27.5135C61.5606 30.0596 61.5606 32.6208 61.3333 35.1668C61.0896 37.6784 60.5065 40.1453 59.6 42.5002C58.7178 44.8744 57.5635 47.1384 56.16 49.2468C53.1853 53.5008 48.9926 56.7547 44.1333 58.5802C39.2777 60.5192 34.0358 61.2954 28.8266 60.8468C25.9451 60.5994 23.1104 59.9625 20.4 58.9535C17.7132 57.9614 15.2152 56.5185 13.0133 54.6868C7.47826 49.7769 3.89937 43.0357 2.9333 35.7002C1.7075 28.353 3.41171 20.8181 7.67996 14.7135C9.93687 11.5793 12.7584 8.89337 16 6.7935C19.2856 4.75507 23.0023 3.51312 26.8533 3.16684C28.7466 2.98017 30.6133 2.82017 32.5066 2.82017C33.7553 2.80707 35.0032 2.88729 36.24 3.06017C36.4484 3.09084 36.6606 3.03804 36.8303 2.91321C37.0001 2.78839 37.1138 2.60163 37.1466 2.3935C37.1656 2.28983 37.1631 2.18338 37.1395 2.08069C37.1158 1.97799 37.0714 1.88122 37.0089 1.79631C36.9465 1.71141 36.8674 1.64016 36.7764 1.58694C36.6855 1.53372 36.5846 1.49965 36.48 1.48684C35.1772 1.23527 33.8584 1.07488 32.5333 1.00684C30.5866 1.00684 28.64 1.00684 26.6933 1.24684C22.5493 1.61739 18.545 2.93088 14.9866 5.08684C11.4628 7.25631 8.37075 10.059 5.86663 13.3535C1.08401 19.8847 -0.919647 28.0432 0.293297 36.0468C1.23995 44.1021 5.07745 51.5402 11.0933 56.9802C13.5484 59.0624 16.3452 60.7044 19.36 61.8335C22.3485 62.9315 25.4687 63.6308 28.64 63.9135C34.3277 64.3668 40.0428 63.4903 45.3333 61.3535C50.7237 59.2369 55.3323 55.5128 58.5333 50.6868C60.0351 48.385 61.2613 45.9148 62.1866 43.3268C63.1168 40.7489 63.6997 38.0586 63.92 35.3268C64.0856 32.6045 63.9963 29.8726 63.6533 27.1668Z" fill="#FF4D4D"/>
<path d="M12.3199 26.4469C12.878 25.0856 13.8008 23.9045 14.9866 23.0336C16.097 22.1678 17.4471 21.665 18.8533 21.5936C19.9525 21.5126 21.0576 21.5934 22.1333 21.8336C23.1544 21.9969 24.1386 22.34 25.0399 22.8469C26.1923 23.5058 27.0576 24.5708 27.4666 25.8336C27.4855 25.9528 27.5287 26.0669 27.5935 26.1687C27.6583 26.2705 27.7434 26.3579 27.8435 26.4254C27.9435 26.493 28.0564 26.5392 28.175 26.5612C28.2937 26.5833 28.4156 26.5807 28.5333 26.5536C28.6552 26.5406 28.7733 26.503 28.8803 26.4431C28.9874 26.3831 29.0811 26.3021 29.1559 26.2048C29.2307 26.1076 29.285 25.9962 29.3154 25.8774C29.3459 25.7586 29.352 25.6348 29.3333 25.5136C29.1584 24.3333 28.7043 23.2117 28.0085 22.2423C27.3128 21.2729 26.3956 20.4837 25.3333 19.9403C23.2876 18.8531 20.9774 18.3633 18.6666 18.5269C16.7411 18.833 14.9508 19.7073 13.5255 21.0376C12.1001 22.368 11.1046 24.0937 10.6666 25.9936C10.6383 26.0952 10.6303 26.2013 10.6432 26.306C10.656 26.4106 10.6894 26.5117 10.7415 26.6034C10.7935 26.6951 10.8632 26.7756 10.9464 26.8403C11.0297 26.9049 11.1249 26.9525 11.2266 26.9803C11.332 27.0314 11.4477 27.0579 11.5649 27.0577C11.682 27.0576 11.7976 27.0308 11.9029 26.9794C12.0082 26.9281 12.1005 26.8534 12.1727 26.7612C12.245 26.6689 12.2953 26.5615 12.3199 26.4469Z" fill="#0078DB"/>
<path d="M54.0534 27.1669C54.2919 27.1275 54.5058 26.997 54.65 26.803C54.7942 26.609 54.8576 26.3667 54.8267 26.1269C54.5167 24.0186 53.4095 22.1096 51.7334 20.7936C50.0498 19.4947 47.9652 18.825 45.8401 18.9002C43.7484 19.0439 41.7536 19.8363 40.1334 21.1669C38.6185 22.5115 37.5179 24.2597 36.9601 26.2069C36.9219 26.3066 36.9041 26.4129 36.9077 26.5196C36.9112 26.6263 36.9361 26.7312 36.9809 26.8281C37.0256 26.925 37.0893 27.012 37.1681 27.0839C37.247 27.1558 37.3395 27.2113 37.4401 27.2469C37.6385 27.3183 37.8568 27.3111 38.0501 27.2268C38.2434 27.1425 38.3973 26.9875 38.4801 26.7936C39.1806 25.3193 40.2917 24.0786 41.6801 23.2202C42.1982 22.9106 42.7538 22.6687 43.3334 22.5002C44.1884 22.1824 45.0885 22.0024 46.0001 21.9669C47.4782 21.792 48.972 22.1209 50.2401 22.9002C51.5112 23.6795 52.4582 24.8916 52.9067 26.3136C52.9147 26.4496 52.9524 26.5821 53.0171 26.702C53.0818 26.8219 53.172 26.9261 53.2812 27.0074C53.3905 27.0887 53.5163 27.1452 53.6497 27.1727C53.783 27.2003 53.9209 27.1983 54.0534 27.1669Z" fill="#0078DB"/>
<path d="M18.0267 47.7538C21.8667 50.8035 26.6735 52.3743 31.5734 52.1804C36.4946 52.2544 41.2899 50.6245 45.1467 47.5671C48.7203 44.3852 51.4116 40.3344 52.9601 35.8071C53.0074 35.6968 53.0324 35.5782 53.0339 35.4582C53.0354 35.3382 53.0132 35.2191 52.9686 35.1077C52.924 34.9963 52.858 34.8947 52.7741 34.8088C52.6903 34.7229 52.5904 34.6544 52.4801 34.6071C52.3698 34.5598 52.2512 34.5347 52.1312 34.5333C52.0112 34.5318 51.8921 34.554 51.7807 34.5986C51.6692 34.6431 51.5677 34.7092 51.4818 34.793C51.3959 34.8769 51.3274 34.9768 51.2801 35.0871C49.6252 39.168 46.9649 42.764 43.5467 45.5404C40.0649 48.0522 35.8355 49.3116 31.5467 49.1138C27.321 49.4418 23.1136 48.2815 19.6534 45.8338C16.2858 43.0838 13.8541 39.3571 12.6934 35.1671C12.669 35.0634 12.6235 34.9659 12.5596 34.8806C12.4958 34.7954 12.415 34.7242 12.3224 34.6717C12.2297 34.6191 12.1272 34.5862 12.0213 34.5751C11.9154 34.564 11.8083 34.5749 11.7067 34.6071C11.5052 34.6691 11.3349 34.8058 11.2308 34.9892C11.1267 35.1726 11.0966 35.3889 11.1467 35.5938C12.1212 40.2634 14.5259 44.5135 18.0267 47.7538Z" fill="#0078DB"/>
</g>
<defs>
<clipPath id="clip0_1855_2053">
<rect width="64" height="64" fill="white" transform="translate(0 0.5)"/>
</clipPath>
</defs>
</svg>
