<svg width="40" height="40" viewBox="0 0 40 40" fill="none" xmlns="http://www.w3.org/2000/svg">
<g clip-path="url(#clip0_1865_3236)">
<path fill-rule="evenodd" clip-rule="evenodd" d="M37.0499 1.95005C37.0093 1.81556 36.9408 1.69114 36.8489 1.58489C36.757 1.47864 36.6438 1.39294 36.5166 1.33338C35.9877 1.09788 35.4254 0.946064 34.8499 0.883379C30.129 0.348694 25.384 0.0538711 20.6332 4.52474e-05C15.8801 -0.152564 11.1222 -0.0301373 6.38323 0.366712C5.62517 0.393146 4.89295 0.648842 4.28323 1.10005C3.89332 1.78606 3.65465 2.54754 3.58323 3.33338C2.99006 9.01341 2.72295 14.7228 2.78323 20.4334C2.78323 27.3667 2.94989 34.3 3.33323 37.5C3.38808 38.1311 3.52247 38.7527 3.73323 39.35C3.81088 39.5364 3.94493 39.6938 4.11656 39.8C4.58244 39.9882 5.09612 40.0232 5.58323 39.9C6.99786 39.5168 8.35858 38.9568 9.63323 38.2334C13.1287 36.4152 16.4728 34.3196 19.6332 31.9667C22.5451 34.249 25.6579 36.2628 28.9332 37.9834C30.2694 38.7751 31.7283 39.3384 33.2499 39.65C33.4271 39.675 33.6076 39.6595 33.7779 39.6047C33.9483 39.5498 34.1039 39.4571 34.2332 39.3334C34.5639 38.6539 34.7673 37.9195 34.8332 37.1667C35.2999 34.0334 35.9166 27.3167 36.3999 20.5C37.0999 11.9167 37.4332 3.06671 37.0499 1.95005ZM34.8666 20.6167C34.4832 27.2834 33.9666 33.95 33.5332 37.1167C33.5332 37.65 33.2166 38.1334 33.1832 38.4167C32.9397 38.3752 32.7001 38.3139 32.4666 38.2334C30.4904 37.4506 28.5837 36.5028 26.7666 35.4C19.6499 31.2667 20.0999 30.4 19.3832 30.9667C16.6415 33.061 13.7189 34.9072 10.6499 36.4834C9.06608 37.3792 7.38956 38.1001 5.64989 38.6334C5.42722 38.6978 5.198 38.737 4.96656 38.75C4.76247 38.2165 4.64434 37.6539 4.61656 37.0834C4.26656 33.1334 4.26656 24.5167 4.51656 16.7834C4.66656 12.0167 4.93323 7.60005 5.26656 4.81671C5.32584 4.02922 5.45411 3.24845 5.64989 2.48338L6.33323 2.35005C10.0339 2.00951 13.7515 1.88708 17.4666 1.98338C23.8666 1.98338 31.0166 2.31671 34.2666 2.75005C34.6666 2.75005 35.0832 2.75005 35.3666 2.86671C35.4973 8.78802 35.3305 14.7122 34.8666 20.6167Z" fill="#FF4D4D"/>
<path fill-rule="evenodd" clip-rule="evenodd" d="M28.3333 10.8162C27.1454 10.6496 25.9491 10.5494 24.75 10.5162C23.75 10.5162 24 10.8329 23.3667 9.84957C22.7333 8.86624 21.6667 6.86624 21 6.01624C20.7526 5.65699 20.4048 5.37871 20 5.21624C19.8376 5.17026 19.666 5.16761 19.5022 5.20855C19.3385 5.24949 19.1883 5.33258 19.0667 5.44957C18.8812 5.64699 18.719 5.86509 18.5833 6.09957C18.1167 6.86624 17.3167 8.38291 16.6167 9.43291C16.4229 9.81987 16.1699 10.1741 15.8667 10.4829C14.4107 10.9022 12.93 11.2306 11.4333 11.4662C10.7667 11.6662 10.5 12.0662 10.4667 12.2829C10.4462 12.3904 10.449 12.5011 10.4748 12.6075C10.5007 12.7139 10.5491 12.8135 10.6167 12.8996C10.7736 13.0549 10.9406 13.1997 11.1167 13.3329C11.9333 14.0662 13.9833 15.6829 14.2667 16.4996C14.2032 17.2905 14.0351 18.0695 13.7667 18.8162C13.3833 20.2662 12.8667 21.9162 12.6167 22.7329C12.5828 22.8589 12.5964 22.993 12.6547 23.1097C12.7131 23.2264 12.8122 23.3177 12.9333 23.3662C12.9968 23.3868 13.0637 23.3944 13.1301 23.3887C13.1966 23.383 13.2612 23.3641 13.3202 23.333C13.3792 23.302 13.4314 23.2594 13.4738 23.2079C13.5161 23.1563 13.5477 23.0968 13.5667 23.0329V22.8662C13.6635 22.9367 13.7802 22.9746 13.9 22.9746C14.0198 22.9746 14.1365 22.9367 14.2333 22.8662C14.6833 22.5496 15.5333 21.9996 16.4333 21.4496C17.3353 20.9183 18.2644 20.4343 19.2167 19.9996C19.3833 19.9996 19.5833 19.9996 19.65 19.8829C21.1833 20.5662 24.1167 22.8162 25.5333 23.4996C25.7676 23.641 26.033 23.7226 26.3062 23.7371C26.5795 23.7516 26.8521 23.6987 27.1 23.5829C27.3304 23.396 27.4797 23.1273 27.5167 22.8329C27.5615 22.3444 27.5106 21.8519 27.3667 21.3829C26.9 19.7162 25.5333 16.9162 25.4833 16.3829C25.4833 16.3829 25.5667 16.2662 25.6167 16.1829C25.7462 15.9987 25.8911 15.8258 26.05 15.6662C26.9463 14.7903 27.8923 13.9667 28.8833 13.1996C29.1182 13.005 29.3207 12.7743 29.4833 12.5162C29.5621 12.3703 29.6033 12.2071 29.6033 12.0412C29.6033 11.8754 29.5621 11.7122 29.4833 11.5662C29.3559 11.3667 29.1874 11.1966 28.9891 11.0673C28.7908 10.938 28.5673 10.8524 28.3333 10.8162ZM25.2833 13.7496C24.4183 14.4233 23.8551 15.4119 23.7167 16.4996C23.7167 17.1829 25.3833 20.2329 25.8333 21.9662C24.1667 21.1329 21.3333 19.0829 19.9333 18.6329C19.3133 18.639 18.7072 18.8179 18.1833 19.1496C16.9333 19.8329 15.0833 21.0329 14.05 21.7662C14.4667 20.5496 14.9667 18.9996 15.25 17.8996C15.4268 17.3628 15.4948 16.7962 15.45 16.2329C15.1006 15.4977 14.6141 14.8358 14.0167 14.2829C13.5333 13.7829 13 13.2662 12.5833 12.8662C14.0003 12.7262 15.401 12.4528 16.7667 12.0496C17.9653 10.7164 19.0004 9.24489 19.85 7.66624C20.4167 8.56624 21.1667 9.86624 21.7167 10.7662C21.988 11.253 22.337 11.6921 22.75 12.0662C23.1905 12.2675 23.6661 12.3807 24.15 12.3996L26.6667 12.5329C26.2333 12.8996 25.7333 13.3329 25.2833 13.7496Z" fill="#0078DB"/>
</g>
<defs>
<clipPath id="clip0_1865_3236">
<rect width="40" height="40" fill="white"/>
</clipPath>
</defs>
</svg>
