<svg width="64" height="65" viewBox="0 0 64 65" fill="none" xmlns="http://www.w3.org/2000/svg">
<g clip-path="url(#clip0_1855_5091)">
<path fill-rule="evenodd" clip-rule="evenodd" d="M48.0001 53.327C47.5467 52.6603 46.9334 52.047 46.4801 51.487C45.4934 50.2337 44.4801 48.9803 43.3868 47.7803C42.2934 46.5803 41.8934 46.207 41.0934 45.4603C40.4565 44.8285 39.7699 44.2488 39.0401 43.727C38.3854 43.2943 37.6346 43.0288 36.8534 42.9537C36.216 42.9412 35.5878 43.1075 35.0401 43.4337C33.7868 44.1537 32.0801 45.8603 30.5068 46.927C30.1956 47.1583 29.8548 47.3466 29.4934 47.487C29.2801 47.487 29.0934 47.6737 28.9601 47.487L20.4534 37.5137C19.2801 36.2337 17.6268 34.847 16.3201 33.1137C15.5068 32.1958 14.8654 31.1389 14.4268 29.9937C14.4268 29.5403 14.6401 29.1137 15.0668 28.607C16.1601 27.167 18.0801 25.7537 19.3067 24.5003C19.9352 23.8632 20.3858 23.0725 20.6134 22.207C20.6823 21.7416 20.5779 21.2672 20.3201 20.8737C19.9692 20.3695 19.5862 19.8885 19.1734 19.4337L14.3734 13.167C14.3149 13.0627 14.2345 12.9723 14.1377 12.902C14.0408 12.8318 13.9299 12.7834 13.8126 12.7603C13.6953 12.7371 13.5743 12.7396 13.458 12.7677C13.3418 12.7958 13.233 12.8489 13.1392 12.9231C13.0454 12.9973 12.9689 13.091 12.9148 13.1977C12.8608 13.3045 12.8306 13.4216 12.8262 13.5411C12.8219 13.6607 12.8435 13.7797 12.8896 13.8901C12.9358 14.0004 13.0053 14.0995 13.0934 14.1803L17.7068 20.3403L18.6667 21.8337C18.6667 22.527 17.7601 23.2203 16.9068 24.0203C15.5189 25.1488 14.2338 26.3981 13.0668 27.7537C12.7227 28.1459 12.4738 28.6122 12.3397 29.1164C12.2056 29.6206 12.1897 30.149 12.2934 30.6603C12.7607 32.083 13.4937 33.4042 14.4534 34.5537C16.0001 36.1803 17.5201 37.8337 18.6667 39.1137L26.9601 49.2737C27.3483 49.758 27.8801 50.1068 28.4791 50.2697C29.0781 50.4326 29.7133 50.4013 30.2934 50.1803C31.9744 49.4291 33.5232 48.4116 34.8801 47.167C35.3505 46.795 35.8401 46.4479 36.3468 46.127C36.5068 46.127 36.8001 46.127 36.8001 45.9137C37.142 46.0183 37.4594 46.1906 37.7334 46.4203C38.2256 46.8037 38.6891 47.2226 39.1201 47.6737C39.8668 48.3403 40.5334 49.087 41.2267 49.8337C41.9201 50.5803 43.2001 52.1803 44.1334 53.3803C44.5067 53.8337 44.9868 54.3403 45.3868 54.8737C45.55 55.0619 45.6766 55.2789 45.7601 55.5137C46.1334 56.6603 45.1468 57.5937 44.0801 58.3937C42.7834 59.3482 41.3307 60.07 39.7868 60.527C34.4218 62.0428 28.6889 61.5595 23.6534 59.167C18.5587 56.6396 14.0593 53.0583 10.4534 48.6603C5.8151 43.6394 3.06298 37.1643 2.66675 30.3403C2.45342 21.8337 6.34675 14.9803 10.6668 12.927C10.8832 12.818 11.0488 12.629 11.1284 12.4C11.2081 12.1711 11.1955 11.9202 11.0934 11.7003C11.0556 11.5669 10.9876 11.4439 10.8948 11.3408C10.8019 11.2378 10.6867 11.1574 10.5579 11.1059C10.4291 11.0543 10.2902 11.0331 10.1519 11.0437C10.0136 11.0543 9.87953 11.0965 9.76009 11.167C5.01342 13.487 0.346752 21.007 0.480085 30.3937C0.720418 37.7998 3.55149 44.887 8.48008 50.4203C12.2485 55.1784 16.9958 59.0708 22.4001 61.8337C28.0542 64.6003 34.5314 65.1796 40.5868 63.4603C42.9349 62.7802 45.1026 61.587 46.9334 59.967C47.6986 59.3328 48.2713 58.4974 48.587 57.555C48.9027 56.6126 48.9488 55.6008 48.7201 54.6337C48.5582 54.1594 48.3145 53.7172 48.0001 53.327Z" fill="#FF4D4D"/>
<path fill-rule="evenodd" clip-rule="evenodd" d="M33.9468 6.79379C34.1587 6.83331 34.3776 6.78852 34.5569 6.66897C34.7363 6.54942 34.8618 6.36456 34.9068 6.15379C35.1534 5.11716 35.7677 4.20521 36.6357 3.58727C37.5038 2.96933 38.5666 2.68739 39.6268 2.79379C40.1041 2.83236 40.5683 2.96862 40.9907 3.19413C41.4131 3.41963 41.7846 3.72955 42.0822 4.10465C42.3797 4.47975 42.597 4.91202 42.7205 5.37463C42.8441 5.83723 42.8712 6.32028 42.8002 6.79379C42.6955 7.94962 42.3406 9.06884 41.7602 10.0738C40.7778 11.8058 39.6445 13.4477 38.3735 14.9805C37.8935 15.6471 35.5735 17.6471 34.6402 18.5805C34.314 18.8588 34.0805 19.23 33.9709 19.6446C33.8613 20.0592 33.8808 20.4973 34.0268 20.9005C34.7036 21.4688 35.5448 21.8053 36.4268 21.8605C37.8109 21.9799 39.2027 21.9799 40.5868 21.8605L47.2535 21.1405C47.4721 21.0961 47.6677 20.9749 47.8047 20.7988C47.9416 20.6227 48.011 20.4033 48.0002 20.1805C47.9732 19.9353 47.8529 19.7099 47.6643 19.551C47.4756 19.3921 47.233 19.3119 46.9868 19.3271L40.3468 19.5938H37.6802C38.6981 18.7599 39.6685 17.8696 40.5868 16.9271C41.9928 15.274 43.2342 13.4878 44.2935 11.5938C45.0754 10.1692 45.5051 8.57829 45.5468 6.95379C45.6047 6.14704 45.4995 5.33691 45.2376 4.57166C44.9757 3.80641 44.5625 3.1017 44.0225 2.49952C43.4826 1.89734 42.8269 1.41001 42.0946 1.06657C41.3623 0.723127 40.5684 0.530601 39.7602 0.500461C38.2221 0.449976 36.7189 0.96477 35.5347 1.94751C34.3505 2.93025 33.5674 4.31281 33.3335 5.83379C33.2931 6.04194 33.3342 6.25764 33.4484 6.43631C33.5626 6.61498 33.741 6.74296 33.9468 6.79379Z" fill="#0078DB"/>
<path fill-rule="evenodd" clip-rule="evenodd" d="M62.7733 12.2871C62.0514 12.1531 61.3205 12.0729 60.5867 12.0471C60.72 10.5005 60.8267 8.87379 60.8533 7.00712V2.95379C60.8292 2.54458 60.6848 2.15162 60.4381 1.82425C60.1913 1.49689 59.8534 1.24972 59.4667 1.11379C58.0812 1.01264 56.7064 1.42034 55.6 2.26046C53.6721 3.81176 51.9514 5.60419 50.48 7.59379C49.6541 8.70445 49.0477 9.9625 48.6933 11.3005C48.6003 11.6703 48.6081 12.0584 48.716 12.4242C48.8239 12.79 49.0278 13.1202 49.3067 13.3805C49.8535 13.8182 50.4913 14.128 51.1733 14.2871C51.9907 14.4444 52.821 14.5247 53.6533 14.5271C55.2438 14.522 56.8312 14.3882 58.4 14.1271V16.4471C58.4 17.7271 58.5867 19.1138 58.8267 20.5805C58.8597 20.7904 58.9723 20.9796 59.1412 21.1087C59.31 21.2378 59.5221 21.2969 59.7333 21.2738C59.8411 21.264 59.9458 21.2324 60.0411 21.181C60.1363 21.1296 60.2201 21.0593 60.2874 20.9746C60.3547 20.8898 60.4042 20.7923 60.4327 20.6879C60.4612 20.5835 60.4682 20.4743 60.4533 20.3671C60.3762 19.0527 60.3762 17.7349 60.4533 16.4205V13.9405C61.1189 13.8861 61.7878 13.8861 62.4533 13.9405C62.571 13.9675 62.6929 13.9701 62.8116 13.9481C62.9303 13.926 63.0431 13.8798 63.1432 13.8123C63.2432 13.7448 63.3283 13.6574 63.3931 13.5556C63.458 13.4537 63.5011 13.3397 63.52 13.2205C63.5299 13.0008 63.4596 12.785 63.3222 12.6133C63.1849 12.4416 62.9898 12.3257 62.7733 12.2871ZM53.7067 12.2871C53.142 12.2445 52.5807 12.1644 52.0267 12.0471H51.68C51.2267 11.7538 52.4533 10.1005 52.64 9.86046C53.8521 8.35415 55.1616 6.92888 56.56 5.59379C56.9538 5.23997 57.3827 4.92724 57.84 4.66046C57.84 5.62046 58.0267 6.74046 58.08 7.32712C58.08 9.16712 58.24 10.7938 58.24 12.3405C56.7263 12.398 55.2105 12.3356 53.7067 12.1538V12.2871Z" fill="#0078DB"/>
</g>
<defs>
<clipPath id="clip0_1855_5091">
<rect width="64" height="64" fill="white" transform="translate(0 0.5)"/>
</clipPath>
</defs>
</svg>
