<svg width="40" height="40" viewBox="0 0 40 40" fill="none" xmlns="http://www.w3.org/2000/svg">
<path fill-rule="evenodd" clip-rule="evenodd" d="M38.2332 3.03321C37.0592 1.65073 35.4974 0.652156 33.7499 0.166548C32.4927 -0.136005 31.1699 -0.000785827 29.9999 0.549881C28.8599 1.0381 27.8787 1.83461 27.1666 2.84988C26.8915 3.19518 26.6462 3.56316 26.4332 3.94988C26.332 4.14028 26.275 4.35107 26.2666 4.56655C26.3186 4.74755 26.4118 4.91402 26.5391 5.05284C26.6664 5.19166 26.8241 5.29905 26.9999 5.36655C28.0009 5.8085 28.9748 6.30938 29.9166 6.86655C30.0514 6.95274 30.2149 6.98185 30.3712 6.94747C30.5275 6.91309 30.6637 6.81803 30.7499 6.68321C30.8361 6.5484 30.8652 6.38486 30.8308 6.22858C30.7964 6.0723 30.7014 5.93608 30.5666 5.84988C29.7652 5.30748 28.9363 4.80681 28.0832 4.34988C28.2166 4.11655 28.3332 3.83321 28.3999 3.73321C28.9804 2.97216 29.7671 2.3937 30.6666 2.06655C31.475 1.72912 32.3741 1.67623 33.2166 1.91655C34.5783 2.35837 35.7788 3.19347 36.6666 4.31655C37.5301 5.37281 37.9485 6.72376 37.8332 8.08321C37.858 8.3326 37.858 8.58383 37.8332 8.83321C37.8065 8.9987 37.7618 9.16078 37.6999 9.31655C37.5072 9.28218 37.3177 9.23201 37.1332 9.16655C35.9829 8.84143 34.8666 8.40608 33.7999 7.86655L33.2832 7.63321C33.1515 7.56016 33 7.53051 32.8504 7.54846C32.7008 7.56641 32.5607 7.63106 32.4499 7.73321C32.0999 8.09988 30.9666 9.58321 30.2666 10.3832C25.8499 6.66655 19.6166 5.99988 15.0832 6.66655C13.0069 7.00405 11.0604 7.89665 9.44991 9.24988C8.88324 8.68321 8.04991 7.69988 7.66658 7.41655C7.54501 7.32968 7.39933 7.28298 7.24991 7.28298C7.10049 7.28298 6.95481 7.32968 6.83324 7.41655L6.38324 7.78321C5.43022 8.57633 4.40967 9.28458 3.33324 9.89988C3.16658 9.89988 2.94991 10.1165 2.78324 10.1832C2.70661 10.0436 2.63978 9.89879 2.58324 9.74988C2.50322 9.50928 2.43645 9.26446 2.38324 9.01655C2.04805 7.6838 2.24534 6.2729 2.93324 5.08321C3.63283 3.86013 4.67592 2.8692 5.93324 2.23321C6.72101 1.85384 7.61446 1.75392 8.46658 1.94988C9.38975 2.10659 10.2535 2.50966 10.9666 3.11655C11.0666 3.21655 11.2666 3.56655 11.4666 3.76655C10.8741 4.49448 10.1505 5.105 9.33324 5.56655C9.17514 5.5951 9.03441 5.68423 8.94103 5.81497C8.84765 5.94571 8.80897 6.10773 8.83324 6.26655C8.86554 6.42271 8.95557 6.56094 9.08533 6.65363C9.21509 6.74631 9.37505 6.78664 9.53324 6.76655C10.4923 6.34427 11.363 5.7449 12.0999 4.99988L12.9166 4.24988C13.0131 4.15958 13.0863 4.04719 13.1299 3.92236C13.1734 3.79752 13.186 3.66399 13.1666 3.53321C13.1223 3.3213 13.0312 3.12198 12.8999 2.94988C12.6243 2.60581 12.3234 2.2827 11.9999 1.98321C11.111 1.12141 10.0051 0.516639 8.79991 0.233215C7.53947 -0.109579 6.20011 -0.0155889 4.99991 0.499881C3.36318 1.2804 1.99866 2.5346 1.08324 4.09988C0.179367 5.74392 -0.0421106 7.67736 0.466577 9.48321C0.577093 9.8862 0.727851 10.2771 0.916577 10.6499C1.05476 10.9409 1.23441 11.2104 1.44991 11.4499C1.73763 11.7242 2.10874 11.8945 2.50431 11.9337C2.89988 11.973 3.29723 11.8789 3.63324 11.6665C4.97082 10.8611 6.20736 9.89873 7.31658 8.79988C7.69991 9.13321 8.18324 9.59988 8.59991 9.98321C6.91852 11.665 5.68145 13.7382 4.99991 16.0165C3.57961 20.5869 4.01672 25.5328 6.21658 29.7832C6.6196 30.5097 7.10624 31.1865 7.66658 31.7999L6.16658 36.3499C6.03346 36.7983 5.97711 37.266 5.99991 37.7332C6.04461 38.0981 6.20867 38.4379 6.46658 38.6999C6.6556 38.8907 6.87532 39.0485 7.11658 39.1665C7.36658 39.2999 7.66658 39.3999 7.89991 39.4999C8.33951 39.6987 8.79716 39.855 9.26657 39.9665C9.54854 40.056 9.85127 40.056 10.1332 39.9665C10.6441 39.7204 11.1158 39.4003 11.5332 39.0165C12.0677 38.493 12.5687 37.9364 13.0332 37.3499L14.0999 35.9832C15.9689 36.6184 17.9261 36.9559 19.8999 36.9832C22.404 37.0328 24.889 36.5381 27.1832 35.5332C27.1832 35.6332 27.4166 35.7832 27.4666 35.8165L28.7666 36.9999C29.3286 37.4892 29.9184 37.9455 30.5332 38.3665C31.0179 38.6722 31.5461 38.9026 32.0999 39.0499C32.3965 39.1024 32.7017 39.0736 32.9832 38.9665C33.4199 38.7578 33.838 38.5125 34.2332 38.2332C34.5288 38.0655 34.8078 37.8702 35.0666 37.6499C35.2275 37.5155 35.3678 37.3582 35.4832 37.1832C35.683 36.8773 35.7767 36.5142 35.7499 36.1499C35.6837 35.6919 35.5309 35.2508 35.2999 34.8499L33.3332 31.3332C33.2632 31.2133 33.1504 31.1243 33.0175 31.0841C32.8845 31.0439 32.7413 31.0555 32.6166 31.1165C32.4907 31.1807 32.3954 31.2922 32.3516 31.4266C32.3079 31.561 32.3193 31.7072 32.3832 31.8332C32.6332 32.4332 32.8832 33.0332 33.1166 33.6499C33.3499 34.2665 33.5166 34.8832 33.7166 35.4832C33.9166 36.0832 34.1332 36.1665 33.2166 36.7665C32.6166 37.1332 32.3332 37.0832 31.5499 36.7665C30.9398 36.4723 30.3496 36.1382 29.7832 35.7665L28.3332 34.8499C30.4764 33.6934 32.2194 31.9155 33.3332 29.7499C33.4062 29.6062 33.4191 29.4395 33.369 29.2863C33.319 29.1332 33.2102 29.0061 33.0666 28.9332C32.9229 28.8603 32.7562 28.8474 32.603 28.8974C32.4499 28.9474 32.3228 29.0562 32.2499 29.1999C29.9166 33.6665 24.9332 35.5499 19.9999 35.3665C15.0666 35.1832 9.99991 32.8832 7.91658 28.8999C6.01062 25.1057 5.6521 20.7198 6.91658 16.6665C7.42882 14.6619 8.49688 12.8428 9.99774 11.4186C11.4986 9.99438 13.3712 9.02308 15.3999 8.61655C19.5666 7.84988 25.3999 8.31655 29.2999 11.6665C32.3166 14.2499 34.1999 18.5499 33.4499 25.2332C33.4355 25.3741 33.476 25.515 33.5629 25.6268C33.6498 25.7386 33.7765 25.8125 33.9166 25.8332C33.9867 25.8425 34.058 25.8378 34.1262 25.8193C34.1945 25.8008 34.2585 25.7689 34.3143 25.7255C34.3701 25.6821 34.4168 25.628 34.4515 25.5664C34.4862 25.5047 34.5083 25.4368 34.5166 25.3665C35.4666 18.5999 33.7332 14.0832 30.8832 11.1499C31.4832 10.5665 32.3332 9.63321 32.8666 9.08321C34.1828 9.88323 35.5937 10.5159 37.0666 10.9665C37.4309 11.0921 37.825 11.1018 38.1951 10.9943C38.5651 10.8869 38.8928 10.6676 39.1332 10.3665C39.3089 10.0932 39.4437 9.79558 39.5332 9.48321C39.6496 9.07468 39.7277 8.65621 39.7666 8.23321C39.9489 6.36664 39.3991 4.50222 38.2332 3.03321ZM12.7832 35.4165L11.9499 36.2332C11.4499 36.6832 10.8666 37.0665 10.3999 37.5499C9.93324 38.0332 9.24991 37.8499 8.61658 37.5499C7.68324 37.1332 7.73324 37.2999 8.49991 33.2165V32.7499C9.76859 33.8719 11.2164 34.7733 12.7832 35.4165Z" fill="#FF4D4D"/>
<path fill-rule="evenodd" clip-rule="evenodd" d="M17.1498 23.5661C17.1941 23.9015 17.3395 24.2154 17.5665 24.4661C17.8301 24.7072 18.1759 24.8384 18.5331 24.8328C18.9091 24.7813 19.2819 24.709 19.6498 24.6161C20.2674 24.5012 20.8904 24.4178 21.5165 24.3661L23.4665 24.2161H24.9998C25.3271 24.2233 25.6534 24.1783 25.9665 24.0828H26.1498C26.2626 24.0197 26.3534 23.9236 26.41 23.8074C26.4666 23.6913 26.4863 23.5605 26.4665 23.4328C26.4531 23.3336 26.4137 23.2396 26.3522 23.1606C26.2907 23.0815 26.2094 23.0202 26.1165 22.9828C25.7498 22.8495 25.3331 22.9828 25.2498 22.9828L23.5831 22.7661C22.7665 22.7661 21.9165 22.6661 21.1831 22.6661C20.6281 22.6322 20.0715 22.6322 19.5165 22.6661C19.3806 22.7027 19.2471 22.7473 19.1165 22.7995C19.2331 21.1328 19.3998 23.5828 18.7998 17.2161L18.7165 15.3495V14.4661C18.7255 14.411 18.7255 14.3547 18.7165 14.2995C18.7232 14.2033 18.6935 14.1081 18.6331 14.0328C18.6331 13.9328 17.7498 13.6328 17.6331 14.3328C17.6331 14.5661 17.5331 15.2328 17.5165 15.3495L17.3165 17.2161C17.3165 18.1661 17.1665 19.0995 17.1665 20.0495C17.1332 20.6935 17.1332 21.3388 17.1665 21.9828C17.1331 22.2661 17.0831 23.0661 17.1498 23.5661Z" fill="#0078DB"/>
</svg>
