<svg width="40" height="40" viewBox="0 0 40 40" fill="none" xmlns="http://www.w3.org/2000/svg">
<g clip-path="url(#clip0_1865_2028)">
<path d="M39.7833 36.2831C39.7833 35.4331 39.7 34.6165 39.6 33.7665C39.6 33.1998 39.4833 32.6498 39.3833 32.0998C39.0813 29.3857 38.3205 26.7425 37.1333 24.2831C36.2169 22.5948 34.8569 21.1886 33.2 20.2165C32.5817 19.85 31.9137 19.5749 31.2167 19.3998C30.8159 19.2989 30.4097 19.221 30 19.1665H30.1333C31.183 18.3989 32.0063 17.3625 32.5167 16.1665C33.0835 15.021 33.3092 13.7366 33.1667 12.4665H35.6833C35.7569 12.4782 35.8321 12.4749 35.9043 12.4567C35.9766 12.4385 36.0444 12.4058 36.1036 12.3606C36.1628 12.3154 36.2122 12.2586 36.2489 12.1937C36.2855 12.1288 36.3086 12.0572 36.3167 11.9831C36.331 11.8379 36.2888 11.6927 36.1987 11.5778C36.1087 11.4629 35.9778 11.3872 35.8333 11.3665L34.8 11.2165C34.7691 9.98048 34.5787 8.75365 34.2333 7.56648C34.0374 7.07994 33.7798 6.62061 33.4667 6.19981C33.1649 5.76496 32.8061 5.37257 32.4 5.03314C31.5652 4.33639 30.5341 3.91696 29.45 3.83314V3.64981C29.6141 3.10637 29.6141 2.52659 29.45 1.98314C29.1421 1.42563 28.6368 1.00351 28.0333 0.799811C27.3769 0.533851 26.675 0.398 25.9667 0.399811C25.313 0.356101 24.6596 0.4875 24.0737 0.780463C23.4877 1.07343 22.9905 1.51735 22.6333 2.06648C22.4504 2.60698 22.4504 3.19264 22.6333 3.73314V3.91648C21.5565 4.04168 20.5354 4.46281 19.6833 5.13314C19.2564 5.48482 18.8805 5.89432 18.5667 6.34981C18.2551 6.79278 18.003 7.27466 17.8167 7.78315C17.4074 8.9544 17.3042 10.2108 17.5167 11.4331C17.1056 11.5095 16.6994 11.6097 16.3 11.7331C16.2371 11.7486 16.1779 11.7766 16.126 11.8154C16.0741 11.8542 16.0305 11.903 15.9979 11.959C15.9652 12.015 15.9441 12.0769 15.9359 12.1412C15.9277 12.2055 15.9325 12.2708 15.95 12.3331C15.9632 12.3973 15.9898 12.458 16.0281 12.5112C16.0663 12.5644 16.1153 12.609 16.1719 12.642C16.2285 12.675 16.2914 12.6958 16.3566 12.7028C16.4217 12.7099 16.4876 12.7032 16.55 12.6831C17.2126 12.5861 17.8805 12.5305 18.55 12.5165V12.6165C18.7151 13.62 19.018 14.5958 19.45 15.5165C19.846 16.4856 20.4103 17.3771 21.1167 18.1498C21.6427 18.6344 22.2453 19.0286 22.9 19.3165C22.3372 19.4175 21.7807 19.5511 21.2333 19.7165C19.6834 20.1618 18.2345 20.9033 16.9667 21.8998C16.5 22.2831 16.0333 22.6998 15.6 23.0998C14.5667 24.0498 13.6 25.0498 12.6 25.9998C11.25 27.2165 10.9333 27.4331 10.9333 27.8331C10.9377 27.9805 10.9993 28.1204 11.1051 28.2231C11.2109 28.3258 11.3526 28.3832 11.5 28.3831C11.6184 28.3825 11.7341 28.3478 11.8333 28.2831C11.9667 28.1998 12.1833 27.9498 12.25 27.9165L12.9833 27.2998C13.1623 28.0102 13.4079 28.7021 13.7167 29.3665C13.8719 29.7178 14.0617 30.0528 14.2833 30.3665C14.5333 30.7165 14.8 30.9998 14.9833 31.2498C15.1667 31.4998 15.2333 31.5665 15.3667 31.7665C14.8734 32.091 14.3485 32.3646 13.8 32.5831C13.3833 32.7331 12.95 32.9165 12.5 33.0331C12.273 33.1013 12.037 33.1351 11.8 33.1331C10.2896 33.0499 8.86403 32.4084 7.8 31.3331C6.60826 30.2535 5.6154 28.9729 4.86667 27.5498C4.58333 27.0498 4.23333 26.5331 3.98333 25.9998C3.81629 25.7142 3.69271 25.4052 3.61667 25.0831C3.51833 24.7323 3.50175 24.3635 3.5682 24.0053C3.63465 23.647 3.78237 23.3087 4 23.0165C4.21985 22.7411 4.51441 22.5349 4.84843 22.4225C5.18244 22.3102 5.54175 22.2965 5.88333 22.3831C6.31301 22.4576 6.72201 22.6223 7.08333 22.8665C7.6977 23.2777 8.25768 23.7649 8.75 24.3165L9.85 25.6331C10.2333 26.0998 10.75 26.7831 11.1833 26.3498C11.6167 25.9165 10.65 24.9831 9.51667 23.5831C9.02795 22.9645 8.4686 22.4052 7.85 21.9165C7.35156 21.5516 6.78473 21.2909 6.18333 21.1498C5.5291 20.9755 4.83731 21.0046 4.2 21.2331L4.05 20.7831L3.33333 18.8998C3.1 18.0331 2.86667 17.2331 2.65 16.2831C2.43333 15.3331 1.9 13.1498 1.81667 12.8331L4.71667 13.1831C6.66667 13.4331 9.18333 13.7665 10.5333 13.9165C10.9157 13.9556 11.301 13.9556 11.6833 13.9165C11.9647 13.8434 12.2382 13.7429 12.5 13.6165C12.8531 13.4354 13.1929 13.2293 13.5167 12.9998C13.5798 12.9622 13.6348 12.9123 13.6783 12.8532C13.7218 12.794 13.7531 12.7266 13.7702 12.6552C13.7873 12.5837 13.7899 12.5095 13.7778 12.4371C13.7657 12.3646 13.7393 12.2952 13.7 12.2331C13.6184 12.1118 13.4931 12.0267 13.3502 11.9957C13.2073 11.9646 13.0579 11.99 12.9333 12.0665C12.6363 12.2332 12.3303 12.3834 12.0167 12.5165C11.8288 12.5929 11.6332 12.6488 11.4333 12.6831C11.1667 12.6831 7.81667 11.8665 5.28333 11.3831C4.30962 11.1991 3.32357 11.0877 2.33333 11.0498H1.33333C1.06689 11.0931 0.811851 11.1895 0.583333 11.3331C0.406242 11.4536 0.260773 11.6149 0.159234 11.8035C0.0576959 11.9921 0.0030771 12.2023 0 12.4165C0.0389089 12.9789 0.128155 13.5367 0.266667 14.0831C0.466667 14.7998 0.65 15.5165 0.9 16.2331C1.25 17.2831 1.65 18.3165 2.06667 19.3331L2.88333 21.1998L3.13333 21.7498C2.97736 21.8701 2.83234 22.0039 2.7 22.1498C2.31928 22.6072 2.04541 23.1438 1.89837 23.7204C1.75132 24.2971 1.7348 24.8993 1.85 25.4831C1.91474 25.8388 2.02102 26.1856 2.16667 26.5165C2.41667 27.1831 2.81667 27.8331 3.11667 28.4665C4.11531 30.4182 5.53234 32.1254 7.26667 33.4665C8.53389 34.4307 10.0746 34.9677 11.6667 34.9998C12.0733 34.996 12.4774 34.9342 12.8667 34.8165C13.366 34.6495 13.8557 34.4548 14.3333 34.2331C15.0647 33.918 15.758 33.521 16.4 33.0498C17.0354 32.6293 17.6423 32.1672 18.2167 31.6665C18.2662 31.6149 18.3222 31.5701 18.3833 31.5331V32.1498V34.1998C18.3833 35.8665 18.2167 37.5331 18.2333 39.1998C18.2377 39.3472 18.2993 39.4871 18.4051 39.5898C18.5109 39.6925 18.6526 39.7499 18.8 39.7498C18.9474 39.7499 19.0891 39.6925 19.1949 39.5898C19.3007 39.4871 19.3623 39.3472 19.3667 39.1998L19.6833 33.7998L20 33.6831C20.1767 33.6145 20.3445 33.5249 20.5 33.4165C20.7056 33.2753 20.9005 33.1194 21.0833 32.9498C21.5323 32.5329 21.9145 32.0495 22.2167 31.5165C22.5088 30.9875 22.7435 30.4288 22.9167 29.8498C23.2171 28.8162 23.3577 27.7426 23.3333 26.6665C23.2739 25.6722 23.1006 24.6879 22.8167 23.7331C22.5536 23.1154 22.2531 22.5142 21.9167 21.9331C21.8187 21.7642 21.7563 21.5771 21.7333 21.3831L22.7667 21.1498L23.9 20.9831V21.1165C23.9433 21.365 24.0046 21.6101 24.0833 21.8498C24.2226 22.3482 24.4302 22.8249 24.7 23.2665C24.9783 23.7337 25.3268 24.1553 25.7333 24.5165C25.9239 24.6812 26.1305 24.8263 26.35 24.9498C26.6706 25.1297 27.012 25.2696 27.3667 25.3665C28.3639 25.6648 29.4377 25.5694 30.3667 25.0998C30.8063 24.8455 31.1916 24.5071 31.5005 24.1039C31.8093 23.7007 32.0357 23.2405 32.1667 22.7498C32.2599 22.4419 32.3048 22.1215 32.3 21.7998C33.6895 22.5924 34.8407 23.7436 35.6333 25.1331C36.8403 27.3792 37.6788 29.8045 38.1167 32.3165C38.2167 32.8665 38.3167 33.3831 38.4167 33.9831C38.5389 34.7943 38.6389 35.6109 38.7167 36.4331C38.8779 37.0534 38.9564 37.6923 38.95 38.3331C38.9499 38.4184 38.9732 38.5021 39.0174 38.5751C39.0616 38.6481 39.1249 38.7076 39.2005 38.7471C39.2761 38.7866 39.3611 38.8046 39.4462 38.7992C39.5313 38.7938 39.6133 38.7652 39.6833 38.7165C39.7911 38.6541 39.878 38.5613 39.9333 38.4498C40 38.3331 39.8 36.3831 39.7833 36.2831ZM21.2 29.3165C21.1285 29.7862 21.017 30.249 20.8667 30.6998C20.7143 31.1469 20.4951 31.5683 20.2167 31.9498L19.8167 32.3665V32.0331V30.5165V29.7165C19.8167 29.516 19.7382 29.3235 19.598 29.1802C19.4578 29.0369 19.2671 28.9542 19.0667 28.9498C18.764 28.9759 18.4776 29.0986 18.25 29.2998C17.8572 29.6454 17.4896 30.0185 17.15 30.4165C16.9 30.6331 16.65 30.8498 16.3833 31.0498L16.2333 30.6165C16.1205 30.2328 15.9755 29.8592 15.8 29.4998C15.6395 29.1512 15.4499 28.8167 15.2333 28.4998C14.7167 27.7831 14.0833 27.1998 13.75 26.7498L16.1167 24.6498C16.7 24.1331 17.2833 23.6498 17.9 23.1831C18.7102 22.5504 19.6086 22.0394 20.5667 21.6665V22.0665C20.7167 22.7165 21.15 23.4331 21.25 24.0331C21.3867 24.904 21.448 25.7851 21.4333 26.6665C21.4459 27.5555 21.3677 28.4434 21.2 29.3165ZM18.4833 11.3165C18.6272 10.3232 18.9611 9.36686 19.4667 8.49981C19.7771 7.90528 20.1516 7.34641 20.5833 6.83315C21.2084 6.04556 22.0564 5.46473 23.0167 5.16648C23.2333 5.66648 23.45 6.16648 23.65 6.56648C23.7015 6.68747 23.7986 6.7833 23.9203 6.83322C24.0419 6.88313 24.1784 6.8831 24.3 6.83315C24.3593 6.80935 24.4133 6.77403 24.4589 6.72922C24.5045 6.68442 24.5407 6.63102 24.5655 6.57213C24.5903 6.51323 24.6032 6.44999 24.6034 6.38609C24.6036 6.32218 24.5911 6.25887 24.5667 6.19981C24.368 5.57532 24.2012 4.94118 24.0667 4.29981C23.95 3.71648 23.8167 3.16648 24.0667 2.93314C24.2502 2.73262 24.4746 2.5738 24.7247 2.46742C24.9749 2.36103 25.2449 2.30956 25.5167 2.31648C26.2209 2.25738 26.9298 2.34245 27.6 2.56648C27.7833 2.56648 27.9833 2.56648 28.05 2.73314C28.1533 3.0982 28.1533 3.48476 28.05 3.84981C27.9167 4.59981 27.6833 5.51648 27.5 6.23315C27.4587 6.37679 27.4757 6.53096 27.5475 6.66208C27.6193 6.79319 27.74 6.89062 27.8833 6.93315C27.9534 6.9534 28.0267 6.95953 28.0992 6.95117C28.1716 6.94282 28.2416 6.92014 28.3052 6.88447C28.3688 6.8488 28.4247 6.80085 28.4695 6.7434C28.5144 6.68594 28.5474 6.62014 28.5667 6.54981L29.1833 4.88315C29.9832 5.18421 30.6901 5.68995 31.2333 6.34981C31.5164 6.65358 31.7782 6.97657 32.0167 7.31648C32.269 7.6534 32.5027 8.00393 32.7167 8.36648C33.2373 9.19482 33.5885 10.1182 33.75 11.0831C32.4 10.9331 30.7667 10.7998 29.05 10.7165H26.1167C25.1333 10.7165 24.1333 10.7165 23.1833 10.8331C21.3667 10.9165 19.7667 11.0998 18.4833 11.3165ZM22.2 16.9998C21.5316 16.4359 20.9675 15.7589 20.5333 14.9998C20.0782 14.2323 19.7252 13.4087 19.4833 12.5498H20.2667H23.35H26.4333C28.4 12.5498 30.3667 12.4498 32.0667 12.4331C32.0514 12.4763 32.0514 12.5233 32.0667 12.5665C32.0855 13.6006 31.8079 14.6185 31.2667 15.4998C30.7722 16.3832 30.0461 17.115 29.1667 17.6165C28.0784 18.1742 26.8414 18.3725 25.6333 18.1831C24.3985 18.1294 23.2057 17.7183 22.2 16.9998ZM30.9833 21.2831C30.992 21.4219 30.992 21.5611 30.9833 21.6998C30.9475 21.8906 30.8859 22.0757 30.8 22.2498C30.5569 22.8021 30.116 23.2435 29.5639 23.4872C29.0118 23.7308 28.3885 23.7591 27.8167 23.5665L26.6667 23.1331C26.3376 22.9472 26.0396 22.711 25.7833 22.4331C25.5055 22.1369 25.275 21.7996 25.1 21.4331C25.0871 21.25 25.0871 21.0663 25.1 20.8831C26.1211 20.8164 27.1455 20.8164 28.1667 20.8831C28.9153 20.9025 29.6616 20.9749 30.4 21.0998L31.0333 21.2665L30.9833 21.2831Z" fill="#FF4D4D"/>
<path d="M17.7667 17.2334C17.5667 17.1334 17.5167 17.2334 16.1 17.3501H15.8833C15.75 17.0667 15.6167 16.7834 15.4667 16.5167C15 15.8334 15 15.5001 14.7667 15.3834C14.5333 15.2667 14.45 15.2001 14.25 15.3834C13.7833 15.6001 13.9833 16.2167 14.0833 17.0501C14.0668 17.3053 14.0668 17.5614 14.0833 17.8167L13.6667 17.9834L13.1667 18.3334C13.1667 18.3334 12.1667 18.8001 12.0667 18.8167V18.5167C12.0212 18.1343 11.9488 17.7556 11.85 17.3834C11.7589 17.1624 11.594 16.9798 11.3833 16.8667C11.0069 16.6631 10.5929 16.5384 10.1667 16.5001C5.90002 15.8834 5.96668 16.0001 5.61668 16.0834C5.43908 16.1022 5.27362 16.1824 5.14887 16.3102C5.02411 16.438 4.94789 16.6054 4.93335 16.7834C4.93335 16.9667 5.03335 17.4501 5.03335 17.5001C5.2413 18.4629 5.57764 19.3934 6.03335 20.2667C6.45002 20.6167 6.73335 20.1667 6.80002 20.0834C6.8275 19.2835 6.72621 18.4844 6.50002 17.7167C6.86668 17.8167 9.65002 18.2167 10.2 18.3334C10.2 18.5667 10.45 18.8667 10.4667 18.9501L11.3 21.5501C11.3 21.7001 11.4167 22.1001 11.5167 22.3501C11.5689 22.4917 11.6482 22.6219 11.75 22.7334C11.8562 22.8392 12.0001 22.8987 12.15 22.8987C12.3 22.8987 12.4438 22.8392 12.55 22.7334C12.8167 22.4501 12.7 22.5334 12.2833 19.9001H12.6333L13.75 19.8167L14.3334 19.7334L14.6833 19.6334C14.6833 19.8167 14.8333 19.9834 14.9 20.1667C15.0018 20.4772 15.13 20.7783 15.2833 21.0667C15.4167 21.3167 15.5833 21.4834 15.8333 21.4501C16.6667 21.4501 16.35 20.5334 16.2667 19.0501L16.5667 18.9001L17.3167 18.5501C17.5322 18.4721 17.7436 18.3831 17.95 18.2834C18.0275 18.2201 18.0868 18.1374 18.1219 18.0437C18.157 17.95 18.1667 17.8487 18.15 17.7501C18.154 17.6333 18.1182 17.5186 18.0486 17.4248C17.979 17.3309 17.8796 17.2635 17.7667 17.2334Z" fill="#0078DB"/>
</g>
<defs>
<clipPath id="clip0_1865_2028">
<rect width="40" height="40" fill="white"/>
</clipPath>
</defs>
</svg>
