<svg width="168" height="50" viewBox="0 0 168 50" fill="none" xmlns="http://www.w3.org/2000/svg">
<path d="M36.9591 24.7793C36.9591 20.7793 40.3191 18.7793 40.4311 18.6682C38.5271 15.8904 35.6151 15.5571 34.4951 15.5571C32.0311 15.3349 29.5671 17.0015 28.3351 17.0015C26.9911 17.0015 25.0871 15.5571 22.9591 15.5571C20.2711 15.5571 17.6951 17.1126 16.3511 19.5571C13.5511 24.446 15.6791 31.6682 18.4791 35.6682C19.8231 37.5571 21.5031 39.7793 23.5191 39.6682C25.5351 39.5571 26.3191 38.3349 28.7831 38.3349C31.2471 38.3349 31.9191 39.6682 34.0471 39.5571C36.2871 39.5571 37.6311 37.5571 38.9751 35.6682C40.5431 33.446 41.2151 31.2237 41.2151 31.1126C41.2151 31.1126 36.9591 29.5571 36.9591 24.7793ZM32.9271 12.8904C34.0471 11.5571 34.8311 9.66819 34.6071 7.7793C33.0391 7.89041 31.0231 8.89041 29.9031 10.2237C28.8951 11.446 27.9991 13.3349 28.2231 15.1126C29.9031 15.2237 31.6951 14.2237 32.9271 12.8904Z" fill="white"/>
<path d="M66.6366 39.4436H63.7246L62.1566 34.5547H56.6686L55.2126 39.4436H52.4126L57.7886 22.7769H61.1486L66.6366 39.4436ZM61.7086 32.4436L60.2526 28.1102C60.1406 27.6658 59.8046 26.6658 59.3566 24.9991C59.2446 25.6658 58.9086 26.7769 58.5726 28.1102L57.2286 32.4436H61.7086ZM80.4126 33.2214C80.4126 35.2214 79.8526 36.888 78.7326 38.1102C77.7246 39.1102 76.4926 39.6658 75.0366 39.6658C73.4686 39.6658 72.2366 39.1102 71.5646 37.9991V44.3325H68.8766V31.3325C68.8766 29.9991 68.8766 28.7769 68.7646 27.4436H71.1166L71.2286 29.3325C72.1246 27.888 73.4686 27.2214 75.2606 27.2214C76.7166 27.2214 77.8366 27.7769 78.8446 28.888C79.9646 29.9991 80.4126 31.4436 80.4126 33.2214ZM77.7246 33.3325C77.7246 32.1102 77.5006 31.2214 76.9406 30.4436C76.3806 29.6658 75.5966 29.2214 74.5886 29.2214C73.9166 29.2214 73.3566 29.4436 72.7966 29.888C72.2366 30.3325 71.9006 30.888 71.7886 31.5547C71.6766 31.7769 71.6766 32.1102 71.6766 32.3325V34.4436C71.6766 35.3325 71.9006 35.9991 72.4606 36.6658C73.0206 37.2214 73.6926 37.5547 74.5886 37.5547C75.5966 37.5547 76.3806 37.2214 76.9406 36.4436C77.5006 35.6658 77.7246 34.5547 77.7246 33.3325ZM94.4126 33.2214C94.4126 35.2214 93.8526 36.888 92.7326 38.1102C91.7246 39.1102 90.4926 39.6658 89.0366 39.6658C87.4686 39.6658 86.2366 39.1102 85.5646 37.9991V44.3325H82.8766V31.3325C82.8766 29.9991 82.8766 28.7769 82.7646 27.4436H85.1166L85.2286 29.3325C86.1246 27.888 87.4686 27.2214 89.2606 27.2214C90.7166 27.2214 91.8366 27.7769 92.8446 28.888C93.8526 29.9991 94.4126 31.4436 94.4126 33.2214ZM91.6126 33.3325C91.6126 32.1102 91.3886 31.2214 90.8286 30.4436C90.2686 29.6658 89.4846 29.2214 88.4766 29.2214C87.8046 29.2214 87.2446 29.4436 86.6846 29.888C86.1246 30.3325 85.7886 30.888 85.6766 31.5547C85.5646 31.888 85.5646 32.1102 85.5646 32.3325V34.4436C85.5646 35.3325 85.7886 35.9991 86.3486 36.6658C86.9086 37.2214 87.5806 37.5547 88.4766 37.5547C89.4846 37.5547 90.2686 37.2214 90.8286 36.4436C91.3886 35.6658 91.6126 34.5547 91.6126 33.3325ZM109.981 34.7769C109.981 36.2214 109.533 37.3325 108.525 38.2214C107.405 39.2214 105.949 39.6658 103.933 39.6658C102.141 39.6658 100.685 39.3325 99.5646 38.6658L100.237 36.4436C101.469 37.1102 102.701 37.4436 104.157 37.4436C105.165 37.4436 105.949 37.2214 106.509 36.7769C107.069 36.3325 107.405 35.6658 107.405 34.9991C107.405 34.3325 107.181 33.7769 106.733 33.3325C106.285 32.888 105.501 32.4436 104.381 31.9991C101.469 30.888 100.013 29.3325 100.013 27.2214C100.013 25.888 100.573 24.7769 101.581 23.888C102.589 22.9991 104.045 22.5547 105.725 22.5547C107.293 22.5547 108.525 22.7769 109.533 23.3325L108.861 25.5547C107.965 24.9991 106.845 24.7769 105.613 24.7769C104.717 24.7769 103.933 24.9991 103.373 25.4436C102.925 25.888 102.701 26.3325 102.701 26.9991C102.701 27.6658 102.925 28.2214 103.485 28.6658C103.933 29.1102 104.717 29.4436 105.949 29.9991C107.405 30.5547 108.413 31.2214 109.085 31.9991C109.645 32.5547 109.981 33.5547 109.981 34.7769ZM118.829 29.4436H115.917V35.2214C115.917 36.6658 116.477 37.4436 117.485 37.4436C117.933 37.4436 118.381 37.4436 118.717 37.3325L118.829 39.3325C118.269 39.5547 117.597 39.6658 116.701 39.6658C115.693 39.6658 114.797 39.3325 114.237 38.6658C113.677 37.9991 113.341 36.9991 113.341 35.4436V29.4436H111.549V27.4436H113.341V25.2214L116.029 24.4436V27.4436H118.941L118.829 29.4436ZM132.157 33.3325C132.157 35.2214 131.597 36.6658 130.589 37.888C129.469 39.1102 128.013 39.6658 126.109 39.6658C124.317 39.6658 122.973 39.1102 121.853 37.888C120.845 36.6658 120.285 35.2214 120.285 33.4436C120.285 31.5547 120.845 30.1102 121.965 28.888C123.085 27.6658 124.541 27.1102 126.333 27.1102C128.125 27.1102 129.581 27.6658 130.589 28.888C131.709 29.9991 132.157 31.4436 132.157 33.3325ZM129.357 33.3325C129.357 32.2214 129.133 31.3325 128.685 30.5547C128.125 29.5547 127.341 29.1102 126.221 29.1102C125.101 29.1102 124.317 29.5547 123.757 30.5547C123.309 31.3325 123.085 32.3325 123.085 33.4436C123.085 34.5547 123.309 35.4436 123.757 36.2214C124.317 37.2214 125.101 37.6658 126.221 37.6658C127.229 37.6658 128.013 37.2214 128.685 36.2214C129.133 35.4436 129.357 34.4436 129.357 33.3325ZM140.893 29.7769C140.669 29.7769 140.333 29.6658 139.997 29.6658C139.101 29.6658 138.317 29.9991 137.757 30.7769C137.309 31.4436 137.085 32.2214 137.085 33.1102V39.4436H134.397V31.2214C134.397 29.9991 134.397 28.6658 134.285 27.4436H136.637L136.749 29.7769H136.861C137.197 28.9991 137.645 28.3325 138.205 27.888C138.765 27.4436 139.437 27.2214 140.109 27.2214C140.333 27.2214 140.557 27.2214 140.781 27.2214L140.893 29.7769ZM152.989 32.7769C152.989 33.2214 152.989 33.5547 152.877 33.9991H144.813C144.813 35.2214 145.261 36.1102 145.933 36.6658C146.605 37.2214 147.501 37.5547 148.621 37.5547C149.853 37.5547 150.861 37.3325 151.869 36.9991L152.317 38.888C151.197 39.3325 149.853 39.6658 148.285 39.6658C146.381 39.6658 144.925 39.1102 143.917 37.9991C142.797 36.888 142.349 35.4436 142.349 33.5547C142.349 31.7769 142.797 30.2214 143.805 28.9991C144.813 27.6658 146.269 27.1102 148.061 27.1102C149.853 27.1102 151.085 27.7769 151.981 28.9991C152.541 30.1102 152.989 31.3325 152.989 32.7769ZM150.413 32.1102C150.413 31.3325 150.301 30.6658 149.853 30.1102C149.405 29.3325 148.621 28.9991 147.725 28.9991C146.829 28.9991 146.157 29.3325 145.597 30.1102C145.149 30.6658 144.925 31.3325 144.813 32.2214L150.413 32.1102Z" fill="white"/>
<path d="M56.0019 16.8874C55.2179 16.8874 54.6579 16.8874 54.0979 16.7763V8.77626C54.8819 8.66515 55.6659 8.55404 56.3379 8.55404C59.4739 8.55404 60.8179 10.1096 60.8179 12.554C60.8179 15.3318 59.1379 16.8874 56.0019 16.8874ZM56.4499 9.55404C56.0019 9.55404 55.6659 9.55404 55.3299 9.66515V15.7763C55.4419 15.7763 55.7779 15.7763 56.2259 15.7763C58.2419 15.7763 59.3619 14.6651 59.3619 12.554C59.3619 10.6651 58.3539 9.55404 56.4499 9.55404ZM65.1859 16.8874C63.3939 16.8874 62.2739 15.554 62.2739 13.8874C62.2739 12.1096 63.3939 10.7763 65.1859 10.7763C66.8659 10.7763 68.0979 11.9985 68.0979 13.7763C68.2099 15.6651 66.9779 16.8874 65.1859 16.8874ZM65.2979 11.7763C64.2899 11.7763 63.7299 12.6651 63.7299 13.8874C63.7299 15.1096 64.4019 15.9985 65.2979 15.9985C66.1939 15.9985 66.8659 14.9985 66.8659 13.8874C66.7539 12.6651 66.1939 11.7763 65.2979 11.7763ZM78.0659 10.8874L76.1619 16.7763H75.0419L74.2579 14.2207C74.0339 13.554 73.9219 12.9985 73.8099 12.3318C73.6979 12.9985 73.4739 13.6651 73.3619 14.2207L72.5779 16.7763H71.3459L69.4419 10.8874H70.7859L71.4579 13.6651C71.5699 14.3318 71.7939 14.9985 71.9059 15.554C72.0179 15.1096 72.1299 14.4429 72.3539 13.6651L73.2499 10.8874H74.3699L75.1539 13.6651C75.3779 14.3318 75.4899 14.9985 75.6019 15.554C75.7139 14.9985 75.8259 14.3318 76.0499 13.6651L76.7219 10.8874H78.0659ZM84.8979 16.7763H83.5539V13.4429C83.5539 12.4429 83.1059 11.8874 82.3219 11.8874C81.5379 11.8874 80.9779 12.554 80.9779 13.3318V16.8874H79.6339V12.6651C79.6339 12.1096 79.6339 11.554 79.6339 10.9985H80.7539L80.8659 11.8874C81.2019 11.2207 81.9859 10.8874 82.7699 10.8874C84.0019 10.8874 84.7859 11.8874 84.7859 13.3318L84.8979 16.7763ZM88.5939 16.7763H87.2499V8.2207H88.5939V16.7763ZM93.4099 16.8874C91.7299 16.8874 90.4979 15.554 90.4979 13.8874C90.4979 12.1096 91.6179 10.7763 93.4099 10.7763C95.0899 10.7763 96.3219 11.9985 96.3219 13.7763C96.3219 15.6651 95.2019 16.8874 93.4099 16.8874ZM93.4099 11.7763C92.4019 11.7763 91.8419 12.6651 91.8419 13.8874C91.8419 15.1096 92.5139 15.9985 93.4099 15.9985C94.3059 15.9985 94.9779 14.9985 94.9779 13.8874C94.9779 12.6651 94.4179 11.7763 93.4099 11.7763ZM101.586 16.7763L101.474 16.1096C101.026 16.6651 100.466 16.8874 99.6819 16.8874C98.5619 16.8874 97.8899 16.1096 97.8899 15.1096C97.8899 13.6651 99.1219 12.8874 101.362 12.8874V12.7763C101.362 11.9985 100.914 11.6651 100.13 11.6651C99.5699 11.6651 99.0099 11.7763 98.5619 12.1096L98.3379 11.2207C98.8979 10.8874 99.5699 10.6651 100.354 10.6651C101.922 10.6651 102.706 11.4429 102.706 13.1096V15.3318C102.706 15.8874 102.706 16.4429 102.818 16.7763H101.586ZM101.362 13.8874C99.9059 13.8874 99.1219 14.2207 99.1219 15.1096C99.1219 15.7763 99.4579 15.9985 100.018 15.9985C100.69 15.9985 101.362 15.4429 101.362 14.7763V13.8874ZM109.09 16.7763L108.978 15.7763C108.642 16.4429 107.97 16.8874 107.074 16.8874C105.618 16.8874 104.61 15.6651 104.61 13.8874C104.61 11.9985 105.73 10.7763 107.186 10.7763C107.97 10.7763 108.53 10.9985 108.866 11.554V8.2207H110.21V15.2207C110.21 15.7763 110.21 16.3318 110.21 16.7763H109.09ZM108.866 13.3318C108.866 12.554 108.306 11.7763 107.522 11.7763C106.514 11.7763 105.954 12.6651 105.954 13.8874C105.954 15.1096 106.626 15.8874 107.522 15.8874C108.306 15.8874 108.978 15.2207 108.978 14.3318L108.866 13.3318ZM118.61 16.8874C116.93 16.8874 115.698 15.554 115.698 13.8874C115.698 12.1096 116.818 10.7763 118.61 10.7763C120.29 10.7763 121.522 11.9985 121.522 13.7763C121.522 15.6651 120.402 16.8874 118.61 16.8874ZM118.61 11.7763C117.602 11.7763 117.042 12.6651 117.042 13.8874C117.042 15.1096 117.714 15.9985 118.61 15.9985C119.506 15.9985 120.178 14.9985 120.178 13.8874C120.178 12.6651 119.618 11.7763 118.61 11.7763ZM128.69 16.7763H127.346V13.4429C127.346 12.4429 126.898 11.8874 126.114 11.8874C125.33 11.8874 124.77 12.554 124.77 13.3318V16.8874H123.426V12.6651C123.426 12.1096 123.426 11.554 123.426 10.9985H124.546L124.658 11.8874C124.994 11.2207 125.778 10.8874 126.562 10.8874C127.794 10.8874 128.578 11.8874 128.578 13.3318V16.7763H128.69ZM137.538 11.8874H136.082V14.7763C136.082 15.554 136.306 15.8874 136.866 15.8874C137.09 15.8874 137.314 15.8874 137.426 15.7763V16.7763C137.202 16.8874 136.866 16.8874 136.418 16.8874C135.41 16.8874 134.738 16.3318 134.738 14.7763V11.7763H133.842V10.8874H134.738V9.77626L136.082 9.44293V10.8874H137.538V11.8874ZM144.594 16.7763H143.25V13.4429C143.25 12.4429 142.802 11.8874 142.018 11.8874C141.346 11.8874 140.674 12.3318 140.674 13.3318V16.8874H139.33V8.2207H140.674V11.7763C141.122 11.1096 141.682 10.7763 142.466 10.7763C143.698 10.7763 144.482 11.7763 144.482 13.3318V16.7763H144.594ZM151.762 14.1096H147.842C147.842 15.2207 148.626 15.8874 149.746 15.8874C150.306 15.8874 150.866 15.7763 151.314 15.554L151.538 16.4429C150.978 16.6651 150.306 16.7763 149.522 16.7763C147.618 16.7763 146.61 15.6651 146.61 13.7763C146.61 11.9985 147.73 10.554 149.41 10.554C150.978 10.554 151.874 11.6651 151.874 13.3318C151.762 13.7763 151.762 13.9985 151.762 14.1096ZM150.53 13.2207C150.53 12.3318 150.082 11.6651 149.186 11.6651C148.402 11.6651 147.842 12.3318 147.73 13.2207H150.53Z" fill="white"/>
</svg>
