<svg width="168" height="50" viewBox="0 0 168 50" fill="none" xmlns="http://www.w3.org/2000/svg">
<path d="M58.948 12.7779C58.948 13.7779 58.7268 14.6668 58.0632 15.2223C57.289 16.0001 56.4042 16.3334 55.2982 16.3334C54.1922 16.3334 53.3074 16.0001 52.5332 15.2223C51.759 14.4446 51.4272 13.5557 51.4272 12.4446C51.4272 11.3334 51.759 10.4446 52.5332 9.66678C53.3074 8.889 54.1922 8.55566 55.2982 8.55566C55.8512 8.55566 56.2936 8.66678 56.8466 8.889C57.3996 9.11122 57.7314 9.44455 57.9526 9.77789L57.289 10.4446C56.736 9.77789 56.183 9.55566 55.2982 9.55566C54.524 9.55566 53.8604 9.77789 53.3074 10.4446C52.6438 10.889 52.4226 11.6668 52.4226 12.5557C52.4226 13.4446 52.6438 14.2223 53.3074 14.6668C53.971 15.1112 54.524 15.5557 55.2982 15.5557C56.183 15.5557 56.8466 15.3334 57.3996 14.6668C57.7314 14.3334 58.0632 13.7779 58.0632 13.2223H55.2982V12.2223H58.948V12.7779ZM64.6991 9.66678H61.3812V12.0001H64.4779V12.889H61.3812V15.2223H64.6991V16.2223H60.3858V8.77789H64.6991V9.66678ZM68.7913 16.2223H67.7959V9.55566H65.6945V8.77789H70.8927V9.66678H68.7913V16.2223ZM74.5425 16.2223V8.77789H75.5379V16.3334H74.5425V16.2223ZM79.7406 16.2223H78.7452V9.55566H76.6438V8.77789H81.7314V9.66678H79.63V16.3334H79.7406V16.2223ZM91.5747 15.2223C90.8005 16.0001 89.9157 16.3334 88.8097 16.3334C87.7038 16.3334 86.819 16.0001 86.0448 15.2223C85.2706 14.4446 84.9388 13.5557 84.9388 12.4446C84.9388 11.3334 85.2706 10.4446 86.0448 9.66678C86.819 8.889 87.7038 8.55566 88.8097 8.55566C89.9157 8.55566 90.8005 8.889 91.5747 9.66678C92.3489 10.4446 92.6807 11.3334 92.6807 12.4446C92.6807 13.5557 92.3489 14.5557 91.5747 15.2223ZM86.819 14.6668C87.3719 15.1112 88.0355 15.5557 88.8097 15.5557C89.5839 15.5557 90.2475 15.3334 90.8005 14.6668C91.3535 14.2223 91.6853 13.4446 91.6853 12.5557C91.6853 11.6668 91.4641 10.889 90.8005 10.4446C90.2475 10.0001 89.5839 9.55566 88.8097 9.55566C88.0355 9.55566 87.3719 9.77789 86.819 10.4446C86.3766 10.889 85.9342 11.6668 85.9342 12.5557C85.9342 13.3334 86.266 14.1112 86.819 14.6668ZM94.1185 16.2223V8.77789H95.2245L98.8743 14.6668V8.77789H99.8697V16.3334H98.8743L95.0033 10.2223V16.3334H94.1185V16.2223Z" fill="white" stroke="white" stroke-width="0.221228" stroke-miterlimit="10"/>
<path d="M84.7161 27.2241C81.7299 27.2241 79.4074 29.4463 79.4074 32.5574C79.4074 35.5574 81.7299 37.8907 84.7161 37.8907C87.7023 37.8907 90.0249 35.6685 90.0249 32.5574C90.1355 29.3352 87.7023 27.2241 84.7161 27.2241ZM84.7161 35.7796C83.0571 35.7796 81.7299 34.4463 81.7299 32.5574C81.7299 30.6685 83.0571 29.3352 84.7161 29.3352C86.3751 29.3352 87.7023 30.5574 87.7023 32.5574C87.7023 34.3352 86.3751 35.7796 84.7161 35.7796ZM73.2138 27.2241C70.2276 27.2241 67.9051 29.4463 67.9051 32.5574C67.9051 35.5574 70.2276 37.8907 73.2138 37.8907C76.2 37.8907 78.5226 35.6685 78.5226 32.5574C78.5226 29.3352 76.2 27.2241 73.2138 27.2241ZM73.2138 35.7796C71.5548 35.7796 70.2276 34.4463 70.2276 32.5574C70.2276 30.6685 71.5548 29.3352 73.2138 29.3352C74.8728 29.3352 76.2 30.5574 76.2 32.5574C76.2 34.3352 74.7622 35.7796 73.2138 35.7796ZM59.3889 28.8907V31.113H64.6977C64.5871 32.3352 64.0341 33.3352 63.4811 34.0018C62.7069 34.7796 61.4903 35.6685 59.3889 35.6685C56.071 35.6685 53.5272 33.0018 53.5272 29.6685C53.5272 26.3352 56.1816 23.6685 59.3889 23.6685C61.1585 23.6685 62.4857 24.4463 63.4811 25.3352L65.1401 23.6685C63.8129 22.4463 62.0433 21.4463 59.4995 21.4463C55.0756 21.4463 51.2046 25.2241 51.2046 29.6685C51.2046 34.113 55.0756 37.8907 59.4995 37.8907C61.9327 37.8907 63.7023 37.113 65.2507 35.5574C66.7991 34.0018 67.2415 31.8907 67.2415 30.3352C67.2415 29.8907 67.2415 29.3352 67.1309 29.0018L59.3889 28.8907ZM115.794 30.6685C115.352 29.4463 114.025 27.3352 111.37 27.3352C108.716 27.3352 106.394 29.4463 106.394 32.6685C106.394 35.6685 108.606 38.0018 111.592 38.0018C113.914 38.0018 115.463 36.4463 115.905 35.6685L114.135 34.4463C113.472 35.3352 112.808 36.0018 111.481 36.0018C110.154 36.0018 109.49 35.5574 108.827 34.3352L115.905 31.3352L115.794 30.6685ZM108.606 32.3352C108.606 30.3352 110.264 29.2241 111.37 29.2241C112.255 29.2241 113.14 29.6685 113.361 30.3352L108.606 32.3352ZM102.744 37.5574H105.066V21.8907H102.744V37.5574ZM99.094 28.3352C98.4304 27.7796 97.435 27.113 96.2184 27.113C93.564 27.113 91.1309 29.4463 91.1309 32.4463C91.1309 35.4463 93.4534 37.7796 96.2184 37.7796C97.435 37.7796 98.4304 37.113 98.9834 36.5574H99.094V37.3352C99.094 39.3352 97.988 40.4463 96.2184 40.4463C94.8912 40.4463 93.8958 39.4463 93.564 38.5574L91.5733 39.4463C92.2369 40.7796 93.6746 42.5574 96.329 42.5574C99.094 42.5574 101.306 40.8907 101.306 37.0018V27.4463H99.094V28.3352ZM96.329 35.7796C94.67 35.7796 93.3428 34.4463 93.3428 32.5574C93.3428 30.6685 94.67 29.3352 96.329 29.3352C97.988 29.3352 99.2046 30.6685 99.2046 32.5574C99.2046 34.4463 97.8774 35.7796 96.329 35.7796ZM126.633 21.8907H120.993V37.5574H123.315V31.6685H126.523C129.177 31.6685 131.61 29.7796 131.61 26.7796C131.61 23.7796 129.288 21.8907 126.633 21.8907ZM126.744 29.3352H123.426V24.0018H126.744C128.513 24.0018 129.509 25.5574 129.509 26.6685C129.398 28.0018 128.403 29.3352 126.744 29.3352ZM141.122 27.113C139.352 27.113 137.582 27.8907 137.029 29.4463L139.131 30.3352C139.684 29.4463 140.347 29.2241 141.232 29.2241C142.449 29.2241 143.555 30.0018 143.665 31.2241V31.3352C143.334 31.113 142.338 30.6685 141.343 30.6685C139.131 30.6685 136.919 31.8907 136.919 34.113C136.919 36.2241 138.799 37.6685 140.79 37.6685C142.449 37.6685 143.112 36.8907 143.776 36.113H143.887V37.3352H146.099V31.3352C145.877 28.7796 143.665 27.113 141.122 27.113ZM140.9 35.7796C140.126 35.7796 139.02 35.4463 139.02 34.4463C139.02 33.2241 140.347 32.7796 141.453 32.7796C142.449 32.7796 142.891 33.0018 143.555 33.2241C143.334 34.7796 142.117 35.7796 140.9 35.7796ZM153.951 27.5574L151.297 34.3352H151.186L148.421 27.5574H145.988L150.08 37.0018L147.758 42.2241H150.08L156.384 27.4463H153.951V27.5574ZM133.048 37.5574H135.371V21.8907H133.048V37.5574Z" fill="white"/>
<path d="M12.94 9.33301C12.6082 9.66634 12.4976 10.333 12.4976 11.1108V38.7775C12.4976 39.5552 12.7188 40.1108 13.1612 40.5552L13.2718 40.6663L28.645 25.1108V24.8886L12.94 9.33301Z" fill="url(#paint0_linear_1692_7044)"/>
<path d="M33.623 30.3368L28.5354 25.2257V24.8924L33.623 19.7812L33.7336 19.8924L39.8165 23.3368C41.5861 24.3368 41.5861 26.0035 39.8165 27.0035L33.623 30.3368Z" fill="url(#paint1_linear_1692_7044)"/>
<path d="M33.7335 30.2232L28.5354 25.001L12.9409 40.6676C13.6045 41.3343 14.3787 41.3343 15.5953 40.7788L33.7335 30.2232Z" fill="url(#paint2_linear_1692_7044)"/>
<path d="M33.7335 19.7791L15.5953 9.33462C14.4893 8.66795 13.6045 8.77906 12.9409 9.44573L28.5354 25.0013L33.7335 19.7791Z" fill="url(#paint3_linear_1692_7044)"/>
<path opacity="0.2" d="M33.6207 30.1133L15.5931 40.3355C14.5977 41.0022 13.7129 40.8911 13.1599 40.3355L13.0493 40.4466L13.1599 40.5577C13.8235 41.1133 14.7083 41.2244 15.5931 40.5577L33.6207 30.1133Z" fill="white"/>
<path opacity="0.12" d="M12.94 40.3343C12.6082 40.001 12.4976 39.3343 12.4976 38.5565V38.6676C12.4976 39.4454 12.7188 40.001 13.1612 40.4454V40.3343H12.94ZM39.8155 26.6676L33.622 30.1121L33.7326 30.2232L39.8155 26.7788C40.7003 26.3343 41.0321 25.6676 41.0321 25.001C41.0321 25.6676 40.5897 26.1121 39.8155 26.6676Z" fill="white"/>
<path opacity="0.25" d="M15.5943 9.55677L39.8155 23.3345C40.5897 23.779 41.0321 24.3345 41.0321 25.0012C41.0321 24.3345 40.7003 23.779 39.8155 23.2234L15.5943 9.33454C13.8247 8.33454 12.4976 9.11232 12.4976 11.1123V11.2234C12.4976 9.33454 13.8247 8.55677 15.5943 9.55677Z" fill="white"/>
<defs>
<linearGradient id="paint0_linear_1692_7044" x1="27.185" y1="10.8959" x2="6.20579" y2="31.7763" gradientUnits="userSpaceOnUse">
<stop stop-color="#00A0FF"/>
<stop offset="0.007" stop-color="#00A1FF"/>
<stop offset="0.26" stop-color="#00BEFF"/>
<stop offset="0.512" stop-color="#00D2FF"/>
<stop offset="0.76" stop-color="#00DFFF"/>
<stop offset="1" stop-color="#00E3FF"/>
</linearGradient>
<linearGradient id="paint1_linear_1692_7044" x1="42.1619" y1="25.0808" x2="12.0544" y2="25.0808" gradientUnits="userSpaceOnUse">
<stop stop-color="#FFE000"/>
<stop offset="0.409" stop-color="#FFBD00"/>
<stop offset="0.775" stop-color="#FFA500"/>
<stop offset="1" stop-color="#FF9C00"/>
</linearGradient>
<linearGradient id="paint2_linear_1692_7044" x1="30.9401" y1="27.8725" x2="2.49193" y2="56.1876" gradientUnits="userSpaceOnUse">
<stop stop-color="#FF3A44"/>
<stop offset="1" stop-color="#C31162"/>
</linearGradient>
<linearGradient id="paint3_linear_1692_7044" x1="9.0989" y1="0.280246" x2="21.8024" y2="12.9253" gradientUnits="userSpaceOnUse">
<stop stop-color="#32A071"/>
<stop offset="0.069" stop-color="#2DA771"/>
<stop offset="0.476" stop-color="#15CF74"/>
<stop offset="0.801" stop-color="#06E775"/>
<stop offset="1" stop-color="#00F076"/>
</linearGradient>
</defs>
</svg>
