<svg width="113" height="120" viewBox="0 0 113 120" fill="none" xmlns="http://www.w3.org/2000/svg">
<g clip-path="url(#clip0)">
<path d="M95.048 120H19.2253C19.0394 120 18.8906 119.851 18.8906 119.665C18.8906 119.479 19.0394 119.331 19.2253 119.331H95.048C95.234 119.331 95.3827 119.479 95.3827 119.665C95.3827 119.851 95.234 120 95.048 120Z" fill="#0078DB"/>
<path d="M13.0524 119.963H0.334676C0.148745 119.963 0 119.814 0 119.628C0 119.442 0.148745 119.293 0.334676 119.293H13.0524C13.2383 119.293 13.387 119.442 13.387 119.628C13.387 119.814 13.2383 119.963 13.0524 119.963Z" fill="#0078DB"/>
<path d="M111.671 120H98.9528C98.7669 120 98.6182 119.851 98.6182 119.665C98.6182 119.479 98.7669 119.331 98.9528 119.331H111.671C111.856 119.331 112.005 119.479 112.005 119.665C112.005 119.851 111.856 120 111.671 120Z" fill="#0078DB"/>
<path d="M84.2272 50.6105C84.0041 50.6105 83.8182 50.4245 83.8182 50.2014V36.5541C83.8182 33.1329 81.0292 30.3068 77.5709 30.3068H27.1835C23.7252 30.3068 20.9363 33.0958 20.9363 36.5541V40.0496C20.9363 40.2727 20.7503 40.4586 20.5272 40.4586C20.3041 40.4586 20.1182 40.2727 20.1182 40.0496V36.5541C20.1182 32.6867 23.279 29.5259 27.1835 29.5259H77.5709C81.4755 29.5259 84.6363 32.6867 84.6363 36.5541V50.2014C84.6363 50.4245 84.4504 50.6105 84.2272 50.6105Z" fill="#0078DB"/>
<path d="M77.5711 119.963H27.1837C27.035 119.963 26.9234 119.963 26.7747 119.963C23.056 119.74 20.1183 116.579 20.1183 112.749V111.001L20.0439 50.4246C20.0439 50.2014 20.2299 50.0155 20.453 50.0155C20.6761 50.0155 20.862 50.2014 20.862 50.4246L20.9364 112.786C20.9364 116.207 23.5395 118.996 26.8118 119.182C26.9234 119.182 27.0721 119.182 27.1837 119.182H77.5711C81.0294 119.182 83.8183 116.393 83.8183 112.935V55.8166C83.8183 55.5934 84.0043 55.4075 84.2274 55.4075C84.4505 55.4075 84.6364 55.5934 84.6364 55.8166V112.935C84.6364 116.802 81.4384 119.963 77.5711 119.963Z" fill="#0078DB"/>
<path d="M84.2262 43.8797H57.4149C57.1918 43.8797 57.0059 43.6938 57.0059 43.4707C57.0059 43.2476 57.1918 43.0616 57.4149 43.0616H84.2262C84.4493 43.0616 84.6352 43.2476 84.6352 43.4707C84.6352 43.6938 84.4493 43.8797 84.2262 43.8797Z" fill="#0078DB"/>
<path d="M75.86 38.6736C77.0717 38.6736 78.054 37.6913 78.054 36.4796C78.054 35.2679 77.0717 34.2856 75.86 34.2856C74.6483 34.2856 73.666 35.2679 73.666 36.4796C73.666 37.6913 74.6483 38.6736 75.86 38.6736Z" fill="white"/>
<path d="M75.8596 38.9711C74.4838 38.9711 73.3682 37.8555 73.3682 36.4796C73.3682 35.1037 74.4838 33.9882 75.8596 33.9882C77.2355 33.9882 78.3511 35.1037 78.3511 36.4796C78.3511 37.8555 77.2355 38.9711 75.8596 38.9711ZM75.8596 34.546C74.8184 34.546 73.926 35.4012 73.926 36.4796C73.926 37.5209 74.7812 38.4133 75.8596 38.4133C76.938 38.4133 77.7933 37.558 77.7933 36.4796C77.7933 35.4012 76.938 34.546 75.8596 34.546Z" fill="#FF4D4D"/>
<path d="M66.155 39.1942C67.6543 39.1942 68.8696 37.9788 68.8696 36.4796C68.8696 34.9804 67.6543 33.765 66.155 33.765C64.6558 33.765 63.4404 34.9804 63.4404 36.4796C63.4404 37.9788 64.6558 39.1942 66.155 39.1942Z" fill="#FF4D4D"/>
<path d="M66.1547 39.529C64.4814 39.529 63.1055 38.1531 63.1055 36.4797C63.1055 34.8063 64.4814 33.4304 66.1547 33.4304C67.8281 33.4304 69.204 34.8063 69.204 36.4797C69.204 38.1531 67.8281 39.529 66.1547 39.529ZM66.1547 34.137C64.8532 34.137 63.812 35.1782 63.812 36.4797C63.812 37.7812 64.8532 38.8224 66.1547 38.8224C67.4563 38.8224 68.4975 37.7812 68.4975 36.4797C68.4975 35.1782 67.4563 34.137 66.1547 34.137Z" fill="white"/>
<path d="M52.321 99.5103C42.5038 99.5103 34.5088 91.5153 34.5088 81.6981C34.5088 77.8308 35.7359 74.1493 38.0415 71.0629C38.1902 70.8397 38.4877 70.8026 38.7108 70.9513C38.9339 71.1001 38.9711 71.3975 38.8224 71.6207C36.6284 74.5584 35.4756 78.0167 35.4756 81.6981C35.4756 90.9947 43.0244 98.5435 52.321 98.5435C53.92 98.5435 55.519 98.3204 57.0065 97.8741C57.2668 97.7998 57.5271 97.9485 57.6014 98.2088C57.6758 98.4691 57.5271 98.7294 57.2668 98.8038C55.6678 99.2872 53.9944 99.5103 52.321 99.5103Z" fill="#0078DB"/>
<path d="M62.8077 95.9776C62.6589 95.9776 62.5102 95.9033 62.4358 95.7917C62.2871 95.5686 62.3243 95.2711 62.5102 95.1224C66.7494 91.8872 69.1665 87.0158 69.1665 81.7353C69.1665 72.4387 61.6177 64.8899 52.3212 64.8899C49.9041 64.8899 47.5613 65.4105 45.3673 66.3774C45.1442 66.4889 44.8467 66.3774 44.7352 66.1543C44.6236 65.9312 44.7352 65.6337 44.9583 65.5221C47.2638 64.4809 49.7553 63.9231 52.3212 63.9231C62.1383 63.9231 70.1334 71.9181 70.1334 81.6981C70.1334 87.3132 67.5675 92.4449 63.1052 95.8661C62.9936 95.9776 62.9192 95.9776 62.8077 95.9776Z" fill="#0078DB"/>
<path d="M52.3212 91.1434C57.5172 91.1434 61.7293 86.9312 61.7293 81.7353C61.7293 76.5393 57.5172 72.3271 52.3212 72.3271C47.1252 72.3271 42.9131 76.5393 42.9131 81.7353C42.9131 86.9312 47.1252 91.1434 52.3212 91.1434Z" fill="#0078DB"/>
<path d="M52.3213 89.8792C51.8751 89.8792 51.4289 89.842 50.9826 89.7676C50.7967 89.7304 50.648 89.5445 50.6852 89.3214C50.7223 89.0982 50.9083 88.9867 51.1314 89.0239C51.5404 89.0982 51.9495 89.1354 52.3585 89.1354C53.3997 89.1354 54.4038 88.9123 55.3334 88.5033C55.5194 88.4289 55.7425 88.5033 55.8169 88.6892C55.8912 88.8751 55.8169 89.0982 55.6309 89.1726C54.5525 89.656 53.4741 89.8792 52.3213 89.8792ZM47.0409 87.8339C46.9665 87.8339 46.855 87.7967 46.7806 87.7224C45.6278 86.644 44.7725 85.2681 44.4007 83.7434C44.3635 83.5575 44.4751 83.3344 44.661 83.2972C44.8469 83.26 45.07 83.3716 45.1072 83.5575C45.4419 84.9334 46.2228 86.1977 47.264 87.2018C47.4128 87.3505 47.4128 87.5736 47.3012 87.7224C47.264 87.7967 47.1525 87.8339 47.0409 87.8339ZM58.8289 86.3465C58.7546 86.3465 58.6802 86.3093 58.6058 86.2721C58.4199 86.1605 58.3827 85.9374 58.4943 85.7515C59.2752 84.5615 59.6842 83.1485 59.6842 81.6982C59.6842 80.471 59.3867 79.2439 58.7918 78.2027C58.6802 78.0168 58.7546 77.7936 58.9405 77.6821C59.1264 77.5705 59.3495 77.6449 59.4611 77.8308C60.0933 79.0208 60.4279 80.3595 60.4279 81.6982C60.4279 83.2972 59.9817 84.8218 59.0892 86.1605C59.0521 86.3093 58.9405 86.3465 58.8289 86.3465ZM44.9585 79.5786C44.9213 79.5786 44.8841 79.5786 44.8469 79.5414C44.661 79.467 44.5494 79.2439 44.6238 79.058C45.1444 77.5705 46.0741 76.269 47.3384 75.265C47.4871 75.1534 47.7474 75.1534 47.859 75.3393C47.9706 75.4881 47.9706 75.7484 47.7846 75.86C46.6319 76.7524 45.7766 77.9424 45.3303 79.2811C45.256 79.467 45.1444 79.5786 44.9585 79.5786ZM56.04 75.265C55.9656 75.265 55.9284 75.265 55.854 75.2278C54.5897 74.5584 53.1766 74.2609 51.7264 74.3725C51.5033 74.3725 51.3545 74.2238 51.3173 74.0378C51.3173 73.8147 51.4661 73.666 51.652 73.6288C53.251 73.5172 54.8128 73.8519 56.1887 74.5956C56.3746 74.7072 56.449 74.9303 56.3375 75.1162C56.3003 75.1906 56.1515 75.265 56.04 75.265Z" fill="white"/>
<path d="M84.2274 110.964V112.935C84.2274 116.616 81.2525 119.591 77.571 119.591H27.1837C27.0721 119.591 26.9234 119.591 26.8118 119.591C23.2791 119.405 20.5273 116.356 20.5273 112.786V111.038L20.6761 111.001H84.2274V110.964Z" fill="#0078DB"/>
<path d="M12.718 44.3631C12.7552 44.2887 12.8296 44.1771 12.8668 44.1028C13.9452 42.2063 13.3874 39.8263 11.6024 38.5992C8.4788 36.4424 9.59439 31.6082 13.313 31.0132C14.0939 30.9016 14.7633 30.567 15.3211 30.1207" fill="white"/>
<path d="M12.6805 44.8465C12.6062 44.8465 12.5318 44.8465 12.4574 44.8094C12.1971 44.6978 12.1227 44.4003 12.2343 44.14C12.2715 44.0284 12.3459 43.9541 12.3831 43.8425C13.3127 42.2063 12.8293 40.0495 11.2675 38.9711C9.66846 37.8555 8.92473 35.9962 9.37097 34.0997C9.8172 32.2032 11.2675 30.8273 13.2011 30.5298C13.8705 30.4183 14.4655 30.158 14.9861 29.7489C15.2092 29.563 15.5067 29.6002 15.6554 29.8233C15.8414 30.0464 15.8042 30.3439 15.5811 30.4927C14.9489 31.0133 14.168 31.3479 13.3499 31.4967C11.5278 31.757 10.5981 33.1329 10.3378 34.3228C10.0775 35.5128 10.3378 37.1118 11.8253 38.153C13.7961 39.5289 14.4283 42.2063 13.2383 44.2888C13.2011 44.3631 13.164 44.4375 13.1268 44.5491C13.0524 44.735 12.8665 44.8465 12.6805 44.8465Z" fill="#0078DB"/>
<path d="M35.5867 50.1269C33.5043 49.4948 31.3103 50.5732 30.4922 52.5812C29.1163 56.0767 24.1334 56.0767 22.7575 52.5812C21.9766 50.5732 19.7454 49.4948 17.663 50.1269C15.3574 50.8335 13.275 49.4948 12.5312 47.5983" fill="white"/>
<path d="M26.6251 55.7049C24.6915 55.7049 23.0181 54.5893 22.3115 52.7672C21.605 50.9823 19.6341 50.0526 17.812 50.6104C15.0974 51.4285 12.8662 49.7923 12.0853 47.7843C11.9738 47.524 12.1225 47.2637 12.3828 47.1521C12.6431 47.0405 12.9034 47.1893 13.015 47.4496C13.61 49.0114 15.3949 50.3501 17.5517 49.6808C19.8573 48.9742 22.3487 50.1642 23.2412 52.4325C23.9106 54.1431 25.4352 54.7381 26.6623 54.7381C27.8895 54.7381 29.4141 54.1431 30.0835 52.4325C30.9759 50.2014 33.4674 48.9742 35.773 49.6808C36.0333 49.7551 36.182 50.0154 36.1076 50.2757C36.0333 50.536 35.773 50.6848 35.5127 50.6104C33.6905 50.0526 31.7197 51.0195 31.0131 52.7672C30.2322 54.5522 28.5588 55.7049 26.6251 55.7049Z" fill="#0078DB"/>
<path d="M16.9199 25.2866C17.6265 22.386 21.3451 21.0102 23.7994 23.2413C25.3984 24.7288 27.8527 24.7288 29.4517 23.2413C32.2407 20.6755 36.703 22.8323 36.4055 26.5881C36.2568 28.7449 37.7814 30.6786 39.9382 31.0133C43.6568 31.571 44.7724 36.4424 41.6488 38.5621C39.8638 39.7892 39.306 42.1691 40.3844 44.0656C41.2769 45.6275 41.0538 47.3008 40.1613 48.528" fill="white"/>
<path d="M40.1984 49.0486C40.0868 49.0486 40.0125 49.0114 39.9009 48.9742C39.6778 48.8255 39.6406 48.528 39.7894 48.3049C40.6446 47.1149 40.719 45.6274 39.9753 44.3631C38.7853 42.2807 39.3803 39.5661 41.3884 38.2274C42.913 37.1862 43.1733 35.55 42.8758 34.3972C42.6155 33.2072 41.6858 31.8685 39.8637 31.571C37.4838 31.1992 35.7732 29.0424 35.922 26.6253C36.0707 24.8032 34.9551 23.576 33.8396 23.0554C32.7612 22.5348 31.0878 22.4232 29.7491 23.6504C27.9641 25.2866 25.2123 25.2866 23.4274 23.6504C22.4606 22.7579 21.159 22.4604 19.8947 22.8323C18.6304 23.2041 17.6635 24.2082 17.3661 25.4353C17.2917 25.6956 17.0314 25.8444 16.7711 25.8072C16.5108 25.7328 16.362 25.4725 16.3992 25.2122C16.7711 23.6504 17.9982 22.386 19.5972 21.9026C21.159 21.4192 22.8324 21.8283 24.0596 22.9438C25.4726 24.2454 27.6295 24.2454 29.0425 22.9438C30.4928 21.6051 32.4637 21.3076 34.2114 22.1629C35.9592 23.0182 36.9632 24.7288 36.8145 26.6997C36.6657 28.5962 38.0416 30.3067 39.9381 30.6042C41.8718 30.9017 43.322 32.2776 43.7683 34.1741C44.2145 36.0706 43.4708 37.9299 41.8718 39.0455C40.31 40.1239 39.8265 42.2435 40.7562 43.9169C41.6858 45.5159 41.5743 47.4124 40.5331 48.8998C40.4959 48.9742 40.3471 49.0486 40.1984 49.0486Z" fill="#0078DB"/>
<path d="M26.6257 46.966C31.76 46.966 35.9222 42.8038 35.9222 37.6695C35.9222 32.5351 31.76 28.3729 26.6257 28.3729C21.4913 28.3729 17.3291 32.5351 17.3291 37.6695C17.3291 42.8038 21.4913 46.966 26.6257 46.966Z" fill="#FF4D4D"/>
<path d="M26.4022 34.546L29.8606 32.7239L29.1912 36.5541L31.9802 39.3058L28.1128 39.8636L26.4022 43.3591L24.6545 39.8636L20.7871 39.3058L23.5761 36.5541L22.9439 32.7239L26.4022 34.546Z" fill="white"/>
<path d="M38.6735 6.39603L40.1981 3.90455C40.2725 3.79299 40.4212 3.86736 40.3841 3.97892L40.2353 6.7307C40.2353 6.76789 40.2353 6.80508 40.2725 6.84226L42.6524 8.47846C42.764 8.55283 42.6896 8.66439 42.578 8.66439L39.7519 8.6272C39.7147 8.6272 39.6775 8.66439 39.6403 8.66439L38.2273 11.1559C38.1901 11.2674 38.0041 11.1931 38.0413 11.0815L38.2273 8.25534C38.2273 8.21815 38.2272 8.18097 38.1901 8.14378L35.773 6.61915C35.6614 6.54477 35.7358 6.43321 35.8473 6.43321H38.5619C38.6363 6.43321 38.6735 6.39603 38.6735 6.39603Z" fill="#0078DB"/>
<path d="M29.8976 12.978L30.3438 9.40809C30.3438 9.25934 30.5669 9.25934 30.6041 9.3709L31.8313 12.5317C31.8313 12.5689 31.9056 12.6061 31.9428 12.6061L35.4383 13.2383C35.5871 13.2755 35.5871 13.4242 35.4755 13.4986L32.2775 14.8745C32.2403 14.8745 32.2031 14.9488 32.2031 14.986L31.8313 18.5187C31.8313 18.6675 31.6081 18.6675 31.571 18.5559L30.3438 15.3207C30.3438 15.2835 30.2694 15.2463 30.2323 15.2463L26.7739 14.7629C26.6252 14.7629 26.6252 14.577 26.7367 14.5026L29.786 13.1639C29.8604 13.0523 29.8976 13.0152 29.8976 12.978Z" fill="#0078DB"/>
<path d="M31.5338 1.7849L31.98 0.0743341C31.98 -3.8432e-05 32.0916 -3.8432e-05 32.0916 0.0743341L32.5006 1.71053C32.5006 1.74771 32.5378 1.74771 32.5378 1.74771L34.2112 2.30551C34.2856 2.30551 34.2856 2.41707 34.2112 2.41707L32.5378 2.8633C32.5006 2.8633 32.5006 2.90049 32.5006 2.90049L32.0916 4.61106C32.0916 4.68543 31.98 4.68543 31.98 4.61106L31.6081 2.93767C31.6081 2.90049 31.571 2.90049 31.571 2.90049L29.8976 2.41707C29.8232 2.41707 29.8232 2.30551 29.8976 2.30551L31.4966 1.85927C31.5338 1.82209 31.5338 1.7849 31.5338 1.7849Z" fill="#0078DB"/>
</g>
<defs>
<clipPath id="clip0">
<rect width="112.005" height="120" fill="white"/>
</clipPath>
</defs>
</svg>
