<svg width="106" height="120" viewBox="0 0 106 120" fill="none" xmlns="http://www.w3.org/2000/svg">
<g clip-path="url(#clip0)">
<path d="M62.9688 17.2799C62.9332 17.2799 62.8977 17.2799 62.8621 17.2444L60.551 16.4266C60.3733 16.3555 60.2666 16.1421 60.3377 15.9644C60.4088 15.7866 60.6221 15.6799 60.7999 15.751L63.111 16.5688C63.2888 16.6399 63.3955 16.8533 63.3244 17.031C63.2532 17.1733 63.111 17.2799 62.9688 17.2799Z" fill="#009DFE"/>
<path d="M64.6399 15.4667C64.5688 15.4667 64.5332 15.4667 64.4621 15.4312L62.791 14.5423C62.6132 14.4356 62.5421 14.2223 62.6487 14.0445C62.7554 13.8667 62.9688 13.7956 63.1465 13.9023L64.8176 14.7912C64.9954 14.8978 65.0665 15.1112 64.9599 15.289C64.8888 15.3956 64.7465 15.4667 64.6399 15.4667Z" fill="#009DFE"/>
<path d="M65.031 12.9422C64.9599 12.9422 64.9244 12.9422 64.8533 12.9066L63.4666 12.1244C63.2888 12.0177 63.2533 11.8044 63.3244 11.6266C63.431 11.4489 63.6444 11.4133 63.8222 11.4844L65.2088 12.2666C65.3866 12.3733 65.4222 12.5866 65.351 12.7644C65.2799 12.9066 65.1377 12.9422 65.031 12.9422Z" fill="#009DFE"/>
<path d="M58.4171 16.9955C56.6393 16.9955 55.0038 16.1066 54.0082 14.6489C53.9016 14.5066 53.9371 14.2933 54.1149 14.1866C54.2571 14.08 54.4705 14.1155 54.5771 14.2933C55.4305 15.5733 56.8882 16.32 58.4171 16.32C60.9771 16.32 63.0749 14.2222 63.0749 11.6622C63.0749 9.10219 60.9771 7.00441 58.4171 7.00441C56.106 7.00441 54.186 8.63997 53.8305 10.9155C53.7949 11.0933 53.6171 11.2355 53.4393 11.2C53.2616 11.1644 53.1193 10.9866 53.1549 10.8089C53.5816 8.2133 55.786 6.32886 58.4171 6.32886C61.3682 6.32886 63.7504 8.71108 63.7504 11.6622C63.7504 14.6133 61.3682 16.9955 58.4171 16.9955Z" fill="#FF4D4D"/>
<path d="M60.231 18.4178C58.6666 18.4178 57.2799 17.7423 56.071 16.4267C55.9288 16.2845 55.9643 16.0712 56.1066 15.9289C56.2488 15.7867 56.4621 15.8223 56.6043 15.9645C57.671 17.1378 58.8799 17.7423 60.2666 17.7423C62.8266 17.7423 64.9243 15.6445 64.9243 13.0845C64.9243 11.3423 63.9643 9.84894 62.2221 8.85338C62.0443 8.74671 62.0088 8.56894 62.0799 8.39116C62.1866 8.21338 62.3643 8.17783 62.5421 8.24894C64.4977 9.35116 65.5999 11.0578 65.5999 13.0489C65.5643 16 63.1466 18.4178 60.231 18.4178Z" fill="#FF4D4D"/>
<path d="M63.6442 9.84886C63.5731 9.84886 63.502 9.8133 63.4309 9.77775L61.3331 7.99997C61.1909 7.8933 61.1553 7.67997 61.2976 7.50219C61.4042 7.35997 61.6176 7.32441 61.7954 7.46664L63.8931 9.24442C64.0354 9.35108 64.0709 9.56442 63.9287 9.74219C63.8576 9.8133 63.7509 9.84886 63.6442 9.84886Z" fill="#FF4D4D"/>
<path d="M57.4216 17.4933C57.3505 17.4933 57.2794 17.4578 57.2083 17.4222L54.8616 15.6089C54.7194 15.5022 54.6839 15.2889 54.7905 15.1467C54.8972 15.0045 55.1105 14.9689 55.2528 15.0756L57.5994 16.8889C57.7416 16.9956 57.7772 17.2089 57.6705 17.3511C57.635 17.4578 57.5283 17.4933 57.4216 17.4933Z" fill="#FF4D4D"/>
<path d="M58.4177 17.0311C61.3829 17.0311 63.7866 14.6274 63.7866 11.6622C63.7866 8.69707 61.3829 6.29333 58.4177 6.29333C55.4526 6.29333 53.0488 8.69707 53.0488 11.6622C53.0488 14.6274 55.4526 17.0311 58.4177 17.0311Z" fill="#FF4D4D"/>
<path d="M56.9241 12.2311C56.6752 12.2311 56.4619 12.0178 56.4619 11.7689V10.0622C56.4619 9.10221 56.9597 8.53333 57.8841 8.53333C58.8086 8.53333 59.3064 9.10221 59.3064 10.0622V12.1955H59.7686V13.0844H59.3064V14.2578C59.3064 14.5067 59.093 14.72 58.8441 14.72C58.5952 14.72 58.3819 14.5067 58.3819 14.2578V9.9911C58.3819 9.56444 58.2041 9.38666 57.8841 9.38666C57.5641 9.38666 57.3864 9.52888 57.3864 9.9911V11.7333C57.3864 11.9822 57.173 12.1955 56.9241 12.1955V12.2311Z" fill="white"/>
<path d="M41.1019 9.52897C41.0664 9.52897 41.0308 9.52897 40.9953 9.49341L39.0042 8.7823C38.8264 8.71119 38.7197 8.49786 38.7908 8.32008C38.8619 8.1423 39.0753 8.03564 39.2531 8.10675L41.2442 8.81786C41.4219 8.88897 41.5286 9.1023 41.4575 9.28008C41.3864 9.45786 41.2442 9.52897 41.1019 9.52897Z" fill="#009DFE"/>
<path d="M42.3464 7.89333C42.2753 7.89333 42.2397 7.89333 42.1686 7.85777L40.8886 7.14666C40.7109 7.03999 40.6397 6.82666 40.7464 6.64888C40.8531 6.4711 41.0664 6.39999 41.2442 6.50666L42.5242 7.21777C42.702 7.32444 42.7731 7.53777 42.6664 7.71555C42.5953 7.82222 42.4886 7.89333 42.3464 7.89333Z" fill="#009DFE"/>
<path d="M42.8792 5.79548C42.8081 5.79548 42.7726 5.79548 42.7015 5.75993L41.5281 5.08437C41.3503 4.97771 41.3148 4.76437 41.3859 4.58659C41.4926 4.40882 41.7059 4.37326 41.8837 4.44437L43.057 5.11993C43.2348 5.22659 43.2703 5.43993 43.1992 5.61771C43.1281 5.75993 42.9859 5.79548 42.8792 5.79548Z" fill="#009DFE"/>
<path d="M37.1907 9.24441C35.6618 9.24441 34.2396 8.49774 33.3863 7.21774C33.2796 7.07552 33.3152 6.89774 33.4574 6.79108C33.5996 6.68441 33.7774 6.71997 33.8841 6.86219C34.6307 7.96441 35.8752 8.63997 37.1907 8.63997C39.3952 8.63997 41.2085 6.82663 41.2085 4.62219C41.2085 2.41774 39.3952 0.604411 37.1907 0.604411C35.1996 0.604411 33.5285 2.02663 33.2085 3.98219C33.173 4.15997 33.0307 4.26663 32.8885 4.23108C32.7107 4.19552 32.6041 4.0533 32.6396 3.91108C32.9952 1.67108 34.9152 0.0355225 37.1907 0.0355225C39.7152 0.0355225 41.7774 2.09774 41.7774 4.62219C41.7774 7.18219 39.7152 9.24441 37.1907 9.24441Z" fill="#FF4D4D"/>
<path d="M38.7199 10.4888C37.3688 10.4888 36.1599 9.91993 35.1288 8.7466C35.0221 8.63993 35.0221 8.4266 35.1643 8.31993C35.271 8.21326 35.4843 8.21326 35.591 8.35549C36.5154 9.3866 37.5821 9.88437 38.7554 9.88437C39.7865 9.88437 40.7821 9.49326 41.5288 8.7466C41.6354 8.63993 41.8488 8.63993 41.9554 8.7466C42.0621 8.85326 42.0621 9.0666 41.9554 9.17326C41.0665 10.0266 39.9288 10.4888 38.7199 10.4888Z" fill="#FF4D4D"/>
<path d="M42.9507 6.96892C42.9151 6.96892 42.9151 6.96892 42.8796 6.96892C42.7373 6.93336 42.6307 6.79114 42.6307 6.61336C42.6662 6.36448 42.7018 6.11559 42.7018 5.8667C42.7018 4.37336 41.884 3.05781 40.3551 2.20448C40.2129 2.13336 40.1773 1.95559 40.2484 1.81336C40.3196 1.67114 40.4973 1.63559 40.6396 1.7067C42.3462 2.6667 43.2707 4.16003 43.2707 5.8667C43.2707 6.15114 43.2351 6.43559 43.1996 6.72003C43.2351 6.86225 43.0929 6.96892 42.9507 6.96892Z" fill="#FF4D4D"/>
<path d="M41.7062 3.09333C41.6351 3.09333 41.564 3.05778 41.5284 3.02222L39.7151 1.49333C39.5729 1.38667 39.5729 1.20889 39.6795 1.06667C39.7862 0.924445 39.964 0.924445 40.1062 1.03111L41.9196 2.56C42.0618 2.66667 42.0618 2.84444 41.9551 2.98667C41.8484 3.05778 41.7773 3.09333 41.7062 3.09333Z" fill="#FF4D4D"/>
<path d="M36.3024 9.70665C36.2313 9.70665 36.1601 9.67109 36.1246 9.63554L34.0979 8.07109C33.9557 7.96443 33.9557 7.78665 34.0624 7.64443C34.169 7.5022 34.3468 7.5022 34.489 7.60887L36.5157 9.17331C36.6579 9.27998 36.6579 9.45776 36.5513 9.59998C36.4801 9.63554 36.409 9.70665 36.3024 9.70665Z" fill="#FF4D4D"/>
<path d="M37.1554 9.24444C39.7082 9.24444 41.7776 7.175 41.7776 4.62222C41.7776 2.06944 39.7082 0 37.1554 0C34.6026 0 32.5332 2.06944 32.5332 4.62222C32.5332 7.175 34.6026 9.24444 37.1554 9.24444Z" fill="#FF4D4D"/>
<path d="M35.8755 5.15553C35.6622 5.15553 35.4844 4.97776 35.4844 4.76442V3.30664C35.4844 2.45331 35.911 1.99109 36.7288 1.99109C37.5466 1.99109 37.9733 2.48887 37.9733 3.30664V5.15553H38.3999V5.9022H37.9733V6.89776C37.9733 7.11109 37.7955 7.28887 37.5822 7.28887C37.3688 7.28887 37.191 7.11109 37.191 6.89776V3.23553C37.191 2.84442 37.0133 2.73776 36.7644 2.73776C36.5155 2.73776 36.3377 2.87998 36.3377 3.23553V4.76442C36.3377 4.97776 36.1599 5.15553 35.9466 5.15553H35.8755Z" fill="white"/>
<path d="M47.0752 42.0978C47.0396 42.0978 47.0041 42.0978 46.9685 42.0623L44.2307 41.1022C44.0529 41.0311 43.9463 40.8178 44.0174 40.64C44.0885 40.4623 44.3018 40.3556 44.4796 40.4267L47.2174 41.3867C47.3952 41.4578 47.5018 41.6711 47.4307 41.8489C47.3596 42.0267 47.2529 42.0978 47.0752 42.0978Z" fill="#009DFE"/>
<path d="M49.0669 39.9645C48.9958 39.9645 48.9602 39.9645 48.8891 39.9289L46.9335 38.8622C46.7558 38.7556 46.6847 38.5422 46.7913 38.3645C46.898 38.1867 47.1113 38.1156 47.2891 38.2222L49.2447 39.2889C49.4224 39.3956 49.4935 39.6089 49.3869 39.7867C49.3158 39.8934 49.1736 39.9645 49.0669 39.9645Z" fill="#009DFE"/>
<path d="M49.529 37.0134C49.4578 37.0134 49.4223 37.0134 49.3512 36.9778L47.7156 36.0534C47.5378 35.9467 47.5023 35.7334 47.5734 35.5556C47.6801 35.3778 47.8934 35.3423 48.0712 35.4134L49.7067 36.3378C49.8845 36.4445 49.9201 36.6578 49.849 36.8356C49.7778 36.9423 49.6356 37.0134 49.529 37.0134Z" fill="#009DFE"/>
<path d="M41.7419 41.849C39.6441 41.849 37.7241 40.8179 36.5152 39.0757C36.373 38.8979 36.4441 38.649 36.6219 38.5068C36.7997 38.4001 37.0486 38.4357 37.1908 38.6134C38.2219 40.1068 39.9286 41.0312 41.7419 41.0312C44.7641 41.0312 47.2175 38.5779 47.2175 35.5557C47.2175 32.5334 44.7641 30.0801 41.7419 30.0801C39.0397 30.0801 36.7286 32.0357 36.3375 34.7023C36.3019 34.9157 36.0886 35.0579 35.8753 35.0223C35.6619 34.9868 35.5197 34.7734 35.5552 34.5601C36.053 31.5023 38.6486 29.2623 41.7775 29.2623C45.2619 29.2623 48.0708 32.0712 48.0708 35.5557C48.0708 39.0401 45.1908 41.849 41.7419 41.849Z" fill="#FF4D4D"/>
<path d="M43.8403 43.5201C41.9914 43.5201 40.3203 42.7379 38.9336 41.1379C38.7914 40.9601 38.7914 40.7112 38.9692 40.569C39.147 40.4268 39.3959 40.4268 39.5381 40.6045C40.7825 41.9912 42.2403 42.7023 43.8403 42.7023C46.8625 42.7023 49.3159 40.249 49.3159 37.2268C49.3159 35.1645 48.1781 33.3868 46.1159 32.249C45.9381 32.1423 45.867 31.8934 45.9737 31.7157C46.0803 31.5379 46.3292 31.4668 46.507 31.5734C48.8181 32.889 50.0981 34.9157 50.0981 37.2623C50.1336 40.6757 47.3248 43.5201 43.8403 43.5201Z" fill="#FF4D4D"/>
<path d="M47.8935 33.4223C47.7868 33.4223 47.7157 33.3868 47.6446 33.3157L45.1557 31.2179C44.9779 31.0757 44.9779 30.8268 45.1202 30.649C45.2624 30.4712 45.5113 30.4712 45.6891 30.6135L48.1779 32.7112C48.3557 32.8535 48.3557 33.1023 48.2135 33.2801C48.1424 33.3868 48.0002 33.4223 47.8935 33.4223Z" fill="#FF4D4D"/>
<path d="M40.5336 42.4535C40.4625 42.4535 40.3559 42.4179 40.2847 42.3824L37.5114 40.2135C37.3336 40.0713 37.2981 39.8224 37.4403 39.6446C37.5825 39.4668 37.8314 39.4313 38.0092 39.5735L40.7825 41.7424C40.9603 41.8846 40.9959 42.1335 40.8536 42.3112C40.7825 42.3824 40.6403 42.4535 40.5336 42.4535Z" fill="#FF4D4D"/>
<path d="M41.7068 41.8489C45.2022 41.8489 48.0357 39.0154 48.0357 35.5201C48.0357 32.0247 45.2022 29.1912 41.7068 29.1912C38.2115 29.1912 35.3779 32.0247 35.3779 35.5201C35.3779 39.0154 38.2115 41.8489 41.7068 41.8489Z" fill="#FF4D4D"/>
<path d="M39.964 36.2312C39.6796 36.2312 39.4307 35.9823 39.4307 35.6979V33.7068C39.4307 32.569 39.9996 31.8934 41.1373 31.8934C42.2396 31.8934 42.844 32.569 42.844 33.7068V36.2668H43.4129V37.2979H42.844V38.6845C42.844 38.969 42.5951 39.2179 42.3107 39.2179C42.0262 39.2179 41.7773 38.969 41.7773 38.6845V33.6357C41.7773 33.1023 41.564 32.9245 41.1729 32.9245C40.8173 32.9245 40.5684 33.1023 40.5684 33.6357V35.6979C40.5684 35.9823 40.3196 36.2312 40.0351 36.2312H39.964Z" fill="white"/>
<path d="M54.6844 114.809H48.9244C48.7466 114.809 48.5689 114.667 48.5689 114.453C48.5689 114.24 48.7111 114.098 48.9244 114.098H54.6844C57.1377 114.098 59.5555 113.813 61.9022 113.28C62.08 113.244 62.2933 113.351 62.3289 113.529C62.3644 113.707 62.2578 113.92 62.08 113.956C59.6622 114.524 57.2089 114.809 54.6844 114.809ZM45.4755 114.809H40.64C39.9644 114.809 39.6444 114.809 38.9333 114.738C38.7555 114.738 38.6133 114.56 38.6133 114.382C38.6133 114.204 38.7911 114.062 38.9689 114.062C39.6444 114.098 39.9289 114.133 40.6044 114.133H45.44C45.6178 114.133 45.7955 114.276 45.7955 114.489C45.7955 114.702 45.6533 114.809 45.4755 114.809ZM29.6889 112.889C29.6533 112.889 29.6178 112.889 29.5822 112.853C21.2622 109.973 14.9689 103.964 11.84 95.9289C11.3422 96.0355 10.8444 96.1066 10.3466 96.1066C6.89776 96.1066 4.08887 93.4755 4.08887 90.24C4.08887 89.7066 4.19553 89.1022 4.44442 88.4622C4.44442 88.4622 4.47998 88.4266 4.47998 88.3911C5.29776 86.1866 7.32442 84.6222 9.7422 84.2311L10.1689 84.16C10.88 77.1911 14.1866 70.3289 18.9866 65.8489C28.9066 56.5689 39.6089 55.5022 46.7911 55.5022C63.5378 55.5022 75.0222 60.1955 80.9244 69.4755C81.0311 69.6533 80.9955 69.8666 80.8177 69.9378C80.64 70.0444 80.4266 70.0089 80.3555 69.8311C74.5955 60.7644 63.3244 56.1778 46.8266 56.1778C32.0711 56.1778 24.1422 61.9733 19.4844 66.3466C14.72 70.7911 11.4844 77.5822 10.8444 84.5155C10.8444 84.6578 10.7022 84.8 10.56 84.8355L9.88442 84.9422C7.71553 85.2622 5.9022 86.6844 5.19109 88.64L4.83553 88.5689L5.15553 88.6755C4.9422 89.2444 4.83553 89.7422 4.83553 90.2044C4.83553 93.0489 7.32442 95.36 10.3822 95.36C10.8444 95.36 11.2711 95.3244 11.7333 95.2178C12.3022 95.0755 12.8 94.8266 13.2978 94.5066C13.4755 94.4 13.6889 94.4355 13.7955 94.6133C13.9022 94.7911 13.8666 95.0044 13.6889 95.1111C13.3333 95.36 12.9422 95.5378 12.5511 95.7155C15.6089 103.538 21.7244 109.404 29.8666 112.213C30.0444 112.284 30.1511 112.462 30.08 112.64C29.9733 112.818 29.8666 112.889 29.6889 112.889ZM71.2533 110.329C71.1466 110.329 71.0044 110.258 70.9333 110.151C70.8266 109.973 70.8977 109.76 71.0755 109.689C72.96 108.622 73.92 107.733 75.3777 106.347L75.84 105.92C81.4933 100.658 84.5866 93.6533 84.5866 86.1866C84.5866 86.0089 84.7289 85.8311 84.9422 85.8311C85.1555 85.8311 85.2977 85.9733 85.2977 86.1866C85.2977 93.8311 82.0977 101.049 76.3377 106.453L75.8755 106.88C74.4177 108.231 73.3866 109.227 71.4311 110.329C71.3955 110.329 71.3244 110.329 71.2533 110.329ZM15.36 93.2622C15.2889 93.2622 15.2533 93.2622 15.1822 93.2266C15.0044 93.12 14.9689 92.9066 15.0755 92.7644C15.5378 92.0178 15.7511 91.2 15.7511 90.3822C15.7511 89.2089 15.3244 88.1066 14.5422 87.1822C14.4 87.04 14.4355 86.8266 14.5778 86.6844C14.72 86.5422 14.9333 86.5778 15.0755 86.72C15.9644 87.7511 16.4622 89.0311 16.4622 90.3466C16.4622 91.2711 16.1778 92.2311 15.68 93.0844C15.5733 93.2266 15.4666 93.2622 15.36 93.2622Z" fill="#FF4D4D"/>
<path d="M7.11159 91.3422C7.70069 91.3422 8.17825 90.8965 8.17825 90.3466C8.17825 89.7968 7.70069 89.3511 7.11159 89.3511C6.52248 89.3511 6.04492 89.7968 6.04492 90.3466C6.04492 90.8965 6.52248 91.3422 7.11159 91.3422Z" fill="#FF4D4D"/>
<path d="M11.6981 91.4844C12.3658 91.4844 12.907 90.975 12.907 90.3466C12.907 89.7183 12.3658 89.2089 11.6981 89.2089C11.0305 89.2089 10.4893 89.7183 10.4893 90.3466C10.4893 90.975 11.0305 91.4844 11.6981 91.4844Z" fill="#FF4D4D"/>
<path d="M49.315 55.8934C49.315 55.8934 42.1684 56.3912 31.7861 61.7245L40.3195 62.2934C40.3195 62.2934 47.395 58.3468 58.7017 56.8534L49.315 55.8934Z" fill="#009DFE"/>
<path d="M40.3194 62.6489L31.7861 62.0801C31.6439 62.0801 31.5016 61.9734 31.4661 61.7956C31.4305 61.6534 31.5016 61.4756 31.6439 61.4045C41.9905 56.1067 49.2439 55.5378 49.315 55.5378C49.3505 55.5378 49.3505 55.5378 49.3861 55.5378L58.7728 56.4978C58.9505 56.4978 59.0928 56.6756 59.0928 56.8534C59.0928 57.0312 58.9505 57.1734 58.8083 57.209C47.715 58.7023 40.6394 62.5778 40.5683 62.6134C40.4261 62.649 40.3905 62.6489 40.3194 62.6489ZM33.1016 61.4756L40.2483 61.9378C41.0305 61.5112 46.9328 58.5245 55.9639 56.9245L49.315 56.249C48.8528 56.2845 42.3461 56.9245 33.1016 61.4756Z" fill="#FF4D4D"/>
<path d="M35.3776 119.964C35.2354 119.964 35.1287 119.893 35.0576 119.751L34.4531 118.044L33.8131 119.751C33.7776 119.893 33.6354 119.964 33.4931 119.964C31.1465 119.964 29.582 118.258 29.582 115.698V111.004C29.582 110.827 29.7243 110.684 29.902 110.684C30.0798 110.684 30.222 110.827 30.222 111.004V115.698C30.222 117.796 31.3954 119.182 33.2443 119.289L34.1331 116.978C34.1687 116.836 34.3109 116.764 34.4531 116.764C34.5954 116.764 34.702 116.836 34.7731 116.978L35.6265 119.289C37.4754 119.182 38.6487 117.796 38.6487 115.698V111.004C38.6487 110.827 38.7909 110.684 38.9687 110.684C39.1465 110.684 39.2887 110.827 39.2887 111.004V115.698C39.2887 118.258 37.7243 119.964 35.3776 119.964Z" fill="#FF4D4D"/>
<path d="M67.4495 119.964C67.3072 119.964 67.2006 119.893 67.1295 119.751L66.525 118.044L65.9206 119.751C65.885 119.893 65.7428 119.964 65.6006 119.964C63.2539 119.964 61.6895 118.258 61.6895 115.698V111.004C61.6895 110.827 61.8317 110.684 62.0095 110.684C62.1872 110.684 62.3295 110.827 62.3295 111.004V115.698C62.3295 117.796 63.5028 119.182 65.3517 119.289L66.205 116.978C66.2406 116.836 66.3828 116.764 66.525 116.764C66.6672 116.764 66.7739 116.836 66.845 116.978L67.6983 119.289C69.5472 119.182 70.7206 117.796 70.7206 115.698L70.9695 109.938C70.9695 109.76 71.1117 109.618 71.325 109.618C71.5028 109.618 71.645 109.796 71.645 109.973L71.3961 115.698C71.3606 118.258 69.7961 119.964 67.4495 119.964Z" fill="#FF4D4D"/>
<path d="M13.2979 74.7734C13.1201 74.7734 12.9423 74.6312 12.9423 74.4534L12.3379 59.9823C12.3379 59.9467 12.3379 59.9467 12.3379 59.9112C12.3734 59.5912 12.5868 59.3067 12.8712 59.1289C13.1912 58.9512 13.5468 58.9156 13.9023 59.0223C15.7512 59.6623 19.5201 62.5067 21.1557 64.4623C21.2623 64.6045 21.2623 64.8178 21.1201 64.9601C20.9779 65.0667 20.7646 65.0667 20.6223 64.9245C19.0579 63.0401 15.3957 60.3023 13.6534 59.6978C13.5112 59.6623 13.3334 59.6623 13.2268 59.7334C13.1557 59.7689 13.049 59.8401 13.0134 59.9823L13.5823 74.3823C13.6534 74.5956 13.5112 74.7734 13.2979 74.7734Z" fill="#FF4D4D"/>
<path d="M46.3294 77.5823C46.1516 77.5823 46.0094 77.4401 45.9739 77.2623C45.6894 72.2845 42.3116 67.9112 37.2983 66.1334C37.1561 66.0978 36.9783 66.0978 36.8716 66.1689C36.8005 66.2045 36.6939 66.3112 36.6583 66.4534L35.3783 74.2756C35.3428 74.4534 35.165 74.5956 34.9872 74.5601C34.8094 74.5245 34.6672 74.3467 34.7028 74.1689L35.9827 66.3467C36.0183 66.0267 36.2316 65.7423 36.5161 65.5645C36.8361 65.3867 37.1916 65.3512 37.5472 65.4578C42.8094 67.3067 46.4005 71.9289 46.685 77.1912C46.685 77.4045 46.5428 77.5823 46.3294 77.5823Z" fill="#FF4D4D"/>
<path d="M41.315 75.3779C41.3506 73.2801 39.9284 69.8667 37.4039 65.8134C37.2617 65.5645 36.2306 66.1334 36.3017 66.4179C36.5506 67.7334 35.5906 73.0667 34.915 74.5956C36.9773 74.2045 39.1106 74.5956 40.8884 75.6979L40.9595 75.7334C41.1728 75.8045 41.315 75.5912 41.315 75.3779Z" fill="#FF4D4D"/>
<path d="M23.7155 98.9867C22.9689 98.9867 22.1866 98.8089 21.3333 98.4889C21.12 98.4178 21.0133 98.1689 21.12 97.9555C21.2266 97.7422 21.44 97.6355 21.6533 97.7067C23.04 98.24 24.2489 98.2755 25.1733 97.8489C26.4177 97.2444 26.8444 96 26.8444 95.9644C26.9155 95.7511 27.1289 95.6444 27.3422 95.7155C27.5555 95.7867 27.6622 96 27.5911 96.2133C27.5555 96.2844 27.0577 97.8133 25.4933 98.56C24.96 98.8444 24.3555 98.9867 23.7155 98.9867Z" fill="#FF4D4D"/>
<path d="M28.1605 82.3822C28.0183 82.3822 27.8761 82.3111 27.805 82.1689C26.9516 80.7111 26.1339 79.9644 25.4227 80C24.6405 80.0355 24.0361 81.0666 23.8583 81.4578C23.7872 81.6711 23.5383 81.7422 23.325 81.6711C23.1116 81.6 23.0405 81.3511 23.1116 81.1378C23.1472 81.0666 23.9294 79.2889 25.3516 79.1822C26.4183 79.1111 27.4494 79.9644 28.4805 81.7422C28.5872 81.92 28.5161 82.1689 28.3383 82.2755C28.3027 82.3822 28.2316 82.3822 28.1605 82.3822Z" fill="#FF4D4D"/>
<path d="M15.7157 82.3822C15.5735 82.3822 15.4312 82.3111 15.3601 82.1689C14.5068 80.6755 13.689 79.9289 13.0135 80C12.3024 80.0711 11.7335 81.0311 11.5912 81.4222C11.5201 81.6355 11.2712 81.7422 11.0579 81.6355C10.8446 81.5644 10.7379 81.3155 10.8446 81.1022C10.8801 81.0311 11.5912 79.2889 12.9424 79.1822C13.9735 79.1111 15.0046 79.9644 16.0712 81.7778C16.1779 81.9555 16.1068 82.2044 15.929 82.3111C15.8224 82.3822 15.7512 82.3822 15.7157 82.3822Z" fill="#FF4D4D"/>
<path d="M13.1913 59.3778C13.1913 59.3778 16.2847 64.3556 16.1069 69.7245L13.298 73.4934C13.2625 73.4934 12.1602 60.4089 13.1913 59.3778Z" fill="#FF4D4D"/>
<path d="M81.7419 80.3555C82.5597 79.1822 83.3063 78.0088 83.9819 76.7644C83.7686 76.8355 83.5552 76.8711 83.3775 76.9422C84.7641 77.8666 86.4708 81.5999 88.4975 81.1377C90.133 80.7822 90.3463 77.12 90.6308 75.9111C90.3463 75.9466 90.0619 75.9822 89.813 76.0177C90.8086 77.5466 91.9108 78.9688 93.8308 79.2177C94.3997 79.2888 94.6486 78.4355 94.0797 78.3288C92.4086 78.08 91.4841 76.8711 90.5952 75.52C90.3819 75.2 89.8486 75.2355 89.7775 75.6266C89.5286 76.6222 89.3863 77.6888 89.0663 78.6844C88.7108 79.8933 88.3908 80.6399 87.1108 79.5377C85.9019 78.4711 85.1908 77.0488 83.8041 76.1244C83.5908 75.9822 83.3063 76.0888 83.1997 76.3022C82.5241 77.5466 81.7775 78.7555 80.9597 79.8933C80.6041 80.3555 81.3863 80.8177 81.7419 80.3555Z" fill="#FF4D4D"/>
<path d="M84.9778 120H24.1778C24 120 23.8223 119.858 23.8223 119.644C23.8223 119.431 23.9645 119.289 24.1778 119.289H84.9778C85.1556 119.289 85.3334 119.431 85.3334 119.644C85.3334 119.858 85.1556 120 84.9778 120Z" fill="#FF4D4D"/>
<path d="M14.4356 120H0.355556C0.177778 120 0 119.858 0 119.644C0 119.431 0.142222 119.289 0.355556 119.289H14.4356C14.6133 119.289 14.7911 119.431 14.7911 119.644C14.7911 119.858 14.6133 120 14.4356 120Z" fill="#FF4D4D"/>
<path d="M105.529 120H91.4493C91.2715 120 91.0938 119.858 91.0938 119.644C91.0938 119.431 91.236 119.289 91.4493 119.289H105.529C105.707 119.289 105.885 119.431 105.885 119.644C105.885 119.858 105.707 120 105.529 120Z" fill="#FF4D4D"/>
</g>
<defs>
<clipPath id="clip0">
<rect width="105.849" height="120" fill="white"/>
</clipPath>
</defs>
</svg>
