<svg width="162" height="100" viewBox="0 0 162 100" fill="none" xmlns="http://www.w3.org/2000/svg">
<g clip-path="url(#clip0)">
<path fill-rule="evenodd" clip-rule="evenodd" d="M116.246 69.9537C116.246 69.5677 116.559 69.2548 116.945 69.2548H161.204C161.59 69.2548 161.903 69.5677 161.903 69.9537C161.903 70.3397 161.59 70.6526 161.204 70.6526H116.945C116.559 70.6526 116.246 70.3397 116.246 69.9537Z" fill="#0078DB"/>
<path fill-rule="evenodd" clip-rule="evenodd" d="M116.246 56.8981C116.246 56.5121 116.559 56.1992 116.945 56.1992H147.686C148.072 56.1992 148.385 56.5121 148.385 56.8981C148.385 57.2841 148.072 57.597 147.686 57.597H116.945C116.559 57.597 116.246 57.2841 116.246 56.8981Z" fill="#0078DB"/>
<path fill-rule="evenodd" clip-rule="evenodd" d="M116.246 44.6759C116.246 44.29 116.559 43.9771 116.945 43.9771H136.621C137.007 43.9771 137.32 44.29 137.32 44.6759C137.32 45.0619 137.007 45.3748 136.621 45.3748H116.945C116.559 45.3748 116.246 45.0619 116.246 44.6759Z" fill="#0078DB"/>
<path d="M73.611 15.4167H62.9629V8.28704C62.9629 6.3426 64.537 4.81482 66.4351 4.81482H70.0925C72.037 4.81482 73.5647 6.38889 73.5647 8.28704V15.4167H73.611Z" fill="#FF4D4D"/>
<path d="M75.4168 8.10177H59.9075C58.889 8.10177 58.0557 7.26844 58.0557 6.24992C58.0557 5.2314 58.889 4.39807 59.9075 4.39807H75.4168C76.4353 4.39807 77.2686 5.2314 77.2686 6.24992C77.2686 7.26844 76.4353 8.10177 75.4168 8.10177Z" fill="white"/>
<path fill-rule="evenodd" clip-rule="evenodd" d="M59.9077 4.99398C59.2182 4.99398 58.6517 5.56054 58.6517 6.24997C58.6517 6.9394 59.2182 7.50595 59.9077 7.50595H75.4169C76.1064 7.50595 76.6729 6.9394 76.6729 6.24997C76.6729 5.56054 76.1064 4.99398 75.4169 4.99398H59.9077ZM57.46 6.24997C57.46 4.90236 58.5601 3.80225 59.9077 3.80225H75.4169C76.7645 3.80225 77.8647 4.90236 77.8647 6.24997C77.8647 7.59757 76.7645 8.69769 75.4169 8.69769H59.9077C58.5601 8.69769 57.46 7.59757 57.46 6.24997Z" fill="#FF4D4D"/>
<path d="M104.537 39.537C108.287 47.3148 107.778 64.2592 101.343 73.9351C95.2782 83.1018 85.8338 91.2962 74.2597 92.824C63.7967 94.1666 50.5097 90.9259 40.9727 83.3333" fill="white"/>
<path fill-rule="evenodd" clip-rule="evenodd" d="M104.301 39.0476C104.571 38.9172 104.896 39.0307 105.026 39.301C106.959 43.3091 107.768 49.5968 107.301 56.0634C106.834 62.5369 105.082 69.293 101.795 74.2352C101.795 74.2355 101.795 74.2358 101.795 74.236L101.342 73.9351L101.796 74.2349C101.796 74.235 101.795 74.2351 101.795 74.2352C95.6816 83.4758 86.1171 91.8068 74.3302 93.3627L74.3283 93.363C63.724 94.7237 50.289 91.4451 40.6337 83.7584C40.3989 83.5715 40.3601 83.2296 40.547 82.9949C40.7339 82.7601 41.0757 82.7213 41.3105 82.9082C50.7289 90.4064 63.8673 93.6093 74.1888 92.2853C74.1885 92.2853 74.1883 92.2853 74.188 92.2854L74.2591 92.824L74.19 92.2851C74.1896 92.2852 74.1892 92.2852 74.1888 92.2853C85.5496 90.7853 94.8736 82.7278 100.889 73.6353L100.89 73.6342C104.038 68.9006 105.758 62.3469 106.217 55.9852C106.677 49.6161 105.865 43.5427 104.047 39.773C103.917 39.5027 104.031 39.1779 104.301 39.0476Z" fill="#FF4D4D"/>
<path d="M110.139 81.7129C110.972 80.6481 111.852 79.4907 112.824 78.1944C120.324 68.1481 122.547 55.6018 120.278 44.1203C117.824 31.5277 111.389 21.4351 103.056 14.861C89.6299 4.30548 78.1484 0.462891 78.1484 0.462891C78.1484 0.462891 76.8984 2.12956 76.4817 4.72215C76.3428 5.64808 76.2965 6.66659 76.4354 7.77771C76.7595 10.5555 78.241 13.8888 82.1762 17.3147C83.6113 18.611 85.4169 19.9073 87.5928 21.2036C88.7502 21.8981 89.8151 22.5462 90.7873 23.1944" fill="white"/>
<path fill-rule="evenodd" clip-rule="evenodd" d="M78.3212 -0.0523186L78.1488 0.462933L77.7141 0.136927C77.8546 -0.0503627 78.0992 -0.12662 78.3212 -0.0523186ZM120.811 44.015C123.107 55.6327 120.861 68.3385 113.26 78.5195L113.259 78.5204C112.286 79.8181 111.404 80.9788 110.567 82.0478C110.382 82.2841 110.041 82.3258 109.805 82.1408C109.568 81.9559 109.527 81.6144 109.712 81.3781C110.542 80.3174 111.419 79.1633 112.39 77.8684C119.789 67.9569 121.987 55.5706 119.745 44.2257L119.745 44.2243C117.315 31.7545 110.947 21.7783 102.72 15.2878C96.0406 10.0367 89.8461 6.45608 85.3243 4.18941C83.0635 3.05615 81.2215 2.25167 79.9471 1.73129C79.3099 1.47111 78.8147 1.28199 78.48 1.15833C78.4401 1.14359 78.4025 1.12979 78.3672 1.1169C78.2565 1.29708 78.1131 1.54757 77.9592 1.86028C77.6129 2.56387 77.217 3.57565 77.019 4.80561C76.8866 5.6896 76.8433 6.65684 76.9749 7.71035L76.9755 7.71478C77.2816 10.3388 78.6844 13.5541 82.5333 16.905L82.5407 16.9116C83.9427 18.1779 85.7172 19.4536 87.8713 20.7369L87.8728 20.7378C89.0304 21.4324 90.1051 22.0863 91.089 22.7423C91.3387 22.9088 91.4062 23.2461 91.2397 23.4958C91.0733 23.7455 90.7359 23.813 90.4863 23.6465C89.5261 23.0064 88.4714 22.3643 87.3147 21.6702M75.8964 7.84293C75.7508 6.6762 75.7998 5.60808 75.9448 4.64159L75.9456 4.63597C76.1644 3.2746 76.6016 2.15776 76.9842 1.3804C77.1757 0.991204 77.3545 0.685412 77.4869 0.474672C77.5532 0.369249 77.608 0.287443 77.6472 0.230709C77.6669 0.202336 77.6826 0.180216 77.6939 0.16453L77.7075 0.145842L77.7117 0.140155L77.7131 0.138232L77.7141 0.136927C77.7142 0.13679 77.7141 0.136927 78.1488 0.462933C78.3212 -0.0523186 78.321 -0.052388 78.3212 -0.0523186L78.3243 -0.051292L78.3315 -0.0488466L78.3584 -0.039666C78.3818 -0.0316281 78.4162 -0.0197404 78.4612 -0.00391498C78.5512 0.0277356 78.6838 0.0751381 78.8566 0.138995C79.2023 0.266708 79.7089 0.460249 80.3579 0.725245C81.6558 1.25522 83.5234 2.07111 85.8112 3.21794C90.3865 5.5114 96.6455 9.12977 103.392 14.4339L103.393 14.4345C111.832 21.0919 118.334 31.3003 120.811 44.015" fill="#FF4D4D"/>
<path d="M98.334 99.537C99.2599 96.2499 100.788 93.7036 103.103 90.6481L98.334 99.537Z" fill="white"/>
<path fill-rule="evenodd" clip-rule="evenodd" d="M103.43 90.215C103.669 90.3962 103.716 90.737 103.535 90.9762C101.241 94.005 99.7566 96.489 98.8565 99.6843C98.7751 99.9731 98.475 100.141 98.1862 100.06C97.8974 99.9786 97.7292 99.6785 97.8105 99.3897C98.7623 96.0109 100.334 93.4024 102.669 90.32C102.85 90.0808 103.191 90.0338 103.43 90.215Z" fill="#FF4D4D"/>
<path d="M33.3799 77.1759L37.2225 80.787C37.2225 80.787 44.2132 89.0741 47.3151 95.9259" fill="white"/>
<path fill-rule="evenodd" clip-rule="evenodd" d="M32.9843 76.8038C33.1898 76.5851 33.5337 76.5745 33.7523 76.78L37.5949 80.3911C37.6102 80.4054 37.6246 80.4207 37.6382 80.4367L37.2229 80.787C37.6382 80.4367 37.6381 80.4366 37.6382 80.4367L37.6438 80.4433L37.6594 80.4619C37.673 80.4782 37.6932 80.5024 37.7196 80.534C37.7723 80.5972 37.8497 80.6905 37.9491 80.8115C38.1479 81.0535 38.4349 81.4061 38.7887 81.8505C39.4962 82.7391 40.4718 83.9953 41.545 85.4669C43.6861 88.4029 46.2359 92.2239 47.8104 95.7018C47.9342 95.9752 47.8129 96.2971 47.5395 96.4209C47.2661 96.5446 46.9442 96.4234 46.8205 96.15C45.2931 92.7761 42.7967 89.0276 40.6669 86.1072C39.6047 84.6505 38.6387 83.4067 37.9386 82.5274C37.5885 82.0878 37.3051 81.7395 37.1095 81.5015C37.0117 81.3824 36.9359 81.291 36.8847 81.2295C36.8596 81.1994 36.8404 81.1765 36.8274 81.161L33.0082 77.5719C32.7895 77.3664 32.7788 77.0225 32.9843 76.8038Z" fill="#FF4D4D"/>
<path d="M39.0739 26.7593C39.0739 26.7593 38.2869 26.8982 36.6202 27.2685C36.0184 27.4074 35.2776 27.5 34.4443 27.7315C31.6202 28.4722 29.3054 29.5371 27.1758 28.6574C27.1758 28.6574 30.1387 37.4537 29.7684 40.6019C29.5369 42.4537 29.4443 44.3519 29.0276 45.7871C28.4258 47.8241 27.5462 48.9815 27.5462 48.9815L29.0739 49.213C29.0739 49.213 29.0276 47.3148 29.861 43.5185C30.5091 40.6019 31.2961 37.5463 32.2684 35.5093C33.0091 33.9352 33.7036 32.7315 34.4443 31.7593C35.4165 30.4167 36.4813 29.1667 39.0739 26.7593Z" fill="#FF4D4D"/>
<path d="M37.5009 28.5184C44.7694 19.9999 55.6028 14.6295 67.6861 14.6295C89.6305 14.6295 107.408 32.4073 107.408 54.3517C107.408 76.2962 89.6305 94.074 67.6861 94.074C45.7416 94.074 27.9639 76.2962 27.9639 54.3517C27.9639 51.2036 28.3342 48.1017 29.0287 45.1851" fill="white"/>
<path fill-rule="evenodd" clip-rule="evenodd" d="M67.6857 15.2883C55.8017 15.2883 45.1493 20.5692 38.0017 28.946C37.7655 29.2228 37.3497 29.2557 37.0729 29.0196C36.7961 28.7834 36.7632 28.3676 36.9994 28.0908C44.3888 19.4306 55.403 13.9707 67.6857 13.9707C89.994 13.9707 108.067 32.0434 108.067 54.3517C108.067 76.66 89.994 94.7328 67.6857 94.7328C45.3774 94.7328 27.3047 76.66 27.3047 54.3517C27.3047 51.1526 27.681 47.9995 28.3874 45.0325C28.4717 44.6785 28.827 44.4599 29.1809 44.5442C29.5349 44.6285 29.7535 44.9837 29.6692 45.3377C28.9868 48.204 28.6223 51.2546 28.6223 54.3517C28.6223 75.9323 46.1051 93.4151 67.6857 93.4151C89.2663 93.4151 106.749 75.9323 106.749 54.3517C106.749 32.7712 89.2663 15.2883 67.6857 15.2883Z" fill="#0078DB"/>
<path d="M67.6388 79.2592C81.2669 79.2592 92.3147 68.2114 92.3147 54.5833C92.3147 40.9551 81.2669 29.9073 67.6388 29.9073C54.0107 29.9073 42.9629 40.9551 42.9629 54.5833C42.9629 68.2114 54.0107 79.2592 67.6388 79.2592Z" fill="#FF4D4D"/>
<path fill-rule="evenodd" clip-rule="evenodd" d="M23.4385 99.537C23.4385 99.2369 23.6817 98.9937 23.9818 98.9937H118.38C118.68 98.9937 118.923 99.2369 118.923 99.537C118.923 99.8371 118.68 100.08 118.38 100.08H23.9818C23.6817 100.08 23.4385 99.8371 23.4385 99.537Z" fill="#FF4D4D"/>
<path fill-rule="evenodd" clip-rule="evenodd" d="M-0.0800781 99.4443C-0.0800781 99.1443 0.163184 98.901 0.463264 98.901H16.2966C16.5967 98.901 16.8399 99.1443 16.8399 99.4443C16.8399 99.7444 16.5967 99.9877 16.2966 99.9877H0.463264C0.163184 99.9877 -0.0800781 99.7444 -0.0800781 99.4443Z" fill="#FF4D4D"/>
<path fill-rule="evenodd" clip-rule="evenodd" d="M122.698 99.537C122.698 99.2369 122.942 98.9937 123.242 98.9937H139.075C139.375 98.9937 139.618 99.2369 139.618 99.537C139.618 99.8371 139.375 100.08 139.075 100.08H123.242C122.942 100.08 122.698 99.8371 122.698 99.537Z" fill="#FF4D4D"/>
<path d="M67.639 58.8888C70.1703 58.8888 72.2223 56.8368 72.2223 54.3055C72.2223 51.7742 70.1703 49.7222 67.639 49.7222C65.1077 49.7222 63.0557 51.7742 63.0557 54.3055C63.0557 56.8368 65.1077 58.8888 67.639 58.8888Z" fill="#0078DB"/>
<path d="M21.3426 67.7314C21.3426 67.7314 19.1204 65.9722 16.1111 66.0185C14.1204 66.0648 9.67592 69.9074 15.0926 74.3518C20.5092 78.75 33.75 87.9166 33.75 87.9166C33.75 87.9166 39.0741 80.2777 27.8704 72.824" fill="white"/>
<path fill-rule="evenodd" clip-rule="evenodd" d="M21.6799 67.3052C21.6801 67.3053 21.6802 67.3055 21.343 67.7315L21.6799 67.3052C21.9152 67.4915 21.9552 67.8334 21.769 68.0687C21.5829 68.3038 21.2417 68.3436 21.0064 68.158C21.0064 68.158 21.0065 68.1581 21.0064 68.158C21.0063 68.1579 21.0061 68.1577 21.006 68.1577M21.006 68.1577L21.0038 68.156L20.9894 68.145C20.9756 68.1346 20.9537 68.1182 20.924 68.0968C20.8645 68.0539 20.7739 67.9908 20.6549 67.9143C20.4166 67.7611 20.0663 67.5551 19.6263 67.3501C18.7437 66.939 17.5194 66.5407 16.1222 66.5617C15.7694 66.5706 15.2236 66.7602 14.6662 67.1576C14.1182 67.5482 13.6154 68.1004 13.3202 68.7583C13.0293 69.4066 12.9344 70.1673 13.2047 71.0164C13.4779 71.8743 14.1382 72.8654 15.4366 73.9309C18.1298 76.1176 22.7799 79.4989 26.7683 82.3411C28.7603 83.7607 30.5834 85.043 31.9085 85.9705C32.571 86.4342 33.1089 86.8092 33.4812 87.0682C33.5141 87.0911 33.5457 87.1131 33.576 87.1341C33.6737 86.944 33.7877 86.7004 33.9009 86.4095C34.2054 85.6273 34.5014 84.5117 34.4688 83.1788C34.4045 80.5486 33.0551 76.9258 27.5698 73.2764C27.32 73.1102 27.2522 72.7729 27.4184 72.5231C27.5846 72.2733 27.9219 72.2055 28.1717 72.3717C33.8901 76.1761 35.4805 80.0995 35.5551 83.1522C35.592 84.6607 35.2572 85.9207 34.9136 86.8037C34.7415 87.2456 34.5665 87.5952 34.4326 87.837C34.3657 87.958 34.3088 88.0523 34.2676 88.1179C34.247 88.1507 34.2303 88.1764 34.2182 88.1947C34.2121 88.2039 34.2072 88.2112 34.2035 88.2166L34.1989 88.2234L34.1973 88.2257L34.1966 88.2266C34.1964 88.227 34.1961 88.2273 33.7504 87.9166C33.4411 88.3634 33.4411 88.3633 33.441 88.3633L33.4405 88.3629L33.2906 88.259C33.1921 88.1907 33.0471 88.0899 32.8606 87.9602C32.4876 87.7007 31.9488 87.3251 31.2853 86.8608C29.9585 85.9321 28.1328 84.6479 26.1376 83.226C22.152 80.3858 17.4741 76.9851 14.7505 74.7736L14.7483 74.7719C13.339 73.6155 12.5239 72.4599 12.1693 71.3461C11.8118 70.2233 11.9367 69.1871 12.3287 68.3134C12.7164 67.4493 13.3595 66.7545 14.0354 66.2727C14.7009 65.7983 15.4562 65.4903 16.0989 65.4753L16.1031 65.4752C17.7142 65.4504 19.1048 65.9084 20.0851 66.3651C20.5768 66.5941 20.9702 66.8251 21.2426 67.0003C21.379 67.088 21.4855 67.162 21.5592 67.2151C21.5961 67.2417 21.6249 67.2631 21.6452 67.2785C21.6553 67.2861 21.6633 67.2923 21.6692 67.2968L21.6763 67.3024L21.6787 67.3042L21.6799 67.3052M33.7504 87.9166L33.441 88.3633C33.6871 88.5337 34.0249 88.473 34.1961 88.2273L33.7504 87.9166Z" fill="#FF4D4D"/>
<path d="M21.158 54.4907C21.158 54.4907 18.7043 52.4073 15.371 52.4536C13.1488 52.4999 8.24135 57.0833 14.2136 62.2685C20.2321 67.4536 34.8154 78.2407 34.8154 78.2407C34.8154 78.2407 40.6951 69.2129 28.3339 60.4629" fill="white"/>
<path fill-rule="evenodd" clip-rule="evenodd" d="M21.5088 54.0763C21.5089 54.0764 21.5091 54.0765 21.1842 54.4591L21.5088 54.0763C21.7375 54.2705 21.7658 54.6136 21.5716 54.8424C21.3776 55.0709 21.0351 55.0991 20.8063 54.9054L20.8058 54.9049L20.8031 54.9027L20.7866 54.8892C20.7711 54.8766 20.7465 54.8569 20.7133 54.8312C20.6468 54.7798 20.5458 54.7045 20.4135 54.6132C20.1484 54.4304 19.7595 54.1851 19.2709 53.9408C18.2909 53.4508 16.9322 52.9758 15.38 52.9969C14.9806 53.0059 14.3676 53.2331 13.7414 53.7099C13.1266 54.178 12.5567 54.8445 12.2195 55.6449C11.8856 56.4376 11.776 57.3688 12.0826 58.399C12.3909 59.435 13.1322 60.6104 14.5685 61.8576C17.5635 64.4378 22.7006 68.4209 27.0998 71.7666C29.2973 73.4379 31.3071 74.9473 32.7675 76.039C33.4976 76.5848 34.0904 77.0261 34.5005 77.331C34.5489 77.3669 34.5947 77.4009 34.6378 77.433C34.7533 77.1974 34.8921 76.8857 35.0299 76.5074C35.3704 75.5726 35.7021 74.2386 35.6663 72.6453C35.5955 69.4906 34.0805 65.1968 28.0194 60.9064C27.7745 60.733 27.7165 60.3939 27.8899 60.149C28.0633 59.9041 28.4024 59.8461 28.6473 60.0194C34.9473 64.479 36.6731 69.0741 36.7527 72.6209C36.7922 74.3782 36.4266 75.848 36.0509 76.8793C35.8629 77.3954 35.6718 77.8036 35.5259 78.0855C35.4529 78.2265 35.3911 78.3361 35.3465 78.4121C35.3335 78.4342 35.322 78.4535 35.3121 78.4699C35.305 78.4816 35.2986 78.4919 35.2932 78.5007C35.2867 78.5111 35.2815 78.5194 35.2776 78.5256L35.2728 78.533L35.2712 78.5356L35.2706 78.5365C35.2704 78.5369 35.2701 78.5372 34.8148 78.2407C34.4917 78.6775 34.4917 78.6775 34.4915 78.6774L34.491 78.677L34.326 78.5548C34.2176 78.4744 34.0578 78.3558 33.8524 78.2032C33.4415 77.8978 32.8479 77.4559 32.1168 76.9094C30.6548 75.8165 28.6425 74.3051 26.4419 72.6315C22.0452 69.2877 16.882 65.2851 13.8583 62.6801L13.8568 62.6788C12.3074 61.3336 11.4228 59.9918 11.041 58.7089C10.6575 57.4199 10.7938 56.2302 11.218 55.2231C11.639 54.2237 12.3393 53.4116 13.083 52.8453C13.8145 52.2884 14.6473 51.9253 15.3591 51.9104L15.3629 51.9104C17.1432 51.8856 18.6772 52.429 19.7569 52.9688C20.2985 53.2396 20.7312 53.5122 21.0305 53.7186C21.1802 53.8219 21.297 53.909 21.3777 53.9713C21.4181 54.0025 21.4495 54.0276 21.4715 54.0454C21.4825 54.0544 21.4912 54.0615 21.4974 54.0667L21.5051 54.0731L21.5075 54.0752L21.5088 54.0763ZM34.8148 78.2407L34.4915 78.6774C34.6119 78.7664 34.7639 78.802 34.9112 78.7754C35.0586 78.7489 35.1884 78.6627 35.2701 78.5372L34.8148 78.2407Z" fill="#FF4D4D"/>
<path d="M20.2778 42.5462C20.2778 42.5462 17.8241 40.6481 14.6297 40.8333C12.5 40.9722 7.96301 45.5555 13.9352 50.324C19.9074 55.0925 34.3519 64.7685 34.3519 64.7685C34.3519 64.7685 40.0463 56.574 27.4074 48.0092" fill="white"/>
<path fill-rule="evenodd" clip-rule="evenodd" d="M20.6103 42.1163C20.6105 42.1164 20.6107 42.1165 20.2782 42.5463L20.6103 42.1163C20.8477 42.2999 20.8916 42.6414 20.708 42.8787C20.5245 43.1159 20.1837 43.1596 19.9464 42.9765L19.9457 42.976M19.9457 42.976L19.9433 42.9741L19.9269 42.962C19.9115 42.9506 19.8871 42.9328 19.8541 42.9096C19.7881 42.8632 19.6879 42.7952 19.5568 42.7133C19.2944 42.5492 18.9102 42.3303 18.4308 42.1166C17.4689 41.6879 16.1464 41.2901 14.6636 41.3756C14.2861 41.4009 13.7101 41.6415 13.1301 42.1225C12.561 42.5945 12.0431 43.2538 11.7539 44.0319C11.4677 44.802 11.4015 45.6964 11.7386 46.6714C12.0779 47.6525 12.8394 48.7535 14.2746 49.8994C17.2441 52.2704 22.3334 55.8715 26.6927 58.8876C28.8697 60.3939 30.8605 61.7515 32.307 62.7324C33.0302 63.2229 33.6173 63.6191 34.0235 63.8928C34.0762 63.9283 34.1259 63.9617 34.1725 63.9931C34.2805 63.7818 34.4092 63.503 34.5354 63.1644C34.8518 62.316 35.1506 61.0985 35.077 59.6278C34.9312 56.7173 33.3163 52.6695 27.103 48.459C26.8546 48.2907 26.7897 47.9528 26.958 47.7044C27.1264 47.456 27.4642 47.3911 27.7126 47.5594C34.1383 51.9138 35.9956 56.2456 36.1623 59.5735C36.2449 61.222 35.91 62.5885 35.5536 63.5441C35.3754 64.0222 35.1912 64.3991 35.0495 64.6593C34.9787 64.7896 34.9184 64.8908 34.8745 64.9613C34.8526 64.9965 34.8349 65.0241 34.8219 65.0437C34.8155 65.0535 34.8102 65.0613 34.8063 65.0671L34.8014 65.0744L34.7996 65.0768L34.799 65.0778C34.7987 65.0782 34.7985 65.0785 34.3523 64.7685C34.0499 65.2199 34.0498 65.2199 34.0497 65.2198L34.0492 65.2194L33.8857 65.1097C33.7782 65.0375 33.6199 64.9311 33.4164 64.7941C33.0094 64.5199 32.4213 64.123 31.6971 63.6318C30.2486 62.6495 28.2549 61.29 26.0744 59.7813C21.7184 56.7674 16.5994 53.1462 13.5966 50.7486C12.0457 49.5104 11.1348 48.2502 10.7116 47.0265C10.2863 45.7966 10.3677 44.6424 10.7353 43.6533C11.1001 42.672 11.7425 41.8615 12.4364 41.286C13.1185 40.7204 13.9074 40.3359 14.5947 40.2911L14.5986 40.2909C16.3094 40.1917 17.8101 40.6502 18.8732 41.1241C19.4066 41.3618 19.8355 41.6059 20.133 41.7919C20.2819 41.885 20.3983 41.9639 20.479 42.0205C20.5193 42.0489 20.5507 42.0717 20.5728 42.088C20.5838 42.0962 20.5925 42.1027 20.5989 42.1075L20.6066 42.1134L20.6091 42.1153L20.6103 42.1163M34.3523 64.7685L34.0497 65.2198C34.296 65.3848 34.6293 65.322 34.7985 65.0785L34.3523 64.7685Z" fill="#FF4D4D"/>
<path d="M35.8336 14.2593C30.9261 14.6296 26.3428 15.2315 23.1947 16.2037C5.97244 21.4352 23.1484 52.0834 23.1484 52.0834C23.1484 52.0834 34.3984 48.6111 27.1298 28.6574" fill="white"/>
<path fill-rule="evenodd" clip-rule="evenodd" d="M36.3757 14.2183C36.3983 14.5175 36.174 14.7784 35.8748 14.801C30.973 15.1709 26.4414 15.7697 23.3553 16.7228L23.3529 16.7235C19.2554 17.9682 17.226 20.6956 16.4522 24.1361C15.6687 27.6201 16.1768 31.8419 17.2397 35.9698C18.2995 40.086 19.8948 44.0489 21.2288 46.9882C21.8952 48.4564 22.4949 49.666 22.9275 50.5077C23.1191 50.8804 23.2779 51.1809 23.3951 51.3995C23.6644 51.2764 24.0474 51.0776 24.4883 50.7791C25.3723 50.1805 26.4883 49.1817 27.3923 47.5852C29.1916 44.4077 30.2208 38.7293 26.6197 28.8433C26.5169 28.5614 26.6623 28.2495 26.9442 28.1468C27.2262 28.0441 27.538 28.1894 27.6407 28.4714C31.3081 38.5391 30.3465 44.5736 28.3379 48.1207C27.338 49.8865 26.0959 51.0028 25.0976 51.6788C24.5989 52.0166 24.1608 52.2446 23.8435 52.3894C23.6847 52.4618 23.5559 52.5136 23.4644 52.548C23.4187 52.5652 23.3822 52.5781 23.356 52.587C23.351 52.5887 23.3463 52.5903 23.3421 52.5917C23.3352 52.594 23.3293 52.5959 23.3245 52.5975L23.3147 52.6007L23.3113 52.6017L23.31 52.6021C23.3094 52.6023 23.3089 52.6024 23.1487 52.0833C22.6747 52.3489 22.6746 52.3487 22.6744 52.3483L22.6711 52.3424L22.6613 52.3248C22.6527 52.3094 22.6402 52.2867 22.6238 52.257C22.5911 52.1975 22.5432 52.1098 22.4816 51.9955C22.3585 51.7669 22.1808 51.432 21.9611 51.0045C21.5217 50.1497 20.9141 48.9241 20.2393 47.4373C18.891 44.4665 17.2687 40.4405 16.1873 36.2407C15.109 32.0526 14.5523 27.6315 15.392 23.8976C16.2415 20.1206 18.5231 17.0554 23.0359 15.6841C26.246 14.693 30.8805 14.0881 35.793 13.7174C36.0922 13.6948 36.3531 13.9191 36.3757 14.2183ZM23.1487 52.0833L22.6747 52.3489C22.7999 52.5723 23.0642 52.678 23.3089 52.6024L23.1487 52.0833Z" fill="#FF4D4D"/>
<path d="M63.4724 13.7037C63.4724 13.7037 53.6576 13.5648 44.0742 13.8426L63.4724 13.7037Z" fill="white"/>
<path fill-rule="evenodd" clip-rule="evenodd" d="M63.4803 13.1604C63.4804 13.1604 63.4804 13.1604 63.4728 13.7027L63.4803 13.1604C63.7804 13.1646 64.0203 13.4113 64.016 13.7114C64.0118 14.0114 63.7651 14.2512 63.4651 14.247L63.4728 13.7037C63.4651 14.247 63.4651 14.247 63.4651 14.247L63.3532 14.2455C63.2793 14.2445 63.1694 14.2432 63.0261 14.2416C62.7396 14.2383 62.3194 14.234 61.785 14.2296C60.7164 14.221 59.1915 14.2123 57.3674 14.2123C53.7186 14.2123 48.8748 14.247 44.0903 14.3857C43.7904 14.3944 43.5402 14.1583 43.5315 13.8583C43.5228 13.5584 43.7589 13.3081 44.0589 13.2994C48.8577 13.1604 53.713 13.1256 57.3674 13.1256C59.1949 13.1256 60.7227 13.1343 61.7939 13.143C62.3294 13.1473 62.7508 13.1517 63.0385 13.1549C63.1823 13.1566 63.2927 13.1579 63.3671 13.1589L63.4803 13.1604Z" fill="#FF4D4D"/>
<path d="M23.0088 37.5C23.7959 40.2315 24.9533 43.3333 24.9533 46.2037C24.9533 47.7778 23.7496 49.5833 22.7773 50.8333" fill="white"/>
<path d="M22.5464 37.5926C23.1945 39.8611 24.0278 42.1296 24.3519 44.4445C24.4908 45.5093 24.5834 46.5741 24.1667 47.6389C23.7501 48.6574 23.1019 49.5834 22.4075 50.463C22.0371 50.9259 22.6852 51.5741 23.0556 51.1111C23.7501 50.2315 24.3982 49.3056 24.8612 48.2408C25.3241 47.1759 25.4167 46.1111 25.2778 44.9537C25.0001 42.3611 24.1204 39.8611 23.3797 37.3611C23.2871 36.8056 22.3612 37.037 22.5464 37.5926Z" fill="#FF4D4D"/>
<path d="M87.6396 9.7222C85.0007 8.33331 82.2692 6.52775 80.0007 4.7685C78.7507 3.79627 78.2878 2.45368 77.8711 0.925903" fill="white"/>
<path d="M87.8709 9.30554C85.7876 8.19443 83.7506 6.94443 81.8061 5.55554C80.9728 4.95369 80.0006 4.35184 79.3987 3.47221C78.8432 2.68517 78.5654 1.71295 78.3339 0.787024C78.195 0.231469 77.3154 0.46295 77.4543 1.01851C77.6858 1.99073 77.9635 2.96295 78.5191 3.79628C79.1209 4.72221 80.0469 5.37036 80.9265 6.01851C82.9635 7.54628 85.1395 8.88888 87.408 10.0926C87.9635 10.4167 88.4265 9.58332 87.8709 9.30554Z" fill="#FF4D4D"/>
<path d="M29.2129 57.6389C30.1852 58.3333 31.1111 59.0741 31.8981 60C32.9166 61.2037 33.5185 62.6852 33.7963 64.2592C33.8889 64.7222 34.5833 64.537 34.4907 64.0741C34.2129 62.4074 33.5185 60.8333 32.4537 59.537C31.6203 58.5185 30.6481 57.7315 29.5833 56.9907C29.1666 56.713 28.7963 57.3611 29.2129 57.6389Z" fill="#FF4D4D"/>
<path d="M27.9628 69.3055C29.3054 70.1388 30.4628 71.3425 31.4351 72.5925C32.361 73.7499 33.5184 75.5092 32.9628 77.037C32.7776 77.4999 33.5647 77.7314 33.7036 77.2221C34.3054 75.4629 33.1943 73.5647 32.1758 72.2221C31.111 70.8333 29.8147 69.537 28.3332 68.5647C27.9628 68.3796 27.5462 69.0277 27.9628 69.3055Z" fill="#FF4D4D"/>
<path d="M28.4263 80.3703C29.5374 81.0648 30.4633 81.8055 31.3429 82.7777C31.5744 83.0092 31.8059 83.287 31.9448 83.5647C32.13 83.8888 32.1763 84.2129 32.2688 84.537C32.4077 85.2777 32.3614 86.0648 32.1763 86.8055C32.0837 87.3148 32.8244 87.4999 32.917 86.9907C33.0559 86.1573 33.1485 85.324 33.0096 84.537C32.917 83.7036 32.5929 83.0555 32.0374 82.4536C31.6207 81.9444 31.1577 81.4351 30.6485 81.0185C30.0466 80.5092 29.3985 80.0925 28.7503 79.6759C28.38 79.4444 28.0096 80.0925 28.4263 80.3703Z" fill="#FF4D4D"/>
<path d="M26.3426 28.8889C29.0741 29.8611 32.2222 29.537 34.7222 27.9629C35.2778 27.5926 34.7685 26.7129 34.213 27.0833C31.9445 28.5185 29.1667 28.7963 26.6667 27.8703C25.9722 27.6389 25.6945 28.6574 26.3426 28.8889Z" fill="#FF4D4D"/>
<path fill-rule="evenodd" clip-rule="evenodd" d="M67.6388 30.3897C66.5097 30.3897 65.4215 30.48 64.3247 30.6171C64.035 30.6533 63.7708 30.4478 63.7346 30.1581C63.6984 29.8684 63.9039 29.6042 64.1936 29.568C65.319 29.4273 66.453 29.3324 67.6388 29.3324C69.3439 29.3324 71.0463 29.5218 72.6528 29.8525C72.9388 29.9114 73.1228 30.1909 73.064 30.4769C73.0051 30.7628 72.7256 30.9469 72.4396 30.8881C70.898 30.5707 69.2671 30.3897 67.6388 30.3897Z" fill="#0078DB"/>
<path fill-rule="evenodd" clip-rule="evenodd" d="M44.6061 46.0243C44.8841 46.1135 45.0372 46.4111 44.948 46.6891C44.1758 49.0966 43.7233 51.6347 43.7233 54.3055C43.7233 62.4121 47.7992 69.6146 53.9603 73.9184C54.1997 74.0856 54.2582 74.4151 54.091 74.6545C53.9238 74.8938 53.5942 74.9523 53.3549 74.7851C46.9235 70.2926 42.666 62.7729 42.666 54.3055C42.666 51.5133 43.1394 48.8662 43.9413 46.3662C44.0304 46.0882 44.3281 45.9351 44.6061 46.0243Z" fill="#0078DB"/>
<path fill-rule="evenodd" clip-rule="evenodd" d="M90.6639 46.0271C90.9404 45.9332 91.2406 46.0812 91.3345 46.3577C92.1874 48.869 92.6126 51.5193 92.6126 54.3055C92.6126 67.9269 81.7339 78.9946 68.1598 79.2784C67.8679 79.2845 67.6263 79.0528 67.6202 78.7609C67.6141 78.4691 67.8458 78.2275 68.1377 78.2214C81.1377 77.9496 91.5553 67.3506 91.5553 54.3055C91.5553 51.6286 91.1471 49.0937 90.3334 46.6977C90.2395 46.4212 90.3875 46.121 90.6639 46.0271Z" fill="#0078DB"/>
<path d="M50.5097 48.5648L67.6857 54.3055L66.1116 43.6573L65.0468 36.5277L64.0745 30.0925C64.0745 30.0925 60.8801 30.4166 56.7597 32.4073C54.0745 33.7036 51.2505 35.6944 48.519 39.1203C47.0838 40.9259 45.4171 43.7036 44.4912 46.574L50.5097 48.5648Z" fill="white"/>
<path fill-rule="evenodd" clip-rule="evenodd" d="M64.026 29.6169C64.2797 29.5911 64.5089 29.769 64.547 30.0211L65.5194 36.4571L66.5842 43.5867L68.1584 54.2356C68.1827 54.4 68.1199 54.5652 67.9925 54.672C67.8651 54.7787 67.6914 54.8117 67.5338 54.759L50.3593 49.0187L50.3579 49.0182L44.3408 47.028C44.0914 46.9455 43.9553 46.6772 44.0359 46.4272C44.9825 43.4927 46.6803 40.6649 48.1444 38.8228L48.1449 38.8223C50.9239 35.3367 53.8061 33.3022 56.5515 31.9768M64.026 29.6169L64.0743 30.0925L64.026 29.6169ZM64.0743 30.0925C64.026 29.6169 64.0262 29.6168 64.026 29.6169L64.0743 30.0925ZM63.6722 30.6321L64.5737 36.5992L65.6383 43.7273L67.0985 53.6052L50.661 48.1113L45.0975 46.271C46.0256 43.6254 47.562 41.0924 48.8929 39.418C51.5767 36.052 54.3425 34.1051 56.9673 32.8379C58.9934 31.859 60.7908 31.2905 62.0785 30.9672C62.7221 30.8055 63.2378 30.7053 63.5904 30.6457C63.6188 30.6409 63.646 30.6364 63.6722 30.6321ZM64.026 29.6169L64.0254 29.6169L64.026 29.6169ZM64.0254 29.6169L64.0245 29.617L64.0254 29.6169ZM64.0245 29.617L64.0219 29.6173L64.0245 29.617ZM64.0219 29.6173L64.0131 29.6182L64.0219 29.6173ZM64.0131 29.6182L63.9817 29.6218L64.0131 29.6182ZM63.9817 29.6218C63.9548 29.6249 63.9159 29.6297 63.8656 29.6364L63.9817 29.6218ZM63.8656 29.6364C63.765 29.6499 63.6187 29.6711 63.4311 29.7028L63.8656 29.6364ZM63.4311 29.7028C63.056 29.7662 62.5156 29.8714 61.8456 30.0397L63.4311 29.7028ZM61.8456 30.0397C60.506 30.3761 58.6457 30.965 56.5515 31.9768L61.8456 30.0397Z" fill="#FF4D4D"/>
</g>
<defs>
<clipPath id="clip0">
<rect width="161.852" height="100" fill="white"/>
</clipPath>
</defs>
</svg>
