<svg width="266" height="279" viewBox="0 0 266 279" fill="none" xmlns="http://www.w3.org/2000/svg">
<path d="M129.578 37.9699C131.189 36.7112 130.942 36.3615 130.868 36.0947C130.35 34.5244 129.503 33.0864 128.384 31.8799C127.93 31.3404 127.332 30.3939 127.165 30.1666C127.13 30.113 127.018 30.122 127.006 30.0864C126.808 29.72 126.582 29.3695 126.332 29.0378C126.708 28.7026 127.103 28.3979 127.492 28.0654C128.554 27.1248 129.658 26.2328 130.671 25.2157C130.876 25.0154 131.507 25.3618 130.829 24.0219L130.794 23.9683C130.547 23.5114 130.265 23.0739 129.953 22.6595C128.623 20.7247 128.081 20.1994 127.986 20.6872C127.963 20.8009 127.843 20.7819 127.728 20.7704C127.471 20.7896 127.225 20.8836 127.02 21.0412C126.816 21.1757 126.839 21.6293 126.636 21.7309C125.728 22.035 124.848 22.4185 124.006 22.8769C123.367 23.4498 122.792 24.0923 122.291 24.793C121.99 24.4249 121.731 24.0724 121.403 23.6787C120.304 22.3543 119.243 21.0051 118.062 19.7356C117.83 19.4746 118.134 18.7941 116.785 19.4224C116.785 19.4224 116.74 19.4523 116.732 19.4573C116.279 19.7033 115.847 19.9883 115.441 20.3091C113.485 21.5994 112.999 22.1816 113.53 22.3547C113.647 22.3864 113.643 22.5308 113.641 22.6625C113.697 22.9701 113.824 23.2598 114.013 23.5075C114.175 23.7601 114.652 23.7832 114.785 24.0228C115.196 25.1048 115.69 26.1529 116.262 27.1574C116.708 27.7224 117.212 28.2375 117.766 28.694C117.195 29.1131 116.714 29.6455 116.352 30.2589C115.898 31.0922 114.887 31.2253 114.098 31.6369C113.788 31.8412 114.342 32.9366 115.641 34.6406C116.941 36.3446 117.176 36.0585 117.402 36.0078C118.723 35.6592 119.931 34.9642 120.903 33.9926C121.214 33.7536 121.541 33.5347 121.879 33.3373C122.843 34.4676 123.549 35.8002 124.862 36.6559C125.803 37.2667 126.064 38.4247 126.599 39.3577C126.744 39.8178 127.862 39.2983 129.578 37.9699Z" fill="#0078DB"/>
<path d="M99.4164 66.0646C101.059 64.8392 100.884 64.584 100.852 64.3658C100.645 63.1727 100.099 62.0668 99.2799 61.1845C99.3364 61.0547 99.4038 60.9301 99.4813 60.8119C100.118 60.1551 100.834 59.5834 101.614 59.1107C102.808 58.2248 104.032 57.3848 105.177 56.4224C105.426 56.258 106.022 56.6167 105.499 55.2506L105.465 55.1971C105.244 54.7286 104.987 54.2785 104.696 53.8511C103.528 51.799 103.019 51.2411 102.903 51.7642C102.872 51.8829 102.752 51.8638 102.623 51.8294C102.356 51.839 102.096 51.9201 101.87 52.0642C101.659 52.2037 101.624 52.6516 101.411 52.7379C100.442 52.9936 99.4966 53.3296 98.5828 53.7424C97.7027 54.4721 96.8657 55.2536 96.0759 56.0828C95.8192 56.2521 95.5624 56.4215 95.3503 56.6269C94.8903 56.1625 94.4699 55.6595 94.0935 55.1234C93.2889 54.1392 92.5219 53.1302 91.6542 52.1985C91.4662 52.0064 91.8449 51.4078 90.5632 52.0571C90.5434 52.0649 90.5254 52.0768 90.5104 52.092C90.0634 52.3435 89.6345 52.6265 89.2266 52.9388C87.2707 54.2291 86.7427 54.7628 87.2219 54.8391C87.3243 54.8478 87.3005 54.9616 87.2768 55.0753C87.275 55.3116 87.3479 55.5423 87.485 55.7336C87.6031 55.9173 88.0258 55.8891 88.1038 56.0774C88.3239 56.9224 88.619 57.7456 88.9856 58.5367C89.4554 59.1013 89.9945 59.6028 90.5899 60.0288C90.3817 60.2301 90.1921 60.4501 90.0231 60.6861C89.4746 61.5058 88.4537 61.5906 87.5952 61.9281C87.2387 62.0761 87.7163 63.2542 88.8725 65.0529C90.0286 66.8515 90.3038 66.5937 90.5468 66.5534C91.9424 66.2754 93.2479 65.6502 94.3456 64.734L94.406 64.6941C94.6764 65.0195 95.0042 65.2911 95.3726 65.4952C96.1283 65.9013 96.2236 66.8193 96.5131 67.5875C96.5897 67.9076 97.7058 67.3348 99.4164 66.0646Z" fill="#0078DB"/>
<path d="M134.247 77.1035C135.806 75.7809 135.545 75.4411 135.469 75.2072C134.893 73.6493 133.986 72.2384 132.813 71.0741C132.348 70.5522 131.708 69.623 131.533 69.4006C131.498 69.3471 131.378 69.3609 131.359 69.3303C131.123 68.9456 130.854 68.5832 130.555 68.2474C131.527 67.3666 132.525 66.5114 133.44 65.5591C133.64 65.3511 134.274 65.6849 133.583 64.3753L133.548 64.3217C133.28 63.8798 132.98 63.4582 132.652 63.0603C131.284 61.1504 130.742 60.6251 130.647 61.1129C130.623 61.2266 130.504 61.2076 130.381 61.2011C130.127 61.229 129.885 61.328 129.683 61.4871C129.479 61.6216 129.514 62.078 129.316 62.1872C128.411 62.5017 127.537 62.8998 126.704 63.3765C126.487 63.5444 126.289 63.734 126.11 63.9423L125.438 63.1648C124.284 61.888 123.166 60.5659 121.913 59.3539C121.658 59.1078 121.941 58.4093 120.666 59.0866C120.666 59.0866 120.621 59.1165 120.613 59.1215C120.171 59.3901 119.754 59.6983 119.366 60.0423C117.487 61.4347 117.001 62.017 117.559 62.1498C117.684 62.1766 117.672 62.3259 117.686 62.4476C117.751 62.7521 117.888 63.0356 118.088 63.2728C118.245 63.5177 118.74 63.5182 118.872 63.7578C119.338 64.8245 119.876 65.8571 120.483 66.8482C120.916 67.3534 121.398 67.8129 121.923 68.2195C121.012 69.0934 119.868 69.6733 119.23 70.8896C118.794 71.7333 117.8 71.9096 117.018 72.3493C116.716 72.5485 117.289 73.6416 118.622 75.3131C119.954 76.9845 120.182 76.7034 120.408 76.6527C121.72 76.2774 122.913 75.5618 123.869 74.5763C124.296 74.1859 125.056 73.6953 125.257 73.5405C125.303 73.5106 125.274 73.3989 125.309 73.3866C125.645 73.2139 125.961 73.0051 126.253 72.7639C127.316 73.8827 128.087 75.249 129.468 76.0927C130.429 76.6682 130.745 77.8116 131.282 78.765C131.487 79.0661 132.618 78.4835 134.247 77.1035Z" fill="#0078DB"/>
<path d="M168.964 52.5661C170.592 51.3178 170.404 51.0598 170.372 50.8416C170.126 49.6187 169.54 48.4924 168.683 47.5957C168.595 47.4763 168.514 47.351 168.442 47.2207C168.759 47.0115 169.047 46.7563 169.337 46.5215C170.616 45.4491 171.929 44.4302 173.155 43.2939C173.405 43.0637 174.067 43.3902 173.419 42.0304L173.384 41.9768C173.138 41.5187 172.857 41.081 172.543 40.668C171.269 38.6856 170.719 38.1653 170.569 38.7006C170.537 38.8193 170.402 38.8102 170.268 38.8011C169.96 38.8456 169.67 38.9698 169.424 39.1615C169.19 39.3159 169.16 39.8045 168.933 39.921C167.888 40.3042 166.873 40.7661 165.897 41.3031C165.329 41.7511 164.814 42.2629 164.361 42.8286C163.962 42.4264 163.65 41.9569 163.289 41.5299C162.46 40.5403 161.671 39.5132 160.77 38.5811C160.628 38.3592 160.951 37.7752 159.674 38.4322C159.659 38.4474 159.641 38.4592 159.622 38.467C159.175 38.7197 158.746 39.0027 158.338 39.314C156.382 40.6042 155.874 41.1685 156.353 41.2448C156.455 41.2535 156.436 41.3749 156.413 41.4886C156.415 41.7271 156.492 41.9585 156.633 42.1496C156.751 42.3333 157.179 42.3127 157.265 42.4961C157.499 43.3501 157.812 44.1797 158.201 44.9737C158.73 45.5876 159.329 46.1366 159.984 46.6096C158.871 47.5724 157.537 48.2237 156.698 49.5619C156.109 50.485 154.984 50.6928 154.061 51.1815C153.677 51.3697 154.195 52.5433 155.464 54.2672C156.734 55.9912 157.019 55.6828 157.275 55.6121C158.793 55.1437 160.19 54.338 161.362 53.2539C161.881 52.824 162.78 52.2641 163.012 52.0894C163.064 52.0545 163.056 51.9404 163.098 51.9232C163.384 51.7672 163.657 51.5872 163.914 51.3851C164.153 51.6321 164.428 51.8403 164.73 52.0022C165.503 52.4186 165.601 53.3569 165.918 54.1178C166.157 54.4396 167.268 53.8593 168.964 52.5661Z" fill="#0078DB"/>
<path d="M169.516 96.1043C170.989 94.6642 170.781 94.4415 170.724 94.218C170.369 93.0679 169.682 92.0518 168.752 91.3008C168.393 90.9599 167.919 90.3239 167.771 90.1601C167.771 90.1601 167.654 90.1614 167.634 90.1307C167.412 89.7876 167.146 89.4754 166.844 89.2024C167.122 88.899 167.425 88.6339 167.695 88.3355C168.507 87.4732 169.35 86.6442 170.073 85.677C170.222 85.4913 170.846 85.8098 170.049 84.6028L170.015 84.5492C169.702 84.1377 169.369 83.7425 169.017 83.3653C167.501 81.5752 166.931 81.0902 166.943 81.5615C166.942 81.6603 166.823 81.6412 166.72 81.6325C166.502 81.6525 166.296 81.7425 166.133 81.8893C165.966 81.9989 166.064 82.4357 165.904 82.52C165.145 82.8002 164.414 83.1543 163.723 83.5773C163.195 84.1835 162.74 84.85 162.364 85.5632C161.684 84.9223 161.018 84.2715 160.277 83.6705C160.081 83.5164 160.378 82.8738 159.207 83.6789L159.154 83.7138C158.751 84.0307 158.367 84.3715 158.003 84.7344C156.257 86.3006 155.783 86.8855 156.261 86.8756C156.371 86.8794 156.345 87.0057 156.344 87.1045C156.367 87.3342 156.464 87.5498 156.62 87.718C156.733 87.894 157.171 87.7901 157.267 87.9558C157.666 88.5757 157.835 89.3907 158.246 89.9804L158.09 90.3232C157.824 91.0979 156.948 91.2401 156.287 91.6C156.03 91.7693 156.722 92.7953 158.173 94.3668C159.624 95.9382 159.786 95.6893 159.979 95.6382C161.065 95.3371 162.032 94.6996 162.743 93.8149L162.865 93.9201C163.709 94.6489 164.256 95.6505 165.412 96.0762C166.206 96.3587 166.377 97.2598 166.762 97.943C166.958 98.315 167.988 97.5918 169.516 96.1043Z" fill="#0078DB"/>
<path d="M129.464 111.17C129.269 109.837 128.722 108.582 127.882 107.538C127.577 107.063 127.172 106.283 127.042 106.064C127.042 106.064 126.913 106.03 126.901 105.994C126.59 105.301 126.194 104.65 125.721 104.058C126.967 103.236 128.257 102.483 129.497 101.568C129.784 101.378 130.392 101.773 129.969 100.362L129.94 100.316C129.751 99.8299 129.525 99.3597 129.262 98.9103C128.232 96.7889 127.76 96.2061 127.567 96.7587C127.516 96.8797 127.393 96.8732 127.259 96.8312C126.961 96.8367 126.669 96.917 126.409 97.0649C126.175 97.2194 126.063 97.6639 125.792 97.7774C124.7 98.0374 123.63 98.3793 122.589 98.8004C122.327 98.9507 122.075 99.1171 121.833 99.2986C121.371 98.5792 120.856 97.8946 120.318 97.2249C120.165 96.9877 120.539 96.4143 119.203 96.9465C119.203 96.9465 119.203 96.9465 119.15 96.9814C118.685 97.1986 118.237 97.4537 117.812 97.7441C115.785 98.907 115.215 99.392 115.719 99.5065C115.824 99.5356 115.807 99.6443 115.766 99.7806C115.766 100.031 115.832 100.278 115.956 100.495C116.084 100.694 116.514 100.726 116.589 100.927C116.803 101.494 116.899 102.129 117.068 102.726C116.758 102.93 116.448 103.134 116.139 103.339C114.878 104.171 113.44 104.694 112.417 105.914C111.706 106.764 110.567 106.851 109.569 107.204C109.162 107.341 109.537 108.577 110.58 110.45C111.623 112.323 111.948 112.043 112.216 112.008C113.791 111.731 115.285 111.1 116.588 110.16C117.154 109.786 118.131 109.349 118.395 109.207C118.44 109.178 118.444 109.066 118.487 109.049C119.286 108.703 120.05 108.276 120.765 107.775C120.991 108.127 121.217 108.479 121.439 108.823C122.201 109.825 122.626 111.038 123.742 111.805C124.515 112.32 124.554 113.319 124.85 114.148C124.974 114.491 126.142 114.015 127.931 112.868C129.721 111.72 129.514 111.431 129.464 111.17Z" fill="#0078DB"/>
<path d="M157.402 131.464C158.421 129.702 158.188 129.507 158.085 129.314C157.421 128.255 156.551 127.346 155.528 126.641C155.14 126.293 154.781 125.913 154.455 125.507C154.455 125.507 154.325 125.505 154.305 125.474C154.03 125.069 153.716 124.692 153.367 124.349C154.434 123.417 155.533 122.517 156.549 121.52C156.764 121.302 157.402 121.644 156.744 120.301L156.71 120.248C156.463 119.793 156.184 119.358 155.873 118.947C154.546 116.999 154.004 116.474 153.899 116.979C153.875 117.093 153.748 117.079 153.633 117.067C153.368 117.093 153.117 117.195 152.907 117.361C152.696 117.5 152.711 117.959 152.5 118.066C151.564 118.387 150.657 118.789 149.788 119.266C149.655 119.375 149.529 119.491 149.409 119.614C148.97 118.814 148.569 117.989 148.16 117.169C148.012 116.939 148.579 116.466 147.145 116.661L147.1 116.691C146.595 116.785 146.097 116.917 145.611 117.084C143.347 117.662 142.649 117.948 143.158 118.288C143.268 118.358 143.209 118.484 143.165 118.6C143.105 118.89 143.13 119.191 143.238 119.467C143.306 119.739 143.772 119.878 143.844 120.157C143.935 121.265 144.172 122.354 144.55 123.397C144.667 123.614 144.801 123.821 144.948 124.017C144.903 124.047 144.858 124.077 144.812 124.107C143.84 125.021 142.6 125.567 141.914 126.859C141.4 127.732 140.403 127.855 139.604 128.284C139.287 128.493 139.833 129.594 141.132 131.298C142.432 133.002 142.675 132.711 142.908 132.655C144.268 132.278 145.51 131.556 146.517 130.557C146.976 130.167 147.764 129.67 147.988 129.5C148.034 129.47 148.017 129.361 148.047 129.341C148.403 129.155 148.74 128.933 149.052 128.678C149.185 128.885 149.393 129.042 149.574 129.206C150.633 130.185 151.518 131.411 152.983 131.883C153.972 132.201 154.472 133.179 155.225 133.882C155.451 134.234 156.321 133.311 157.402 131.464Z" fill="#0078DB"/>
<path d="M120.025 215.873C121.327 214.284 120.96 213.981 120.802 213.736C119.883 212.231 118.738 210.879 117.409 209.729C116.88 209.207 116.155 208.279 115.947 208.024C115.913 207.97 115.793 207.984 115.768 207.946C115.524 207.592 115.263 207.252 114.984 206.926C115.347 206.621 115.695 206.359 116.088 206.034C117.339 204.969 118.62 203.95 119.819 202.821C120.061 202.596 120.718 202.914 120.082 201.557L120.048 201.504C119.803 201.048 119.524 200.613 119.211 200.202C117.937 198.22 117.365 197.715 117.222 198.245C117.191 198.364 117.056 198.355 116.926 198.353C116.637 198.396 116.363 198.51 116.127 198.684C115.901 198.833 115.878 199.317 115.657 199.441C114.628 199.821 113.628 200.28 112.668 200.813C112.018 201.357 111.428 201.969 110.906 202.64C110.514 202.114 110.16 201.563 109.791 201.022C108.737 199.483 107.774 197.884 106.823 196.255C106.612 195.926 107.048 195.3 105.615 195.58L105.563 195.615C105.067 195.752 104.586 195.941 104.129 196.179C101.945 197.031 101.338 197.475 101.897 197.826C102.019 197.898 101.98 198.055 101.968 198.204C101.983 198.567 102.076 198.923 102.24 199.246C102.374 199.571 102.882 199.727 102.989 200.027C103.339 201.357 103.811 202.651 104.399 203.893C105.021 204.831 105.745 205.694 106.559 206.467C105.479 207.156 104.529 208.034 103.752 209.06C103.185 209.968 102.061 210.176 101.163 210.67C100.783 210.866 101.324 212.025 102.608 213.739C103.893 215.453 104.166 215.142 104.414 215.076C105.91 214.614 107.281 213.81 108.421 212.727C108.933 212.302 109.811 211.744 110.051 211.565C110.103 211.53 110.087 211.421 110.125 211.396C110.163 211.371 110.374 211.231 110.495 211.152L110.598 211.313C111.884 212.644 112.906 214.15 114.621 215.078C115.775 215.669 116.367 216.891 117.207 217.863C117.623 218.276 118.67 217.53 120.025 215.873Z" fill="#0078DB"/>
<path d="M115.628 252.399C116.805 250.718 116.552 250.492 116.434 250.308C115.799 249.155 114.959 248.132 113.956 247.289C113.578 246.888 113.232 246.456 112.922 245.998C112.898 245.96 112.795 245.984 112.775 245.954C112.361 245.291 111.906 244.656 111.412 244.051C111.662 243.887 111.911 243.723 112.168 243.553C113.196 242.744 114.242 241.978 115.213 241.097C115.432 240.953 116.001 241.319 115.405 239.99L115.37 239.936C115.12 239.484 114.841 239.05 114.534 238.635C113.26 236.653 112.801 236.073 112.718 236.563C112.702 236.672 112.59 236.648 112.473 236.616C112.235 236.611 112.002 236.681 111.806 236.816C111.617 236.941 111.625 237.372 111.434 237.443C110.575 237.649 109.737 237.936 108.93 238.299C108.623 238.524 108.343 238.785 108.097 239.077C107.778 238.296 107.481 237.5 107.192 236.699C107.095 236.414 107.679 236.018 106.237 236.032L106.167 236.024C105.654 236.061 105.144 236.135 104.642 236.245C102.329 236.561 101.628 236.827 102.047 237.227C102.111 237.326 102.07 237.43 102.018 237.551C101.932 237.847 101.93 238.162 102.011 238.46C102.056 238.747 102.501 238.954 102.503 239.225C102.495 240.393 102.643 241.557 102.942 242.685C103.006 242.855 103.083 243.019 103.172 243.177C102.541 243.55 102.004 244.068 101.606 244.689C101.166 245.459 100.223 245.515 99.4572 245.813C99.1384 245.936 99.6663 247.092 100.873 248.868C102.079 250.644 102.302 250.389 102.514 250.368C103.753 250.161 104.907 249.6 105.841 248.751C106.111 248.552 106.39 248.367 106.679 248.198C106.948 248.598 107.243 248.978 107.562 249.338C108.578 250.466 109.409 251.826 110.894 252.48C111.892 252.912 112.356 253.968 113.09 254.759C113.463 255.004 114.402 254.156 115.628 252.399Z" fill="#0078DB"/>
<path d="M150.664 258.135C152.316 256.925 152.04 256.53 151.963 256.242C151.378 254.493 150.463 252.876 149.268 251.481C148.792 250.857 148.186 249.797 147.999 249.506C147.96 249.445 147.85 249.441 147.825 249.403C147.595 248.978 147.333 248.571 147.043 248.186C147.253 247.96 147.428 247.681 147.631 247.427C148.014 247.338 148.076 246.883 148.292 246.599C149.121 245.64 150.036 244.763 151.027 243.977C152.549 242.581 154.105 241.238 155.568 239.783C155.871 239.485 156.603 239.721 156.02 238.395L155.985 238.341C155.734 237.885 155.434 237.458 155.091 237.067C153.734 235.139 153.149 234.664 152.96 235.29C152.911 235.432 152.748 235.43 152.613 235.454C152.265 235.556 151.942 235.732 151.665 235.97C151.378 236.159 151.33 236.703 151.066 236.878C149.843 237.484 148.659 238.167 147.52 238.923C146.309 239.918 145.425 241.286 144.304 242.385C143.869 242.813 143.408 243.216 142.941 243.611C142.616 243.106 142.226 242.633 141.851 242.15C140.67 240.63 139.533 239.079 138.281 237.617C138.07 237.287 138.329 236.604 136.966 237.143C136.966 237.143 136.929 237.168 136.913 237.178C136.458 237.416 136.028 237.7 135.63 238.025C133.644 239.27 133.131 239.826 133.699 240.04C133.826 240.087 133.827 240.239 133.823 240.384C133.887 240.718 134.021 241.034 134.215 241.313C134.393 241.588 134.892 241.662 135.031 241.93C135.49 243.133 136.03 244.303 136.647 245.431C137.215 246.183 137.854 246.879 138.553 247.509C137.806 248.114 137.147 248.824 136.596 249.617C135.877 250.723 134.585 251.173 133.493 251.849C133.047 252.143 133.573 253.312 134.93 254.956C136.288 256.6 136.632 256.231 136.931 256.11C138.711 255.318 140.334 254.203 141.72 252.82C141.931 252.681 142.133 252.46 142.368 252.273L142.442 252.387C143.55 253.727 144.316 255.304 145.77 256.394C146.757 257.127 147.059 258.399 147.602 259.479C147.756 259.868 148.905 259.415 150.664 258.135Z" fill="#0078DB"/>
</svg>
