<svg width="24" height="24" viewBox="0 0 24 24" fill="none" xmlns="http://www.w3.org/2000/svg">
<g clip-path="url(#clip0_969_7683)">
<path d="M7.99969 23.32V17.8L3.87969 20.84C5.03969 21.92 6.43969 22.76 7.99969 23.32ZM15.9997 23.32C17.5597 22.76 18.9597 21.92 20.1197 20.84L15.9997 17.76V23.32ZM0.679688 16C0.799687 16.4 0.959688 16.76 1.15969 17.16L2.71969 16H0.679688ZM21.2797 16L22.8397 17.16C22.9997 16.8 23.1597 16.4 23.3197 16H21.2797Z" fill="#2A5F9E"/>
<path d="M8.60023 14.4H0.240234C0.360234 14.96 0.520234 15.48 0.680234 16H2.72023L1.16023 17.16C1.48023 17.84 1.84023 18.44 2.28023 19.04L6.40023 16H8.00023V16.8L3.32023 20.24L3.88023 20.8L8.00023 17.8V23.32C8.52023 23.52 9.04023 23.64 9.60023 23.76V14.4H8.60023ZM23.7602 14.4H14.4002V23.76C14.9602 23.64 15.4802 23.48 16.0002 23.32V17.8L20.1202 20.8C20.6802 20.28 21.1602 19.72 21.6402 19.12L17.3602 16H20.0802L22.5202 17.8C22.6402 17.6 22.7602 17.36 22.8402 17.16L21.2802 16H23.3202C23.4802 15.48 23.6402 14.96 23.7602 14.4Z" fill="white"/>
<path d="M2.2793 19.04C2.5993 19.48 2.9193 19.88 3.2793 20.28L7.9993 16.84V16.04H6.3993L2.2793 19.04ZM17.3993 16L21.6793 19.12C21.8393 18.92 21.9593 18.72 22.1193 18.52C22.1593 18.48 22.1593 18.44 22.1993 18.44C22.3193 18.24 22.4793 18 22.5993 17.8L20.0793 16H17.3993Z" fill="#ED4C5C"/>
<path d="M15.9997 0.680054V6.20005L20.1197 3.16005C18.9597 2.08005 17.5597 1.24005 15.9997 0.680054ZM7.99969 0.680054C6.43969 1.24005 5.03969 2.08005 3.87969 3.16005L7.99969 6.24005V0.680054ZM23.3197 8.00005C23.1997 7.60005 23.0397 7.24005 22.8397 6.84005L21.2797 8.00005H23.3197ZM2.71969 8.00005L1.15969 6.84005C0.999687 7.24005 0.839687 7.60005 0.679688 8.00005H2.71969Z" fill="#2A5F9E"/>
<path d="M15.4002 9.59999H23.7202C23.6002 9.03999 23.4402 8.51999 23.2802 7.99999H21.2402L22.8002 6.83999C22.4802 6.15999 22.1202 5.55999 21.6802 4.95999L17.6002 7.99999H16.0002V7.19999L20.6802 3.75999L20.1202 3.19999L16.0002 6.19999V0.67999C15.4802 0.47999 14.9602 0.35999 14.4002 0.23999V9.59999H15.4002ZM0.240234 9.59999H9.60023V0.23999C9.04023 0.35999 8.52023 0.51999 8.00023 0.67999V6.19999L3.88023 3.19999C3.32023 3.71999 2.84023 4.27999 2.36023 4.87999L6.64023 7.99999H3.92023L1.48023 6.19999C1.36023 6.39999 1.24023 6.63999 1.16023 6.83999L2.72023 7.99999H0.680234C0.520234 8.51999 0.360234 9.03999 0.240234 9.59999Z" fill="white"/>
<path d="M21.7195 4.95997C21.3995 4.51997 21.0795 4.11997 20.7195 3.71997L15.9995 7.15997V7.95997H17.5995L21.7195 4.95997ZM6.59945 7.99997L2.35945 4.87997C2.19945 5.07997 2.07945 5.27997 1.91945 5.47997C1.87945 5.51997 1.87945 5.55997 1.83945 5.55997C1.71945 5.75997 1.55945 5.99997 1.43945 6.19997L3.87945 7.99997H6.59945Z" fill="#ED4C5C"/>
<path d="M23.76 9.6H14.4V0.24C13.64 0.08 12.84 0 12 0C11.16 0 10.36 0.08 9.6 0.24V9.6H0.24C0.08 10.36 0 11.16 0 12C0 12.84 0.08 13.64 0.24 14.4H9.6V23.76C10.36 23.92 11.16 24 12 24C12.84 24 13.64 23.92 14.4 23.76V14.4H23.76C23.92 13.64 24 12.84 24 12C24 11.16 23.92 10.36 23.76 9.6Z" fill="#ED4C5C"/>
</g>
<defs>
<clipPath id="clip0_969_7683">
<rect width="24" height="24" fill="white"/>
</clipPath>
</defs>
</svg>
