<svg width="24" height="24" viewBox="0 0 24 24" fill="none" xmlns="http://www.w3.org/2000/svg">
<path d="M0 12C0 14.36 0.681135 16.56 1.84307 18.4H22.1569C23.3189 16.56 24 14.36 24 12C24 9.63998 23.3189 7.43998 22.1569 5.59998H1.84307C0.681135 7.43998 0 9.63998 0 12Z" fill="#FFCE31"/>
<path d="M22.1996 5.6C20.0761 2.24 16.3098 0 12.0227 0C7.73552 0 3.96924 2.24 1.8457 5.6H22.1996ZM1.8457 18.4C3.96924 21.76 7.73552 24 12.0227 24C16.3098 24 20.0761 21.76 22.1996 18.4H1.8457Z" fill="#ED4C5C"/>
<path d="M2.88867 10.6799H4.17081V11.3999H2.88867V10.6799ZM2.88867 15.9599H4.21088V16.6399H2.88867V15.9599Z" fill="#C8B100"/>
<path d="M2.7625 14.8401C2.6425 14.9201 2.5625 15.0001 2.5625 15.0401C2.5625 15.0801 2.6025 15.1201 2.6825 15.1601C2.7625 15.2001 2.8425 15.2801 2.8025 15.3601C2.8825 15.2801 2.9225 15.2001 2.9225 15.1201C2.9225 15.0001 2.8425 14.8801 2.7625 14.8401Z" fill="#ED4C5C"/>
<path d="M3.08789 11.4H4.00943V15.96H3.08789V11.4Z" fill="white"/>
<path d="M4.97286 13.0801C4.77252 13.0001 4.41192 12.9201 4.01126 12.9201C3.89106 12.9201 3.73079 12.9201 3.57052 12.9601C3.00959 13.0401 2.56885 13.2801 2.60892 13.4401L2.40858 13.0001C2.36852 12.8001 2.84932 12.5601 3.45032 12.4401C3.65065 12.4001 3.85099 12.4001 4.01126 12.4001C4.41192 12.4001 4.77252 12.4401 4.97286 12.5201V13.0801Z" fill="#ED4C5C"/>
<path d="M3.08917 13.6801C2.84877 13.6801 2.64844 13.6001 2.64844 13.4801C2.64844 13.4001 2.72857 13.2801 2.88884 13.2001H3.12924L3.08917 13.6801ZM4.01071 13.3201C4.17097 13.3601 4.29118 13.4001 4.37131 13.4401C4.41138 13.4801 4.25111 13.6401 4.01071 13.7601V13.3201Z" fill="#ED4C5C"/>
<path d="M2.48429 14.5602C2.44422 14.4802 2.72469 14.3202 3.08529 14.2002C3.24555 14.1602 3.36575 14.0802 3.56609 14.0002C4.04689 13.8002 4.44756 13.5202 4.36742 13.4402L4.44756 13.9202C4.48762 14.0002 4.16709 14.2402 3.68629 14.4802C3.52602 14.5602 3.24555 14.6802 3.08529 14.7202C2.80482 14.8002 2.56442 14.9602 2.56442 15.0002L2.48429 14.5602Z" fill="#ED4C5C"/>
<path d="M11.501 10.6799H12.7831V11.3999H11.501V10.6799ZM11.4609 15.9599H12.7831V16.6399H11.4609V15.9599Z" fill="#C8B100"/>
<path d="M12.8983 14.8401C13.0183 14.9201 13.0983 15.0001 13.0983 15.0401C13.0983 15.0801 13.0583 15.1201 12.9783 15.1601C12.8983 15.2401 12.8183 15.3601 12.8583 15.4001C12.7783 15.3201 12.7383 15.2401 12.7383 15.1601C12.7383 15.0001 12.8183 14.8801 12.8983 14.8401Z" fill="#ED4C5C"/>
<path d="M11.6602 11.4H12.5817V15.96H11.6602V11.4Z" fill="white"/>
<path d="M10.6953 13.08C10.8956 13 11.2562 12.92 11.6569 12.92C11.7771 12.92 11.9374 12.92 12.0976 12.96C12.6586 13.04 13.0993 13.28 13.0593 13.44L13.2596 12.96C13.2997 12.76 12.8189 12.52 12.2178 12.4H11.6569C11.2562 12.4 10.8956 12.44 10.6953 12.52V13.08Z" fill="#ED4C5C"/>
<path d="M12.5773 13.68C12.8177 13.68 13.0181 13.6 13.0181 13.48C13.0181 13.4 12.9379 13.28 12.7777 13.2H12.5373L12.5773 13.68ZM11.6558 13.32C11.4955 13.36 11.3753 13.4 11.2952 13.44C11.2551 13.48 11.4154 13.64 11.6558 13.76V13.32Z" fill="#ED4C5C"/>
<path d="M13.1815 14.56C13.2216 14.48 12.9411 14.32 12.5805 14.2C12.4202 14.16 12.3 14.08 12.0997 14C11.6189 13.8 11.2182 13.52 11.2984 13.44L11.2182 13.92C11.1782 14 11.4987 14.24 11.9795 14.48C12.1398 14.56 12.4202 14.68 12.5805 14.72C12.861 14.8 13.1014 15 13.0613 15.04L13.1815 14.56ZM7.81254 8.12C8.57381 8.12 10.1364 8.28 10.6974 8.84C10.0963 10.28 9.13475 9.68 7.81254 9.68C6.53041 9.68 5.52874 10.28 4.92773 8.84C5.48867 8.28 7.01121 8.12 7.81254 8.12Z" fill="#ED4C5C"/>
<path d="M9.77372 9.72002C9.29292 9.44002 8.57172 9.40002 7.81045 9.40002C7.04918 9.40002 6.32798 9.48002 5.84718 9.72002L6.00744 10.4C6.44818 10.52 7.08925 10.6 7.81045 10.6C8.53165 10.6 9.13265 10.52 9.61345 10.4L9.77372 9.72002ZM10.4549 8.00002C10.2946 7.88002 9.97406 7.76002 9.69359 7.76002C9.57339 7.76002 9.45319 7.76002 9.33299 7.80002C9.33299 7.80002 9.09259 7.48002 8.53165 7.48002C8.33132 7.48002 8.17105 7.52002 8.01078 7.60002V7.56002C7.97072 7.48002 7.89058 7.40002 7.81045 7.40002C7.73032 7.40002 7.61012 7.52002 7.61012 7.60002V7.64002C7.44985 7.56002 7.28958 7.52002 7.08925 7.52002C6.52831 7.52002 6.28791 7.88002 6.28791 7.84002C6.16771 7.80002 6.04751 7.80002 5.92731 7.80002C4.08424 7.80002 5.00577 9.04002 5.00577 9.04002L5.20611 8.80002C4.76537 8.24002 5.16604 7.92002 5.96738 7.92002C6.08758 7.92002 6.16771 7.92002 6.24784 7.96002C5.96738 8.36002 6.48825 8.72002 6.48825 8.72002L6.60845 8.52002C6.32798 8.32002 6.28791 7.64002 7.08925 7.64002C7.28958 7.64002 7.44985 7.68002 7.61012 7.80002C7.61012 7.84002 7.57005 8.40002 7.52998 8.48002L7.85052 8.76002L8.17105 8.48002C8.13098 8.36002 8.09092 7.84002 8.09092 7.80002C8.21112 7.72002 8.41145 7.64002 8.61178 7.64002C9.45319 7.64002 9.45319 8.32002 9.09259 8.52002L9.21279 8.72002C9.21279 8.72002 9.65352 8.36002 9.45319 7.96002C9.53332 7.96002 9.65352 7.92002 9.73365 7.92002C10.6953 7.92002 10.7353 8.64002 10.4949 8.80002L10.6552 9.04002C10.5751 9.04002 11.0158 8.48002 10.4549 8.00002Z" fill="#C8B100"/>
<path d="M7.57031 7.24C7.57031 7.12 7.69031 7 7.81031 7C7.97031 7 8.05031 7.12 8.05031 7.24C8.05031 7.36 7.93031 7.48 7.81031 7.48C7.69031 7.48 7.57031 7.36 7.57031 7.24Z" fill="#005BBF"/>
<path d="M7.73031 6.55988V6.67988H7.61031V6.79988H7.73031V7.19988H7.57031V7.31988H8.05031L8.09031 7.23988L8.05031 7.19988H7.89031V6.79988H8.01031V6.67988H7.89031V6.55988H7.73031Z" fill="#C8B100"/>
<path d="M7.81071 10.5201C7.16964 10.5201 6.6087 10.4401 6.16797 10.3201C6.6087 10.2001 7.16964 10.1201 7.81071 10.1201C8.45178 10.1201 9.01271 10.2001 9.45344 10.3201C9.05278 10.4401 8.45178 10.5201 7.81071 10.5201Z" fill="#ED4C5C"/>
<path d="M7.8516 17.4401C7.09034 17.4401 6.36913 17.2401 5.72807 16.9601C5.24726 16.7201 4.9668 16.2801 4.9668 15.7601V13.8401H10.7364V15.7601C10.7364 16.2801 10.4159 16.7601 9.97514 16.9601C9.33407 17.2801 8.61287 17.4401 7.8516 17.4401ZM7.81154 10.6401H10.6963V13.8401H7.81154V10.6401Z" fill="white"/>
<path d="M7.8516 15.7601C7.8516 16.5201 7.21054 17.1201 6.4092 17.1201C5.60787 17.1201 4.9668 16.5201 4.9668 15.7601V13.8401H7.8516V15.7601Z" fill="#ED4C5C"/>
<path d="M5.56685 16.8799C5.64698 16.9199 5.76718 16.9999 5.92745 17.0399V13.7599H5.60692L5.56685 16.8799ZM4.92578 15.7199C4.92578 16.1199 5.08605 16.4399 5.24632 16.5999V13.7599H4.92578V15.7199Z" fill="#C8B100"/>
<path d="M6.21094 17.1199H6.53094V13.7599H6.21094V17.1199Z" fill="#C7B500"/>
<path d="M6.85352 17.0399C6.97352 16.9999 7.13352 16.9199 7.21352 16.8799V13.7599H6.89352L6.85352 17.0399Z" fill="#C8B100"/>
<path d="M4.92578 10.6401H7.81059V13.8401H4.92578V10.6401Z" fill="#ED4C5C"/>
<path d="M7.5293 16.6C7.6893 16.48 7.8093 16.2 7.8493 15.88V13.8H7.5293V16.6Z" fill="#C8B100"/>
<path d="M10.7364 13.8401V15.7601C10.7364 16.5201 10.0954 17.1201 9.29402 17.1201C8.49269 17.1201 7.85162 16.5201 7.85162 15.7601V13.8401H10.7364ZM9.69469 11.2001C9.81489 11.4401 9.81489 12.0401 9.45429 11.9201C9.53442 11.9601 9.57449 12.2401 9.69469 12.4001C9.89502 12.6401 10.1354 12.4401 10.0954 12.1601C10.0152 11.7201 10.0553 11.4401 10.1354 11.0001C10.1354 11.0401 10.3358 11.0401 10.4159 10.9601C10.3758 11.0801 10.3358 11.2401 10.4159 11.2401C10.3358 11.3601 10.1354 11.5601 10.0954 11.6801C10.0553 11.9601 10.496 12.4801 10.0152 12.6001C9.69469 12.6801 9.89502 12.9201 10.0152 13.0401C10.0152 13.0401 9.85496 13.5601 9.93509 13.5201C9.61456 13.6401 9.69469 13.3601 9.69469 13.3601C9.85496 12.8801 9.41422 12.8401 9.45429 12.7601C9.05362 12.7201 9.49436 13.1201 9.13375 13.1201C9.05362 13.1201 8.89335 13.2001 8.89335 13.2001C8.45262 13.1601 8.69302 12.7601 8.85329 12.8001C8.97349 12.8401 9.09369 13.0401 9.09369 12.7601C9.09369 12.7601 8.89335 12.4401 9.41422 12.4401C9.21389 12.4401 9.09369 12.2801 9.01355 12.0801C8.93342 12.1201 8.81322 12.3201 8.37249 12.3601C8.37249 12.3601 8.25229 11.9201 8.37249 12.0001C8.53275 12.0801 8.61289 12.0801 8.77315 11.9201C8.69302 11.8001 8.21222 11.6401 8.29235 11.3601C8.29235 11.2801 8.53275 11.1601 8.53275 11.1601C8.49269 11.3601 8.61289 11.5601 8.85329 11.5601C9.17382 11.6001 9.05362 11.4801 9.09369 11.4001C9.13376 11.3201 9.37416 11.4401 9.29402 11.2401C9.29402 11.2001 9.01355 11.1601 9.09369 11.0401C9.25396 10.8401 9.49436 11.0001 9.69469 11.2001ZM7.85162 17.0401L7.77148 16.8401L7.85162 16.6001L7.93175 16.8401L7.85162 17.0401Z" fill="#ED4C5C"/>
<path d="M5.80876 11.32V11.52H5.88889V11.68H5.68856V12.08H5.80876V12.96H5.56836V13.4H7.2111V12.96H7.01076V12.08H7.0909V11.68H6.89056V11.52H7.01076V11.32H6.6101V11.52H6.69023V11.68H6.4899V11.2H6.6101V11H6.16936V11.2H6.28956V11.68H6.08923V11.52H6.16936V11.32H5.80876ZM10.3363 16.24V14.24H8.25283V16.24L9.21444 16.68H9.33464L10.3363 16.24ZM9.21444 14.4V15.08L8.5333 14.4H9.21444ZM8.37303 14.44L9.17437 15.24L8.37303 16.04V14.44ZM8.45317 16.2L9.21444 15.44V16.56L8.45317 16.2ZM9.33464 16.52V15.4L10.0959 16.16L9.33464 16.52ZM10.176 16.04L9.3747 15.24L10.176 14.44V16.04ZM9.33464 14.4H10.0158L9.33464 15.08V14.4Z" fill="#C8B100"/>
<path d="M6.89453 13.7999C6.89453 13.1999 7.2952 12.7599 7.81607 12.7599C8.33693 12.7599 8.7376 13.2399 8.7376 13.7999C8.7376 14.3599 8.33693 14.8399 7.81607 14.8399C7.2952 14.8399 6.89453 14.3999 6.89453 13.7999Z" fill="#ED4C5C"/>
<path d="M7.16992 13.8001C7.16992 13.3601 7.45039 13.0401 7.81099 13.0401C8.17159 13.0401 8.45206 13.4001 8.45206 13.8001C8.45206 14.2401 8.17159 14.5601 7.81099 14.5601C7.49046 14.6001 7.16992 14.2401 7.16992 13.8001Z" fill="#005BBF"/>
<path d="M7.53136 13.28L7.37109 13.72L7.49129 13.76L7.41116 13.92H7.65156L7.57143 13.76L7.69163 13.72L7.53136 13.28ZM8.13236 13.28L7.9721 13.72L8.0923 13.76L8.01216 13.92H8.25256L8.2125 13.76L8.3327 13.72L8.13236 13.28ZM7.8519 13.8L7.65156 14.24L7.77176 14.28L7.73169 14.44H7.93203L7.89196 14.28L8.01216 14.24L7.8519 13.8Z" fill="#C8B100"/>
</svg>
