<svg width="150" height="46" viewBox="0 0 150 46" fill="none" xmlns="http://www.w3.org/2000/svg">
<rect x="0.25" y="0.806152" width="149.5" height="44.5" rx="6.75" fill="#F9F9FA"/>
<rect x="0.25" y="0.806152" width="149.5" height="44.5" rx="6.75" stroke="#CDD4D8" stroke-width="0.5"/>
<path d="M32.9999 22.8562C32.9999 19.2562 35.9999 17.4562 36.0999 17.3562C34.3999 14.8562 31.7999 14.5562 30.7999 14.5562C28.5999 14.3562 26.3999 15.8562 25.2999 15.8562C24.0999 15.8562 22.3999 14.5562 20.4999 14.5562C18.0999 14.5562 15.7999 15.9562 14.5999 18.1562C12.0999 22.5562 13.9999 29.0562 16.4999 32.6562C17.6999 34.3562 19.1999 36.3562 20.9999 36.2562C22.7999 36.1562 23.4999 35.0562 25.6999 35.0562C27.8999 35.0562 28.4999 36.2562 30.3999 36.1562C32.3999 36.1562 33.5999 34.3562 34.7999 32.6562C36.1999 30.6562 36.7999 28.6562 36.7999 28.5562C36.7999 28.5562 32.9999 27.1562 32.9999 22.8562ZM29.3999 12.1562C30.3999 10.9562 31.0999 9.25615 30.8999 7.55615C29.4999 7.65615 27.6999 8.55615 26.6999 9.75615C25.7999 10.8562 24.9999 12.5562 25.1999 14.1562C26.6999 14.2562 28.2999 13.3562 29.3999 12.1562Z" fill="#202020"/>
<path d="M59.4998 36.056H56.8998L55.4998 31.656H50.5998L49.2998 36.056H46.7998L51.5998 21.056H54.5998L59.4998 36.056ZM55.0998 29.756L53.7998 25.856C53.6998 25.456 53.3998 24.556 52.9998 23.056C52.8998 23.656 52.5998 24.656 52.2998 25.856L51.0998 29.756H55.0998ZM71.7998 30.456C71.7998 32.256 71.2998 33.756 70.2998 34.856C69.3998 35.756 68.2998 36.256 66.9998 36.256C65.5998 36.256 64.4998 35.756 63.8998 34.756V40.456H61.4998V28.756C61.4998 27.556 61.4998 26.456 61.3998 25.256H63.4998L63.5998 26.956C64.3998 25.656 65.5998 25.056 67.1998 25.056C68.4998 25.056 69.4998 25.556 70.3998 26.556C71.3998 27.556 71.7998 28.856 71.7998 30.456ZM69.3998 30.556C69.3998 29.456 69.1998 28.656 68.6998 27.956C68.1998 27.256 67.4998 26.856 66.5998 26.856C65.9998 26.856 65.4998 27.056 64.9998 27.456C64.4998 27.856 64.1998 28.356 64.0998 28.956C63.9998 29.156 63.9998 29.456 63.9998 29.656V31.556C63.9998 32.356 64.1998 32.956 64.6998 33.556C65.1998 34.056 65.7998 34.356 66.5998 34.356C67.4998 34.356 68.1998 34.056 68.6998 33.356C69.1998 32.656 69.3998 31.656 69.3998 30.556ZM84.2998 30.456C84.2998 32.256 83.7998 33.756 82.7998 34.856C81.8998 35.756 80.7998 36.256 79.4998 36.256C78.0998 36.256 76.9998 35.756 76.3998 34.756V40.456H73.9998V28.756C73.9998 27.556 73.9998 26.456 73.8998 25.256H75.9998L76.0998 26.956C76.8998 25.656 78.0998 25.056 79.6998 25.056C80.9998 25.056 81.9998 25.556 82.8998 26.556C83.7998 27.556 84.2998 28.856 84.2998 30.456ZM81.7998 30.556C81.7998 29.456 81.5998 28.656 81.0998 27.956C80.5998 27.256 79.8998 26.856 78.9998 26.856C78.3998 26.856 77.8998 27.056 77.3998 27.456C76.8998 27.856 76.5998 28.356 76.4998 28.956C76.3998 29.256 76.3998 29.456 76.3998 29.656V31.556C76.3998 32.356 76.5998 32.956 77.0998 33.556C77.5998 34.056 78.1998 34.356 78.9998 34.356C79.8998 34.356 80.5998 34.056 81.0998 33.356C81.5998 32.656 81.7998 31.656 81.7998 30.556ZM98.1998 31.856C98.1998 33.156 97.7998 34.156 96.8998 34.956C95.8998 35.856 94.5998 36.256 92.7998 36.256C91.1998 36.256 89.8998 35.956 88.8998 35.356L89.4998 33.356C90.5998 33.956 91.6998 34.256 92.9998 34.256C93.8998 34.256 94.5998 34.056 95.0998 33.656C95.5998 33.256 95.8998 32.656 95.8998 32.056C95.8998 31.456 95.6998 30.956 95.2998 30.556C94.8998 30.156 94.1998 29.756 93.1998 29.356C90.5998 28.356 89.2998 26.956 89.2998 25.056C89.2998 23.856 89.7998 22.856 90.6998 22.056C91.5998 21.256 92.8998 20.856 94.3998 20.856C95.7998 20.856 96.8998 21.056 97.7998 21.556L97.1998 23.556C96.3998 23.056 95.3998 22.856 94.2998 22.856C93.4998 22.856 92.7998 23.056 92.2998 23.456C91.8998 23.856 91.6998 24.256 91.6998 24.856C91.6998 25.456 91.8998 25.956 92.3998 26.356C92.7998 26.756 93.4998 27.056 94.5998 27.556C95.8998 28.056 96.7998 28.656 97.3998 29.356C97.8998 29.856 98.1998 30.756 98.1998 31.856ZM106.1 27.056H103.5V32.256C103.5 33.556 104 34.256 104.9 34.256C105.3 34.256 105.7 34.256 106 34.156L106.1 35.956C105.6 36.156 105 36.256 104.2 36.256C103.3 36.256 102.5 35.956 102 35.356C101.5 34.756 101.2 33.856 101.2 32.456V27.056H99.5998V25.256H101.2V23.256L103.6 22.556V25.256H106.2L106.1 27.056ZM118 30.556C118 32.256 117.5 33.556 116.6 34.656C115.6 35.756 114.3 36.256 112.6 36.256C111 36.256 109.8 35.756 108.8 34.656C107.9 33.556 107.4 32.256 107.4 30.656C107.4 28.956 107.9 27.656 108.9 26.556C109.9 25.456 111.2 24.956 112.8 24.956C114.4 24.956 115.7 25.456 116.6 26.556C117.6 27.556 118 28.856 118 30.556ZM115.5 30.556C115.5 29.556 115.3 28.756 114.9 28.056C114.4 27.156 113.7 26.756 112.7 26.756C111.7 26.756 111 27.156 110.5 28.056C110.1 28.756 109.9 29.656 109.9 30.656C109.9 31.656 110.1 32.456 110.5 33.156C111 34.056 111.7 34.456 112.7 34.456C113.6 34.456 114.3 34.056 114.9 33.156C115.3 32.456 115.5 31.556 115.5 30.556ZM125.8 27.356C125.6 27.356 125.3 27.256 125 27.256C124.2 27.256 123.5 27.556 123 28.256C122.6 28.856 122.4 29.556 122.4 30.356V36.056H120V28.656C120 27.556 120 26.356 119.9 25.256H122L122.1 27.356H122.2C122.5 26.656 122.9 26.056 123.4 25.656C123.9 25.256 124.5 25.056 125.1 25.056C125.3 25.056 125.5 25.056 125.7 25.056L125.8 27.356ZM136.6 30.056C136.6 30.456 136.6 30.756 136.5 31.156H129.3C129.3 32.256 129.7 33.056 130.3 33.556C130.9 34.056 131.7 34.356 132.7 34.356C133.8 34.356 134.7 34.156 135.6 33.856L136 35.556C135 35.956 133.8 36.256 132.4 36.256C130.7 36.256 129.4 35.756 128.5 34.756C127.5 33.756 127.1 32.456 127.1 30.756C127.1 29.156 127.5 27.756 128.4 26.656C129.3 25.456 130.6 24.956 132.2 24.956C133.8 24.956 134.9 25.556 135.7 26.656C136.2 27.656 136.6 28.756 136.6 30.056ZM134.3 29.456C134.3 28.756 134.2 28.156 133.8 27.656C133.4 26.956 132.7 26.656 131.9 26.656C131.1 26.656 130.5 26.956 130 27.656C129.6 28.156 129.4 28.756 129.3 29.556L134.3 29.456Z" fill="#202020"/>
<path d="M49.9998 15.7561C49.2998 15.7561 48.7998 15.7561 48.2998 15.6561V8.45605C48.9998 8.35605 49.6998 8.25605 50.2998 8.25605C53.0998 8.25605 54.2998 9.65605 54.2998 11.8561C54.2998 14.3561 52.7998 15.7561 49.9998 15.7561ZM50.3998 9.15605C49.9998 9.15605 49.6998 9.15605 49.3998 9.25605V14.7561C49.4998 14.7561 49.7998 14.7561 50.1998 14.7561C51.9998 14.7561 52.9998 13.7561 52.9998 11.8561C52.9998 10.1561 52.0998 9.15605 50.3998 9.15605ZM58.1998 15.7561C56.5998 15.7561 55.5998 14.5561 55.5998 13.0561C55.5998 11.4561 56.5998 10.2561 58.1998 10.2561C59.6998 10.2561 60.7998 11.3561 60.7998 12.9561C60.8998 14.6561 59.7998 15.7561 58.1998 15.7561ZM58.2998 11.1561C57.3998 11.1561 56.8998 11.9561 56.8998 13.0561C56.8998 14.1561 57.4998 14.9561 58.2998 14.9561C59.0998 14.9561 59.6998 14.0561 59.6998 13.0561C59.5998 11.9561 59.0998 11.1561 58.2998 11.1561ZM69.6998 10.3561L67.9998 15.6561H66.9998L66.2998 13.3561C66.0998 12.7561 65.9998 12.2561 65.8998 11.6561C65.7998 12.2561 65.5998 12.8561 65.4998 13.3561L64.7998 15.6561H63.6998L61.9998 10.3561H63.1998L63.7998 12.8561C63.8998 13.4561 64.0998 14.0561 64.1998 14.5561C64.2998 14.1561 64.3998 13.5561 64.5998 12.8561L65.3998 10.3561H66.3998L67.0998 12.8561C67.2998 13.4561 67.3998 14.0561 67.4998 14.5561C67.5998 14.0561 67.6998 13.4561 67.8998 12.8561L68.4998 10.3561H69.6998ZM75.7998 15.6561H74.5998V12.6561C74.5998 11.7561 74.1998 11.2561 73.4998 11.2561C72.7998 11.2561 72.2998 11.8561 72.2998 12.5561V15.7561H71.0998V11.9561C71.0998 11.4561 71.0998 10.9561 71.0998 10.4561H72.0998L72.1998 11.2561C72.4998 10.6561 73.1998 10.3561 73.8998 10.3561C74.9998 10.3561 75.6998 11.2561 75.6998 12.5561L75.7998 15.6561ZM79.0998 15.6561H77.8998V7.95605H79.0998V15.6561ZM83.3998 15.7561C81.8998 15.7561 80.7998 14.5561 80.7998 13.0561C80.7998 11.4561 81.7998 10.2561 83.3998 10.2561C84.8998 10.2561 85.9998 11.3561 85.9998 12.9561C85.9998 14.6561 84.9998 15.7561 83.3998 15.7561ZM83.3998 11.1561C82.4998 11.1561 81.9998 11.9561 81.9998 13.0561C81.9998 14.1561 82.5998 14.9561 83.3998 14.9561C84.1998 14.9561 84.7998 14.0561 84.7998 13.0561C84.7998 11.9561 84.2998 11.1561 83.3998 11.1561ZM90.6998 15.6561L90.5998 15.0561C90.1998 15.5561 89.6998 15.7561 88.9998 15.7561C87.9998 15.7561 87.3998 15.0561 87.3998 14.1561C87.3998 12.8561 88.4998 12.1561 90.4998 12.1561V12.0561C90.4998 11.3561 90.0998 11.0561 89.3998 11.0561C88.8998 11.0561 88.3998 11.1561 87.9998 11.4561L87.7998 10.6561C88.2998 10.3561 88.8998 10.1561 89.5998 10.1561C90.9998 10.1561 91.6998 10.8561 91.6998 12.3561V14.3561C91.6998 14.8561 91.6998 15.3561 91.7998 15.6561H90.6998ZM90.4998 13.0561C89.1998 13.0561 88.4998 13.3561 88.4998 14.1561C88.4998 14.7561 88.7998 14.9561 89.2998 14.9561C89.8998 14.9561 90.4998 14.4561 90.4998 13.8561V13.0561ZM97.3998 15.6561L97.2998 14.7561C96.9998 15.3561 96.3998 15.7561 95.5998 15.7561C94.2998 15.7561 93.3998 14.6561 93.3998 13.0561C93.3998 11.3561 94.3998 10.2561 95.6998 10.2561C96.3998 10.2561 96.8998 10.4561 97.1998 10.9561V7.95605H98.3998V14.2561C98.3998 14.7561 98.3998 15.2561 98.3998 15.6561H97.3998ZM97.1998 12.5561C97.1998 11.8561 96.6998 11.1561 95.9998 11.1561C95.0998 11.1561 94.5998 11.9561 94.5998 13.0561C94.5998 14.1561 95.1998 14.8561 95.9998 14.8561C96.6998 14.8561 97.2998 14.2561 97.2998 13.4561L97.1998 12.5561ZM105.9 15.7561C104.4 15.7561 103.3 14.5561 103.3 13.0561C103.3 11.4561 104.3 10.2561 105.9 10.2561C107.4 10.2561 108.5 11.3561 108.5 12.9561C108.5 14.6561 107.5 15.7561 105.9 15.7561ZM105.9 11.1561C105 11.1561 104.5 11.9561 104.5 13.0561C104.5 14.1561 105.1 14.9561 105.9 14.9561C106.7 14.9561 107.3 14.0561 107.3 13.0561C107.3 11.9561 106.8 11.1561 105.9 11.1561ZM114.9 15.6561H113.7V12.6561C113.7 11.7561 113.3 11.2561 112.6 11.2561C111.9 11.2561 111.4 11.8561 111.4 12.5561V15.7561H110.2V11.9561C110.2 11.4561 110.2 10.9561 110.2 10.4561H111.2L111.3 11.2561C111.6 10.6561 112.3 10.3561 113 10.3561C114.1 10.3561 114.8 11.2561 114.8 12.5561V15.6561H114.9ZM122.8 11.2561H121.5V13.8561C121.5 14.5561 121.7 14.8561 122.2 14.8561C122.4 14.8561 122.6 14.8561 122.7 14.7561V15.6561C122.5 15.7561 122.2 15.7561 121.8 15.7561C120.9 15.7561 120.3 15.2561 120.3 13.8561V11.1561H119.5V10.3561H120.3V9.35605L121.5 9.05605V10.3561H122.8V11.2561ZM129.1 15.6561H127.9V12.6561C127.9 11.7561 127.5 11.2561 126.8 11.2561C126.2 11.2561 125.6 11.6561 125.6 12.5561V15.7561H124.4V7.95605H125.6V11.1561C126 10.5561 126.5 10.2561 127.2 10.2561C128.3 10.2561 129 11.1561 129 12.5561V15.6561H129.1ZM135.5 13.2561H132C132 14.2561 132.7 14.8561 133.7 14.8561C134.2 14.8561 134.7 14.7561 135.1 14.5561L135.3 15.3561C134.8 15.5561 134.2 15.6561 133.5 15.6561C131.8 15.6561 130.9 14.6561 130.9 12.9561C130.9 11.3561 131.9 10.0561 133.4 10.0561C134.8 10.0561 135.6 11.0561 135.6 12.5561C135.5 12.9561 135.5 13.1561 135.5 13.2561ZM134.4 12.4561C134.4 11.6561 134 11.0561 133.2 11.0561C132.5 11.0561 132 11.6561 131.9 12.4561H134.4Z" fill="#202020"/>
</svg>
