<svg width="79" height="78" viewBox="0 0 79 78" fill="none" xmlns="http://www.w3.org/2000/svg">
<path fill-rule="evenodd" clip-rule="evenodd" d="M18.5343 0H61.3973C71.0282 0 78.9658 7.93759 78.9658 17.5685V60.4315C78.9658 70.0624 71.0282 78 61.3973 78H18.5343C8.9034 78 0.96582 70.0624 0.96582 60.4315V17.5685C0.96582 7.93759 8.9034 0 18.5343 0Z" fill="url(#paint0_linear_916_3602)"/>
<path fill-rule="evenodd" clip-rule="evenodd" d="M60.2325 16.7218C56.7399 14.711 52.2949 15.8751 50.3899 19.3677L40.1239 37.042L36.4197 43.6038C36.4197 43.6038 36.4197 43.7096 36.3139 43.7096L35.8906 44.4504C35.5731 44.9796 35.0439 45.2971 34.4089 45.2971C34.0914 45.2971 33.7739 45.1913 33.4564 44.9796C32.7155 44.4504 32.6097 43.4979 33.033 42.6513L35.8906 37.677C36.1022 37.3595 36.1022 36.9362 35.8906 36.6187L30.1755 26.6703C28.1646 23.1777 23.7196 22.0135 20.3329 24.0244C16.8404 26.0353 15.6762 30.4803 17.687 33.867L31.8688 58.5264C34.6205 63.289 41.6056 63.289 44.3573 58.5264L62.8783 26.5644C64.8892 23.1777 63.725 18.7327 60.2325 16.7218Z" fill="white"/>
<defs>
<linearGradient id="paint0_linear_916_3602" x1="0.99048" y1="39.0171" x2="79.0248" y2="39.0171" gradientUnits="userSpaceOnUse">
<stop stop-color="#009DFE"/>
<stop offset="1" stop-color="#0078DB"/>
</linearGradient>
</defs>
</svg>
