<svg width="152" height="46" viewBox="0 0 152 46" fill="none" xmlns="http://www.w3.org/2000/svg">
<rect x="0.5" y="1.05615" width="150.9" height="44" rx="6.5" fill="#F9F9FA"/>
<rect x="0.5" y="1.05615" width="150.9" height="44" rx="6.5" stroke="#CDD4D8"/>
<path d="M53.3 12.0563C53.3 12.9563 53.1 13.7563 52.5 14.2563C51.8 14.9563 51 15.2563 50 15.2563C49 15.2563 48.2 14.9563 47.5 14.2563C46.8 13.5563 46.5 12.7563 46.5 11.7563C46.5 10.7563 46.8 9.95635 47.5 9.25635C48.2 8.55635 49 8.25635 50 8.25635C50.5 8.25635 50.9 8.35635 51.4 8.55635C51.9 8.75635 52.2 9.05635 52.4 9.35635L51.8 9.95635C51.3 9.35635 50.8 9.15635 50 9.15635C49.3 9.15635 48.7 9.35635 48.2 9.95635C47.6 10.3563 47.4 11.0563 47.4 11.8563C47.4 12.6563 47.6 13.3563 48.2 13.7563C48.8 14.1563 49.3 14.5563 50 14.5563C50.8 14.5563 51.4 14.3563 51.9 13.7563C52.2 13.4563 52.5 12.9563 52.5 12.4563H50V11.5563H53.3V12.0563ZM58.5 9.25635H55.5V11.3563H58.3V12.1563H55.5V14.2563H58.5V15.1563H54.6V8.45635H58.5V9.25635ZM62.2 15.1563H61.3V9.15635H59.4V8.45635H64.1V9.25635H62.2V15.1563ZM67.4 15.1563V8.45635H68.3V15.2563H67.4V15.1563ZM72.1 15.1563H71.2V9.15635H69.3V8.45635H73.9V9.25635H72V15.2563H72.1V15.1563ZM82.8 14.2563C82.1 14.9563 81.3 15.2563 80.3 15.2563C79.3 15.2563 78.5 14.9563 77.8 14.2563C77.1 13.5563 76.8 12.7563 76.8 11.7563C76.8 10.7563 77.1 9.95635 77.8 9.25635C78.5 8.55635 79.3 8.25635 80.3 8.25635C81.3 8.25635 82.1 8.55635 82.8 9.25635C83.5 9.95635 83.8 10.7563 83.8 11.7563C83.8 12.7563 83.5 13.6563 82.8 14.2563ZM78.5 13.7563C79 14.1563 79.6 14.5563 80.3 14.5563C81 14.5563 81.6 14.3563 82.1 13.7563C82.6 13.3563 82.9 12.6563 82.9 11.8563C82.9 11.0563 82.7 10.3563 82.1 9.95635C81.6 9.55635 81 9.15635 80.3 9.15635C79.6 9.15635 79 9.35635 78.5 9.95635C78.1 10.3563 77.7 11.0563 77.7 11.8563C77.7 12.5563 78 13.2563 78.5 13.7563ZM85.1 15.1563V8.45635H86.1L89.4 13.7563V8.45635H90.3V15.2563H89.4L85.9 9.75635V15.2563H85.1V15.1563Z" fill="#202020" stroke="#202020" stroke-width="0.2" stroke-miterlimit="10"/>
<path d="M76.5998 25.056C73.8998 25.056 71.7998 27.056 71.7998 29.856C71.7998 32.556 73.8998 34.656 76.5998 34.656C79.2998 34.656 81.3998 32.656 81.3998 29.856C81.4998 26.956 79.2998 25.056 76.5998 25.056ZM76.5998 32.756C75.0998 32.756 73.8998 31.556 73.8998 29.856C73.8998 28.156 75.0998 26.956 76.5998 26.956C78.0998 26.956 79.2998 28.056 79.2998 29.856C79.2998 31.456 78.0998 32.756 76.5998 32.756ZM66.1998 25.056C63.4998 25.056 61.3998 27.056 61.3998 29.856C61.3998 32.556 63.4998 34.656 66.1998 34.656C68.8998 34.656 70.9998 32.656 70.9998 29.856C70.9998 26.956 68.8998 25.056 66.1998 25.056ZM66.1998 32.756C64.6998 32.756 63.4998 31.556 63.4998 29.856C63.4998 28.156 64.6998 26.956 66.1998 26.956C67.6998 26.956 68.8998 28.056 68.8998 29.856C68.8998 31.456 67.5998 32.756 66.1998 32.756ZM53.6998 26.556V28.556H58.4998C58.3998 29.656 57.8998 30.556 57.3998 31.156C56.6998 31.856 55.5998 32.656 53.6998 32.656C50.6998 32.656 48.3998 30.256 48.3998 27.256C48.3998 24.256 50.7998 21.856 53.6998 21.856C55.2998 21.856 56.4998 22.556 57.3998 23.356L58.8998 21.856C57.6998 20.756 56.0998 19.856 53.7998 19.856C49.7998 19.856 46.2998 23.256 46.2998 27.256C46.2998 31.256 49.7998 34.656 53.7998 34.656C55.9998 34.656 57.5998 33.956 58.9998 32.556C60.3998 31.156 60.7998 29.256 60.7998 27.856C60.7998 27.456 60.7998 26.956 60.6998 26.656L53.6998 26.556ZM104.7 28.156C104.3 27.056 103.1 25.156 100.7 25.156C98.2998 25.156 96.1998 27.056 96.1998 29.956C96.1998 32.656 98.1998 34.756 100.9 34.756C103 34.756 104.4 33.356 104.8 32.656L103.2 31.556C102.6 32.356 102 32.956 100.8 32.956C99.5998 32.956 98.9998 32.556 98.3998 31.456L104.8 28.756L104.7 28.156ZM98.1998 29.656C98.1998 27.856 99.6998 26.856 100.7 26.856C101.5 26.856 102.3 27.256 102.5 27.856L98.1998 29.656ZM92.8998 34.356H94.9998V20.256H92.8998V34.356ZM89.5998 26.056C88.9998 25.556 88.0998 24.956 86.9998 24.956C84.5998 24.956 82.3998 27.056 82.3998 29.756C82.3998 32.456 84.4998 34.556 86.9998 34.556C88.0998 34.556 88.9998 33.956 89.4998 33.456H89.5998V34.156C89.5998 35.956 88.5998 36.956 86.9998 36.956C85.7998 36.956 84.8998 36.056 84.5998 35.256L82.7998 36.056C83.3998 37.256 84.6998 38.856 87.0998 38.856C89.5998 38.856 91.5998 37.356 91.5998 33.856V25.256H89.5998V26.056ZM87.0998 32.756C85.5998 32.756 84.3998 31.556 84.3998 29.856C84.3998 28.156 85.5998 26.956 87.0998 26.956C88.5998 26.956 89.6998 28.156 89.6998 29.856C89.6998 31.556 88.4998 32.756 87.0998 32.756ZM114.5 20.256H109.4V34.356H111.5V29.056H114.4C116.8 29.056 119 27.356 119 24.656C119 21.956 116.9 20.256 114.5 20.256ZM114.6 26.956H111.6V22.156H114.6C116.2 22.156 117.1 23.556 117.1 24.556C117 25.756 116.1 26.956 114.6 26.956ZM127.6 24.956C126 24.956 124.4 25.656 123.9 27.056L125.8 27.856C126.3 27.056 126.9 26.856 127.7 26.856C128.8 26.856 129.8 27.556 129.9 28.656V28.756C129.6 28.556 128.7 28.156 127.8 28.156C125.8 28.156 123.8 29.256 123.8 31.256C123.8 33.156 125.5 34.456 127.3 34.456C128.8 34.456 129.4 33.756 130 33.056H130.1V34.156H132.1V28.756C131.9 26.456 129.9 24.956 127.6 24.956ZM127.4 32.756C126.7 32.756 125.7 32.456 125.7 31.556C125.7 30.456 126.9 30.056 127.9 30.056C128.8 30.056 129.2 30.256 129.8 30.456C129.6 31.856 128.5 32.756 127.4 32.756ZM139.2 25.356L136.8 31.456H136.7L134.2 25.356H132L135.7 33.856L133.6 38.556H135.7L141.4 25.256H139.2V25.356ZM120.3 34.356H122.4V20.256H120.3V34.356Z" fill="#202020"/>
<path d="M11.6998 8.95654C11.3998 9.25654 11.2998 9.85654 11.2998 10.5565V35.4565C11.2998 36.1565 11.4998 36.6565 11.8998 37.0565L11.9998 37.1565L25.8998 23.1565V22.9565L11.6998 8.95654Z" fill="url(#paint0_linear_904_3485)"/>
<path d="M30.3998 27.8564L25.7998 23.2564V22.9564L30.3998 18.3564L30.4998 18.4564L35.9998 21.5564C37.5998 22.4564 37.5998 23.9564 35.9998 24.8564L30.3998 27.8564Z" fill="url(#paint1_linear_904_3485)"/>
<path d="M30.4997 27.7562L25.7997 23.0562L11.6997 37.1562C12.2997 37.7562 12.9997 37.7562 14.0997 37.2562L30.4997 27.7562Z" fill="url(#paint2_linear_904_3485)"/>
<path d="M30.4997 18.3563L14.0997 8.95633C13.0997 8.35633 12.2997 8.45633 11.6997 9.05633L25.7997 23.0563L30.4997 18.3563Z" fill="url(#paint3_linear_904_3485)"/>
<path opacity="0.2" d="M30.3998 27.6562L14.0998 36.8562C13.1998 37.4562 12.3998 37.3562 11.8998 36.8562L11.7998 36.9563L11.8998 37.0562C12.4998 37.5562 13.2998 37.6562 14.0998 37.0562L30.3998 27.6562Z" fill="#202020"/>
<path opacity="0.12" d="M11.6998 36.8562C11.3998 36.5562 11.2998 35.9562 11.2998 35.2562V35.3562C11.2998 36.0562 11.4998 36.5562 11.8998 36.9562V36.8562H11.6998ZM35.9998 24.5562L30.3998 27.6562L30.4998 27.7562L35.9998 24.6562C36.7998 24.2562 37.0998 23.6562 37.0998 23.0562C37.0998 23.6562 36.6998 24.0562 35.9998 24.5562Z" fill="#202020"/>
<path opacity="0.25" d="M14.0998 9.15656L35.9998 21.5566C36.6998 21.9566 37.0998 22.4566 37.0998 23.0566C37.0998 22.4566 36.7998 21.9566 35.9998 21.4566L14.0998 8.95656C12.4998 8.05656 11.2998 8.75656 11.2998 10.5566V10.6566C11.2998 8.95656 12.4998 8.25656 14.0998 9.15656Z" fill="white"/>
<defs>
<linearGradient id="paint0_linear_904_3485" x1="24.5797" y1="10.3632" x2="5.6982" y2="29.2428" gradientUnits="userSpaceOnUse">
<stop stop-color="#00A0FF"/>
<stop offset="0.007" stop-color="#00A1FF"/>
<stop offset="0.26" stop-color="#00BEFF"/>
<stop offset="0.512" stop-color="#00D2FF"/>
<stop offset="0.76" stop-color="#00DFFF"/>
<stop offset="1" stop-color="#00E3FF"/>
</linearGradient>
<linearGradient id="paint1_linear_904_3485" x1="38.1204" y1="23.126" x2="10.8982" y2="23.126" gradientUnits="userSpaceOnUse">
<stop stop-color="#FFE000"/>
<stop offset="0.409" stop-color="#FFBD00"/>
<stop offset="0.775" stop-color="#FFA500"/>
<stop offset="1" stop-color="#FF9C00"/>
</linearGradient>
<linearGradient id="paint2_linear_904_3485" x1="27.974" y1="25.6405" x2="2.37033" y2="51.2423" gradientUnits="userSpaceOnUse">
<stop stop-color="#FF3A44"/>
<stop offset="1" stop-color="#C31162"/>
</linearGradient>
<linearGradient id="paint3_linear_904_3485" x1="8.22588" y1="0.807397" x2="19.6592" y2="12.2407" gradientUnits="userSpaceOnUse">
<stop stop-color="#32A071"/>
<stop offset="0.069" stop-color="#2DA771"/>
<stop offset="0.476" stop-color="#15CF74"/>
<stop offset="0.801" stop-color="#06E775"/>
<stop offset="1" stop-color="#00F076"/>
</linearGradient>
</defs>
</svg>
