<svg width="158" height="46" viewBox="0 0 158 46" fill="none" xmlns="http://www.w3.org/2000/svg">
<g clip-path="url(#clip0_781_2772)">
<path fill-rule="evenodd" clip-rule="evenodd" d="M11.0921 0.5H35.8289C41.3968 0.5 45.9552 5.05844 45.9552 10.6263V35.363C45.9552 40.9309 41.3968 45.4894 35.8289 45.4894H11.0921C5.52426 45.5 0.96582 40.9416 0.96582 35.363V10.6263C0.96582 5.05844 5.52426 0.5 11.0921 0.5Z" fill="url(#paint0_linear_781_2772)"/>
<path fill-rule="evenodd" clip-rule="evenodd" d="M35.1487 10.1269C33.1617 8.97936 30.5903 9.67003 29.4427 11.657L23.5454 21.879L21.3672 25.6405C21.3565 25.6618 21.3353 25.6724 21.3247 25.6936L21.0696 26.1293C20.889 26.4374 20.5702 26.6075 20.2302 26.6075C20.0389 26.6075 19.8477 26.5543 19.6777 26.4374C19.2633 26.1506 19.157 25.5661 19.412 25.1199L21.059 22.2722C21.1653 22.0915 21.1653 21.8684 21.059 21.6771L17.7863 15.9605C16.6387 13.9735 14.0779 13.2828 12.0803 14.4304C10.0933 15.5779 9.40258 18.1387 10.5502 20.1364L18.7214 34.343C20.3258 37.1163 24.353 37.1163 25.9469 34.343L36.6363 15.8223C37.8264 13.8353 37.1358 11.2745 35.1487 10.1269Z" fill="white"/>
<path d="M74.9104 14.9298C74.9104 15.2698 74.8679 15.6524 74.7616 15.9605L69.9375 30.2096C69.2893 32.0904 67.8336 32.7385 66.3035 32.7385C64.7734 32.7385 63.2752 32.0904 62.627 30.2096L57.8348 15.9605C57.7179 15.6524 57.686 15.2698 57.686 14.9298C57.686 13.591 58.568 12.2521 60.4487 12.2521C61.7557 12.2521 62.7439 12.9428 63.0945 14.1329L66.3141 24.6311L69.5337 14.1329C69.8738 12.9428 70.8726 12.2521 72.1795 12.2521C74.0284 12.2415 74.9104 13.5804 74.9104 14.9298Z" fill="#009DFE"/>
<path d="M92.1453 19.0632V29.0939C92.1453 30.2096 91.4971 31.3572 90.1901 31.8141C88.6919 32.3454 86.3224 32.7385 83.9103 32.7385C78.7037 32.7385 75.5266 30.5921 75.5266 26.2993C75.5266 21.624 79.0862 19.9451 83.8359 19.9451H86.9387V19.1801C86.9387 18.1494 86.2055 17.0762 84.2185 17.0762C82.9965 17.0762 81.9977 17.31 81.2645 17.5756C80.4251 17.8837 79.7344 18.1919 78.9693 18.1919C77.7474 18.1919 76.5573 17.1612 76.5573 15.7055C76.5573 14.866 76.9823 14.1329 77.7474 13.676C78.5124 13.219 80.9245 12.2627 84.0697 12.2627C88.5113 12.2415 92.1453 14.4304 92.1453 19.0632ZM83.7616 24.4611C81.5833 24.4611 80.7332 24.9924 80.7332 26.225C80.7332 27.415 81.5727 27.9144 83.7616 27.9144C84.9091 27.9144 85.9823 27.8401 86.9387 27.6063V24.4611H83.7616Z" fill="#009DFE"/>
<path d="M104.705 12.5177C106.118 12.8259 106.883 13.7822 106.883 15.1635C106.883 16.6193 105.768 17.6925 104.206 17.6925C103.441 17.6925 102.707 17.4587 102.027 17.4587C101.145 17.4587 100.688 18.0325 100.688 18.84V29.9864C100.688 31.6334 99.4984 32.7491 97.8939 32.7491C96.2894 32.7491 95.0994 31.6334 95.0994 29.9864V18.6807C95.0994 14.696 97.5539 12.2415 101.645 12.2415C102.718 12.2415 103.632 12.284 104.705 12.5177Z" fill="#009DFE"/>
<path d="M125.393 20.6358V24.3867C125.393 29.8271 122.248 32.7385 117.466 32.7385C116.468 32.7385 114.98 32.5047 113.939 32.0903V38.147C113.939 39.794 112.749 40.9097 111.144 40.9097C109.54 40.9097 108.35 39.794 108.35 38.147V16.3005C108.35 14.9191 109.274 13.6972 110.613 13.2722C112.6 12.624 114.714 12.2415 116.861 12.2415C122.248 12.2415 125.393 15.0041 125.393 20.6358ZM113.939 17.6818V26.7987C114.821 27.2981 115.703 27.6382 116.85 27.6382C118.922 27.6382 119.804 26.6818 119.804 24.6523V20.3276C119.804 18.3406 118.805 17.3418 116.85 17.3418C115.851 17.3418 114.853 17.4587 113.939 17.6818Z" fill="#009DFE"/>
<path d="M144.116 20.5508V21.7409C144.116 23.1541 143.043 24.6098 141.013 24.6098H132.704C132.704 25.9912 133.203 27.9038 135.807 27.9038C137.496 27.9038 138.527 27.5957 139.217 27.3725C139.982 27.1069 140.439 26.9475 140.939 26.9475C142.32 26.9475 143.425 28.0632 143.425 29.402C143.425 30.3265 143.043 31.0915 142.118 31.5484C140.354 32.4304 137.06 32.7385 135.796 32.7385C130.398 32.7385 127.487 29.1789 127.487 24.4292V20.5614C127.487 15.6205 130.664 12.2521 135.796 12.2521C140.896 12.2415 144.116 15.6098 144.116 20.5508ZM132.704 20.2533H138.909C138.792 18.2663 138.027 17.0762 135.807 17.0762C133.511 17.0656 132.736 18.2981 132.704 20.2533Z" fill="#009DFE"/>
<path d="M152.234 7.87426V12.624H155.103C156.899 12.624 157.897 13.7397 157.897 15.2698C157.897 16.7999 156.899 17.9156 155.103 17.9156H152.234V26.1505C152.234 27.1494 152.659 27.5638 153.35 27.5638C154.189 27.5638 154.497 27.3725 155.262 27.3725C156.718 27.3725 157.908 28.1801 157.908 29.9014C157.908 31.3146 156.909 32.2391 155.57 32.5047C154.805 32.6535 154.04 32.7385 153.158 32.7385C149.556 32.7385 146.645 30.4008 146.645 26.0337V7.87426C146.645 6.22727 147.835 5.11157 149.439 5.11157C151.044 5.1222 152.234 6.22727 152.234 7.87426Z" fill="#009DFE"/>
</g>
<defs>
<linearGradient id="paint0_linear_781_2772" x1="0.980044" y1="23.0046" x2="45.9892" y2="23.0046" gradientUnits="userSpaceOnUse">
<stop stop-color="#009DFE"/>
<stop offset="1" stop-color="#0078DB"/>
</linearGradient>
<clipPath id="clip0_781_2772">
<rect width="156.932" height="45" fill="white" transform="translate(0.96582 0.5)"/>
</clipPath>
</defs>
</svg>
