<svg width="18" height="18" viewBox="0 0 18 18" fill="none" xmlns="http://www.w3.org/2000/svg">
<path d="M15.9736 2.51553H12.4658V0.698758C12.4658 0.307453 12.1584 0 11.7671 0C11.3758 0 11.0683 0.307453 11.0683 0.698758V2.51553H6.4146V0.698758C6.4146 0.307453 6.10714 0 5.71584 0C5.32453 0 5.01708 0.307453 5.01708 0.698758V2.51553H1.50932C0.670807 2.51553 0 3.18634 0 4.02484V16.4907C0 17.3292 0.670807 18 1.50932 18H15.9736C16.8121 18 17.4829 17.3292 17.4829 16.4907V14.4224C17.4829 14.0311 17.1755 13.7236 16.7842 13.7236C16.3929 13.7236 16.0854 14.0311 16.0854 14.4224V16.4907C16.0854 16.5466 16.0295 16.6025 15.9736 16.6025H1.50932C1.45342 16.6025 1.39752 16.5466 1.39752 16.4907V9.13975H16.0854V10.9425C16.0854 11.3339 16.3929 11.6413 16.7842 11.6413C17.1755 11.6413 17.4829 11.3339 17.4829 10.9425V4.02484C17.4829 3.18634 16.8121 2.51553 15.9736 2.51553ZM1.39752 7.74224V4.02484C1.39752 3.96894 1.45342 3.91304 1.50932 3.91304H5.01708V5.67391C5.01708 6.06522 5.32453 6.37267 5.71584 6.37267C6.10714 6.37267 6.4146 6.06522 6.4146 5.67391V3.91304H11.0683V5.67391C11.0683 6.06522 11.3758 6.37267 11.7671 6.37267C12.1584 6.37267 12.4658 6.06522 12.4658 5.67391V3.91304H15.9736C16.0295 3.91304 16.0854 3.96894 16.0854 4.02484V7.74224H1.39752Z" fill="#B2ADB9"/>
</svg>
