<svg width="173" height="112" viewBox="0 0 173 112" fill="none" xmlns="http://www.w3.org/2000/svg">
<path fill-rule="evenodd" clip-rule="evenodd" d="M172.347 55.965L171.857 53.1539L171.096 50.5285L170.036 47.9196L168.682 45.3493L167.046 42.843L165.08 40.3402L162.757 37.7959L160.116 35.2488L157.192 32.7384L154.021 30.3045L150.64 27.9892L146.889 25.7056L143.193 23.7457L139.234 21.9449L134.928 20.25L130.364 18.6754L126.28 17.4337L125.496 13.333L124.413 10.7282L123.37 9.08362L122.108 7.47341L119.73 5.28141L116.539 3.35565L114.215 2.3197L111.589 1.48345L108.618 0.913469L105.3 0.598715L101.378 0.500732L97.4165 0.68651L93.1571 1.19341L88.5581 2.02292L83.6235 3.15367L78.4474 4.59315L73.1265 6.34594L64.7396 9.57326L58.6601 12.2275L52.8678 15.0661L50.0288 16.5957L44.1268 20.0475L31.3445 23.9164L14.9618 29.2917L14.7462 30.0931L15.688 30.3661L31.7309 25.1256L31.7421 25.122L40.243 22.5113L38.6965 23.5131L33.2059 27.3741L30.5775 29.3834L25.6435 33.5161L20.9485 37.9108L16.5784 42.4888L12.6683 47.1404L10.7852 49.6537L9.17209 51.9975L6.2826 56.7825L3.88268 61.6093L2.04475 66.3438L1.35376 68.6478L0.423176 73.164L0.0661583 77.5999L0.101388 79.7684L0.632951 84.1121L1.70204 87.9914L3.36095 91.6669L5.58234 95.1038L8.3377 98.2473L11.5886 101.059L15.5283 103.727L19.8022 105.954L22.1612 106.933L24.6691 107.809L30.1323 109.232L36.2195 110.28L42.8654 110.934L46.6709 111.113L54.0408 111.108L61.9917 110.635L70.5105 109.717L79.3506 108.385L88.2687 106.666L97.4195 104.495L97.4287 104.493L102.136 103.234L111.572 100.453L120.703 97.4444L133.485 92.7139L141.98 89.2211L145.884 87.442L149.572 85.6048L152.99 83.7009L156.08 81.7308L158.897 79.6883L161.521 77.5756L163.926 75.3951L166.084 73.1554L167.964 70.8632L169.678 68.3376L170.918 65.9607L171.792 63.5546L172.305 61.0927L172.488 58.5549L172.347 55.965ZM60.0471 16.1351L48.866 18.8505L53.9767 15.9738L59.7197 13.1594L65.3149 10.7111L73.5642 7.53835L78.8213 5.80536L86.4141 3.78758L93.3522 2.44758L95.4604 2.15877L99.4805 1.82553L104.661 1.84624L107.882 2.15182L109.348 2.38831L110.722 2.69644L113.244 3.49956L116.509 5.04948L119.017 6.77672L120.476 8.2233L121.698 9.77847L123.128 12.1907L123.76 13.8986L124.172 15.6296L124.369 16.8998L120.832 15.9556L116.047 14.8426L111.366 13.9168L106.88 13.1944L102.503 12.7159L97.8336 12.4739L93.4728 12.4469L89.1748 12.5822L80.9188 13.1725L73.3229 13.9112L69.7924 14.3286L66.3957 14.8571L60.0471 16.1351ZM169.364 51.1101L170.107 53.6771L170.523 56.0686L170.661 58.6035L170.483 61.0821L169.983 63.4789L169.135 65.815L167.93 68.1258L166.464 70.3026L164.691 72.4623L162.576 74.6582L160.212 76.8008L157.63 78.8807L154.858 80.8902L151.822 82.8256L148.458 84.7002L144.812 86.5159L140.944 88.277L137.167 89.8756L128.796 93.1458L120.272 96.2498L115.795 97.7658L106.497 100.667L101.791 102.013L92.4871 104.411L83.5695 106.327L79.1402 107.133L70.3525 108.458L61.894 109.369L54.0135 109.838L46.7769 109.844L40.166 109.416L36.9542 109.042L33.884 108.573L28.1804 107.356L25.5813 106.609L23.1338 105.755L18.6498 103.741L16.6285 102.611L13.1412 100.238L9.94758 97.4765L7.24188 94.3874L6.08784 92.74L4.17474 89.236L2.83374 85.5271L2.10078 81.7648L1.92717 79.6931L1.99896 75.3824L2.63363 70.9451L3.16186 68.7172L4.68195 64.1163L5.66338 61.7582L8.04018 56.9759L10.9063 52.2324L14.0906 47.7987L17.9684 43.1839L22.3067 38.6392L24.6012 36.4327L29.3708 32.2017L34.4628 28.1894L37.1506 26.2499L42.7196 22.5241L44.9446 21.1389L47.0261 20.601L47.0358 20.5986L60.3255 17.3733L66.6182 16.1066L69.9559 15.5872L81.0196 14.4378L89.23 13.8508L93.4772 13.717L97.714 13.7435L101.829 13.961L106.145 14.4335L110.582 15.1468L115.226 16.0652L119.977 17.1704L124.55 18.3918L124.598 20.3892L124.241 23.9032L123.978 25.468L123.21 28.2718L123.126 28.8763L123.622 29.1979L124.626 29.0153L124.911 28.6295L125.794 25.5113L126.373 21.138L126.388 18.9425L129.443 19.8711L133.971 21.4336L138.238 23.1129L142.153 24.894L145.807 26.8318L149.218 28.9013L152.485 31.1365L155.628 33.5475L158.525 36.035L161.14 38.5574L163.436 41.0753L165.378 43.5435L166.99 46.0137L168.321 48.5433L169.364 51.1101Z" fill="url(#paint0_linear_366_7183)"/>
<defs>
<linearGradient id="paint0_linear_366_7183" x1="-1.73049" y1="70.8038" x2="169.539" y2="39.6683" gradientUnits="userSpaceOnUse">
<stop stop-color="#009DFE"/>
<stop offset="1" stop-color="#0078DB"/>
</linearGradient>
</defs>
</svg>
